<svg width="20" height="20" viewBox="0 0 20 20" fill="none" xmlns="http://www.w3.org/2000/svg">
<path d="M9.99997 18.8891C14.9092 18.8891 18.8889 14.9094 18.8889 10.0002C18.8889 5.09102 14.9092 1.11133 9.99997 1.11133C5.09078 1.11133 1.11108 5.09102 1.11108 10.0002C1.11108 14.9094 5.09078 18.8891 9.99997 18.8891Z" fill="#53E1AD"/>
<path d="M8.33331 5.55577L12.7778 10.0002L8.33331 14.4447M18.8889 10.0002C18.8889 14.9094 14.9092 18.8891 9.99997 18.8891C5.09078 18.8891 1.11108 14.9094 1.11108 10.0002C1.11108 5.09102 5.09078 1.11133 9.99997 1.11133C14.9092 1.11133 18.8889 5.09102 18.8889 10.0002Z" stroke="#242430" stroke-miterlimit="10"/>
</svg>
