<svg width="30" height="30" viewBox="0 0 30 30" fill="none" xmlns="http://www.w3.org/2000/svg">
<path d="M14.9996 29.2218C22.8543 29.2218 29.2218 22.8543 29.2218 14.9996C29.2218 7.14485 22.8543 0.777344 14.9996 0.777344C7.14485 0.777344 0.777344 7.14485 0.777344 14.9996C0.777344 22.8543 7.14485 29.2218 14.9996 29.2218Z" fill="#53E1AD"/>
<path d="M12.3329 7.88845L19.444 14.9996L12.3329 22.1107M29.2218 14.9996C29.2218 22.8543 22.8543 29.2218 14.9996 29.2218C7.14485 29.2218 0.777344 22.8543 0.777344 14.9996C0.777344 7.14485 7.14485 0.777344 14.9996 0.777344C22.8543 0.777344 29.2218 7.14485 29.2218 14.9996Z" stroke="#E8ECE2" stroke-miterlimit="10"/>
</svg>
