<svg width="54" height="54" viewBox="0 0 54 54" fill="none" xmlns="http://www.w3.org/2000/svg">
<rect x="1" y="1" width="52" height="52" fill="#E8ECE2" stroke="#242430"/>
<path d="M14.4332 24.7711H5.95239V43.0953H35.7911L35.7908 37.8575V29.1354L35.7911 24.7711H26.2916C26.2596 24.7715 26.2275 24.7717 26.1953 24.7717C26.1632 24.7717 26.1311 24.7715 26.099 24.7711H14.4332Z" fill="#53E1AD"/>
<path d="M35.7908 29.1354V37.8575L45.5719 41.734V24.8955L35.7908 29.1354Z" fill="#53E1AD"/>
<path d="M14.4332 24.7711C17.0658 24.7711 19.2 22.6369 19.2 20.0043C19.2 17.3717 17.0658 15.2376 14.4332 15.2376C11.8006 15.2376 9.66643 17.3717 9.66643 20.0043C9.66643 22.6369 11.8006 24.7711 14.4332 24.7711Z" fill="#FBD200"/>
<path d="M26.1953 10.9048C22.3319 10.9048 19.2 14.009 19.2 17.8383C19.2 21.6356 22.28 24.72 26.099 24.7711H26.2916C30.1107 24.72 33.1907 21.6356 33.1907 17.8383C33.1907 14.009 30.0588 10.9048 26.1953 10.9048Z" fill="#FBD200"/>
<path fill-rule="evenodd" clip-rule="evenodd" d="M26.1953 11.5238C22.6686 11.5238 19.819 14.356 19.819 17.8382C19.819 21.2901 22.6192 24.1033 26.1033 24.152H26.2874C29.7715 24.1033 32.5717 21.2901 32.5717 17.8382C32.5717 14.356 29.7221 11.5238 26.1953 11.5238ZM30.3751 24.152C32.4429 22.8027 33.8098 20.4806 33.8098 17.8382C33.8098 13.6619 30.3955 10.2857 26.1953 10.2857C22.3918 10.2857 19.2327 13.0544 18.67 16.6788C17.6839 15.4243 16.1527 14.6185 14.4332 14.6185C11.4587 14.6185 9.04738 17.0298 9.04738 20.0043C9.04738 21.6728 9.80611 23.1641 10.9974 24.152H5.33334V43.7143H36.4101V38.7688L46.1909 42.6452V23.9525L36.4101 28.1922V24.152H30.3751ZM26.095 25.3901C26.1284 25.3905 26.1618 25.3907 26.1953 25.3907C26.2288 25.3907 26.2623 25.3905 26.2957 25.3901H35.172L35.172 42.4762H6.57144V25.3901H26.095ZM22.0156 24.152H17.869C18.6672 23.49 19.2713 22.602 19.5829 21.5862C20.1797 22.6197 21.0157 23.4996 22.0156 24.152ZM36.4101 37.4371L44.9528 40.8227V25.8386L36.4101 29.5416V37.4371ZM14.4332 15.8566C12.1425 15.8566 10.2855 17.7136 10.2855 20.0043C10.2855 22.295 12.1425 24.152 14.4332 24.152C16.7239 24.152 18.5809 22.295 18.5809 20.0043C18.5809 17.7136 16.7239 15.8566 14.4332 15.8566Z" fill="#242430"/>
</svg>
