<svg width="120" height="39" viewBox="0 0 120 39" fill="none" xmlns="http://www.w3.org/2000/svg">
<path fill-rule="evenodd" clip-rule="evenodd" d="M5.20943 30.2528L2.30956 25.2305C0.843156 22.7423 0 19.8424 0 16.7516C0 7.51278 7.51278 0 16.7516 0H100.197C106.455 0 111.916 3.44883 114.79 8.53557C114.792 8.5378 114.793 8.54003 114.794 8.54226L117.687 13.5519C117.688 13.5539 117.689 13.5559 117.69 13.558C119.157 16.0462 120 18.9461 120 22.0369C120 31.2758 112.486 38.7885 103.248 38.7885H19.8031C13.5443 38.7885 8.08331 35.3384 5.20943 30.2528Z" fill="#E8ECE2"/>
<path d="M6.49885 29.5162C9.12021 34.1598 14.1008 37.3034 19.803 37.3034H103.248C111.666 37.3034 118.515 30.4554 118.515 22.0367C118.515 19.217 117.746 16.5744 116.408 14.3062L113.501 9.27203C110.88 4.62747 105.899 1.48487 100.197 1.48487H16.7515C8.33279 1.48487 1.48487 8.33279 1.48487 16.7515C1.48487 19.5712 2.25407 22.2138 3.59208 24.482L6.49885 29.5162Z" fill="#242430"/>
<path d="M100.197 28.9662C106.933 28.9662 112.411 23.4866 112.411 16.7521C112.411 10.0175 106.932 4.53795 100.197 4.53795H16.7521C10.0165 4.53795 4.53795 10.0175 4.53795 16.7521C4.53795 23.4866 10.0175 28.9662 16.7521 28.9662H100.197Z" fill="#E8ECE2"/>
<path d="M16.7524 7.57966C11.6868 7.57966 7.57966 11.6868 7.57966 16.7524C7.57966 21.818 11.6868 25.9251 16.7524 25.9251C21.818 25.9251 25.9251 21.818 25.9251 16.7524C25.9251 11.6868 21.818 7.57966 16.7524 7.57966ZM23.1347 18.1329C23.0973 18.3019 22.9252 18.4052 22.7572 18.3606L20.9415 17.8748C20.8079 17.8384 20.6682 17.8971 20.5984 18.0165L19.7705 19.4517C19.7017 19.5711 19.7219 19.7219 19.8191 19.8201L21.15 21.152C21.2735 21.2755 21.2694 21.4779 21.1399 21.5943C20.4587 22.2107 19.646 22.6813 18.7503 22.9688C18.5843 23.0214 18.4072 22.9252 18.3616 22.7562L17.8768 20.9425C17.8404 20.8089 17.72 20.7168 17.5823 20.7168H15.9255C15.7868 20.7168 15.6674 20.8089 15.631 20.9425L15.1452 22.7562C15.0996 22.9252 14.9225 23.0214 14.7565 22.9688C13.8618 22.6823 13.0481 22.2107 12.3679 21.5943C12.2384 21.4769 12.2343 21.2745 12.3578 21.152L13.6887 19.8201C13.7859 19.7229 13.8072 19.5711 13.7373 19.4517L12.9084 18.0165C12.8396 17.8971 12.6989 17.8384 12.5653 17.8748L10.7496 18.3606C10.5826 18.4052 10.4095 18.3029 10.3731 18.1339C10.2749 17.6886 10.2182 17.2271 10.2182 16.7524C10.2182 16.2777 10.2739 15.8162 10.3731 15.3709C10.4095 15.2018 10.5826 15.0996 10.7496 15.1442L12.5653 15.63C12.6989 15.6664 12.8386 15.6077 12.9084 15.4883L13.7373 14.0531C13.8062 13.9337 13.7859 13.7829 13.6887 13.6847L12.3578 12.3538C12.2343 12.2303 12.2384 12.0279 12.3679 11.9115C13.0481 11.2941 13.8608 10.8235 14.7565 10.536C14.9225 10.4834 15.0996 10.5796 15.1452 10.7486L15.631 12.5623C15.6674 12.6959 15.7879 12.788 15.9255 12.788H17.5823C17.721 12.788 17.8404 12.6959 17.8768 12.5623L18.3616 10.7486C18.4072 10.5796 18.5843 10.4834 18.7503 10.536C19.645 10.8225 20.4587 11.2941 21.1399 11.9115C21.2694 12.0289 21.2735 12.2313 21.15 12.3538L19.8191 13.6847C19.7219 13.7819 19.7007 13.9337 19.7705 14.0531L20.5984 15.4883C20.6672 15.6077 20.8079 15.6664 20.9415 15.63L22.7572 15.1442C22.9252 15.0996 23.0973 15.2029 23.1347 15.3719C23.2319 15.8162 23.2886 16.2787 23.2886 16.7524C23.2886 17.2261 23.2329 17.6886 23.1347 18.1329ZM100.198 7.57966C95.132 7.57966 91.0249 11.6868 91.0249 16.7524C91.0249 21.818 95.132 25.9251 100.198 25.9251C105.263 25.9251 109.37 21.818 109.37 16.7524C109.37 11.6868 105.263 7.57966 100.198 7.57966ZM106.58 18.1329C106.543 18.3019 106.37 18.4052 106.202 18.3606L104.387 17.8748C104.253 17.8384 104.113 17.8971 104.044 18.0165L103.216 19.4517C103.147 19.5711 103.167 19.7219 103.264 19.8201L104.595 21.152C104.719 21.2755 104.715 21.4779 104.585 21.5943C103.904 22.2107 103.091 22.6813 102.196 22.9688C102.03 23.0214 101.852 22.9252 101.807 22.7562L101.322 20.9425C101.286 20.8089 101.165 20.7168 101.028 20.7168H99.3708C99.2321 20.7168 99.1127 20.8089 99.0762 20.9425L98.5904 22.7562C98.5449 22.9252 98.3678 23.0214 98.2018 22.9688C97.3071 22.6823 96.4933 22.2107 95.8132 21.5943C95.6836 21.4769 95.6796 21.2745 95.8031 21.152L97.134 19.8201C97.2311 19.7229 97.2524 19.5711 97.1826 19.4517L96.3537 18.0165C96.2848 17.8971 96.1441 17.8384 96.0106 17.8748L94.1948 18.3606C94.0278 18.4052 93.8548 18.3029 93.8183 18.1339C93.7202 17.6886 93.6635 17.2271 93.6635 16.7524C93.6635 16.2777 93.7191 15.8162 93.8183 15.3709C93.8548 15.2018 94.0278 15.0996 94.1948 15.1442L96.0106 15.63C96.1441 15.6664 96.2838 15.6077 96.3537 15.4883L97.1826 14.0531C97.2514 13.9337 97.2311 13.7829 97.134 13.6847L95.8031 12.3538C95.6796 12.2303 95.6836 12.0279 95.8132 11.9115C96.4933 11.2941 97.3061 10.8235 98.2018 10.536C98.3678 10.4834 98.5449 10.5796 98.5904 10.7486L99.0762 12.5623C99.1127 12.6959 99.2331 12.788 99.3708 12.788H101.028C101.166 12.788 101.286 12.6959 101.322 12.5623L101.807 10.7486C101.852 10.5796 102.03 10.4834 102.196 10.536C103.09 10.8225 103.904 11.2941 104.585 11.9115C104.715 12.0289 104.719 12.2313 104.595 12.3538L103.264 13.6847C103.167 13.7819 103.146 13.9337 103.216 14.0531L104.044 15.4883C104.112 15.6077 104.253 15.6664 104.387 15.63L106.202 15.1442C106.37 15.0996 106.543 15.2029 106.58 15.3719C106.677 15.8162 106.734 16.2787 106.734 16.7524C106.734 17.2261 106.678 17.6886 106.58 18.1329Z" fill="#242430"/>
<path d="M37.1262 12.983C40.202 12.983 42.5501 14.7906 43.4185 17.5375L45.7352 24.8884C45.7969 25.0848 45.6502 25.2852 45.4437 25.2852H42.5845C42.4519 25.2852 42.3335 25.1991 42.294 25.0726L41.8619 23.7083C41.8143 23.5575 41.623 23.518 41.5157 23.6344C40.4389 24.8095 38.8944 25.52 37.1262 25.52C33.4401 25.52 30.67 22.8197 30.67 19.251C30.67 15.6823 33.4401 12.982 37.1262 12.982V12.983ZM40.2961 19.252C40.2961 17.3968 38.9349 15.989 37.1262 15.989C35.3176 15.989 33.9563 17.3978 33.9563 19.252C33.9563 21.1062 35.2943 22.5393 37.1262 22.5393C38.9581 22.5393 40.2961 21.1072 40.2961 19.252Z" fill="#242430"/>
<path d="M46.4884 23.3611C46.4884 22.1638 47.4277 21.2245 48.625 21.2245C49.8223 21.2245 50.7615 22.1638 50.7615 23.3611C50.7615 24.5584 49.8456 25.4976 48.625 25.4976C47.4044 25.4976 46.4884 24.5584 46.4884 23.3611Z" fill="#242430"/>
<path d="M52.2354 8.14579H55.0056C55.1746 8.14579 55.3112 8.28243 55.3112 8.45145V24.9792C55.3112 25.1482 55.1746 25.2848 55.0056 25.2848H52.2354C52.0664 25.2848 51.9298 25.1482 51.9298 24.9792V8.45044C51.9298 8.28142 52.0664 8.14478 52.2354 8.14478V8.14579Z" fill="#242430"/>
<path d="M59.1106 7.9819C60.238 7.9819 61.1297 8.87458 61.1297 10.0243C61.1297 11.1741 60.238 12.0668 59.1106 12.0668C57.9831 12.0668 57.0681 11.1751 57.0681 10.0243C57.0681 8.87357 57.9608 7.9819 59.1106 7.9819ZM57.725 13.2175H60.4951C60.6641 13.2175 60.8008 13.3542 60.8008 13.5232V24.9802C60.8008 25.1493 60.6641 25.2859 60.4951 25.2859H57.725C57.556 25.2859 57.4193 25.1493 57.4193 24.9802V13.5232C57.4193 13.3542 57.556 13.2175 57.725 13.2175Z" fill="#242430"/>
<path d="M65.585 13.4203L68.0444 20.3542C68.1082 20.5344 68.3642 20.5344 68.428 20.3542L70.8874 13.4203C70.9309 13.2988 71.0463 13.2168 71.1749 13.2168H73.8023C74.0158 13.2168 74.1636 13.4314 74.0877 13.6308L69.6962 25.0878C69.6506 25.2063 69.5373 25.2842 69.4108 25.2842H66.8491C66.7226 25.2842 66.6092 25.2063 66.5637 25.0878L62.1722 13.6308C62.0952 13.4314 62.243 13.2168 62.4576 13.2168H65.2965C65.4261 13.2168 65.5405 13.2978 65.584 13.4203H65.585Z" fill="#242430"/>
<path d="M74.1953 19.251C74.1953 15.6823 76.8247 12.982 80.3236 12.982C83.8224 12.982 86.378 15.5993 86.2758 19.6325C86.2717 19.7985 86.1361 19.9311 85.9701 19.9311H77.5696C77.4381 19.9311 77.3399 20.0546 77.3713 20.1821C77.7346 21.6709 78.9542 22.7255 80.5118 22.7255C81.4106 22.7255 82.198 22.4087 82.7911 21.8754C82.9136 21.765 83.0978 21.765 83.2142 21.8804L84.9024 23.5504C85.0299 23.6769 85.0228 23.8874 84.8841 24.0018C83.7354 24.9502 82.2152 25.519 80.5118 25.519C76.8966 25.519 74.1963 22.8187 74.1963 19.25L74.1953 19.251ZM82.5927 17.3492C82.7456 17.3492 82.8417 17.1873 82.7729 17.0507C82.2911 16.0932 81.4329 15.5882 80.3226 15.5882C79.1495 15.5882 78.2478 16.0922 77.7397 17.0466C77.6668 17.1832 77.764 17.3482 77.9188 17.3482H82.5927V17.3492Z" fill="#242430"/>
</svg>
