<svg width="66" height="58" viewBox="0 0 66 58" fill="none" xmlns="http://www.w3.org/2000/svg">
<path fill-rule="evenodd" clip-rule="evenodd" d="M1 9H65V57H1V9ZM17 45C23.6274 45 29 39.6274 29 33C29 26.3726 23.6274 21 17 21C10.3726 21 5 26.3726 5 33C5 39.6274 10.3726 45 17 45ZM49 45C55.6274 45 61 39.6274 61 33C61 26.3726 55.6274 21 49 21C42.3726 21 37 26.3726 37 33C37 39.6274 42.3726 45 49 45Z" fill="#53E1AD"/>
<path d="M29 33C29 39.6274 23.6274 45 17 45C10.3726 45 5 39.6274 5 33C5 26.3726 10.3726 21 17 21C23.6274 21 29 26.3726 29 33Z" fill="#FBD200"/>
<path d="M61 33C61 39.6274 55.6274 45 49 45C42.3726 45 37 39.6274 37 33C37 26.3726 42.3726 21 49 21C55.6274 21 61 26.3726 61 33Z" fill="#FBD200"/>
<path d="M1 9V8.5H0.5V9H1ZM65 9H65.5V8.5H65V9ZM65 57V57.5H65.5V57H65ZM1 57H0.5V57.5H1V57ZM5 1.5H61V0.5H5V1.5ZM1 9.5H65V8.5H1V9.5ZM64.5 9V57H65.5V9H64.5ZM65 56.5H1V57.5H65V56.5ZM1.5 57V9H0.5V57H1.5ZM28.5 33C28.5 39.3513 23.3513 44.5 17 44.5V45.5C23.9036 45.5 29.5 39.9036 29.5 33H28.5ZM17 44.5C10.6487 44.5 5.5 39.3513 5.5 33H4.5C4.5 39.9036 10.0964 45.5 17 45.5V44.5ZM5.5 33C5.5 26.6487 10.6487 21.5 17 21.5V20.5C10.0964 20.5 4.5 26.0964 4.5 33H5.5ZM17 21.5C23.3513 21.5 28.5 26.6487 28.5 33H29.5C29.5 26.0964 23.9036 20.5 17 20.5V21.5ZM60.5 33C60.5 39.3513 55.3513 44.5 49 44.5V45.5C55.9036 45.5 61.5 39.9036 61.5 33H60.5ZM49 44.5C42.6487 44.5 37.5 39.3513 37.5 33H36.5C36.5 39.9036 42.0964 45.5 49 45.5V44.5ZM37.5 33C37.5 26.6487 42.6487 21.5 49 21.5V20.5C42.0964 20.5 36.5 26.0964 36.5 33H37.5ZM49 21.5C55.3513 21.5 60.5 26.6487 60.5 33H61.5C61.5 26.0964 55.9036 20.5 49 20.5V21.5ZM8.64645 25.3536L24.6464 41.3536L25.3536 40.6464L9.35355 24.6464L8.64645 25.3536ZM40.6464 25.3536L56.6464 41.3536L57.3536 40.6464L41.3536 24.6464L40.6464 25.3536ZM9.35355 41.3536L25.3536 25.3536L24.6464 24.6464L8.64645 40.6464L9.35355 41.3536ZM41.3536 41.3536L57.3536 25.3536L56.6464 24.6464L40.6464 40.6464L41.3536 41.3536Z" fill="#242430"/>
</svg>
