<svg width="180" height="55" viewBox="0 0 180 55" fill="none" xmlns="http://www.w3.org/2000/svg">
<path d="M7.69907 43.0427C11.7242 50.1729 19.372 55 28.1279 55H156.26C169.185 55 179.702 44.4849 179.702 31.5578C179.702 27.228 178.521 23.1702 176.466 19.6875L172.003 11.9573C167.978 4.82552 160.33 0 151.574 0H23.4422C10.5151 0 0 10.5151 0 23.4422C0 27.772 1.18112 31.8298 3.23566 35.3125L7.69907 43.0427Z" fill="#242430"/>
<path d="M151.574 42.1975C161.917 42.1975 170.329 33.7836 170.329 23.4425C170.329 13.1015 161.915 4.6875 151.574 4.6875H23.4422C13.0995 4.6875 4.68713 13.1015 4.68713 23.4425C4.68713 33.7836 13.1011 42.1975 23.4422 42.1975H151.574Z" fill="#E8ECE2"/>
<path d="M23.4425 9.35742C15.6641 9.35742 9.35754 15.664 9.35754 23.4423C9.35754 31.2207 15.6641 37.5272 23.4425 37.5272C31.2208 37.5272 37.5274 31.2207 37.5274 23.4423C37.5274 15.664 31.2208 9.35742 23.4425 9.35742ZM33.2427 25.5621C33.1852 25.8217 32.921 25.9802 32.663 25.9118L29.8749 25.1658C29.6698 25.1099 29.4553 25.2 29.3481 25.3834L28.0768 27.5871C27.9711 27.7705 28.0022 28.0021 28.1514 28.1528L30.1951 30.1981C30.3847 30.3877 30.3785 30.6985 30.1795 30.8772C29.1336 31.8237 27.8857 32.5463 26.5103 32.9877C26.2554 33.0685 25.9834 32.9209 25.9135 32.6613L25.1691 29.8764C25.1131 29.6712 24.9282 29.5298 24.7168 29.5298H22.1727C21.9598 29.5298 21.7764 29.6712 21.7205 29.8764L20.9745 32.6613C20.9046 32.9209 20.6326 33.0685 20.3777 32.9877C19.0039 32.5479 17.7544 31.8237 16.71 30.8772C16.5111 30.6969 16.5049 30.3861 16.6945 30.1981L18.7382 28.1528C18.8874 28.0036 18.92 27.7705 18.8128 27.5871L17.5399 25.3834C17.4343 25.2 17.2182 25.1099 17.0131 25.1658L14.225 25.9118C13.9686 25.9802 13.7028 25.8232 13.6469 25.5637C13.4961 24.8799 13.4091 24.1712 13.4091 23.4423C13.4091 22.7135 13.4946 22.0048 13.6469 21.321C13.7028 21.0614 13.9686 20.9045 14.225 20.9728L17.0131 21.7188C17.2182 21.7748 17.4327 21.6846 17.5399 21.5012L18.8128 19.2975C18.9184 19.1141 18.8874 18.8826 18.7382 18.7318L16.6945 16.6882C16.5049 16.4986 16.5111 16.1877 16.71 16.009C17.7544 15.061 19.0024 14.3383 20.3777 13.897C20.6326 13.8162 20.9046 13.9638 20.9745 14.2233L21.7205 17.0083C21.7764 17.2135 21.9614 17.3549 22.1727 17.3549H24.7168C24.9297 17.3549 25.1131 17.2135 25.1691 17.0083L25.9135 14.2233C25.9834 13.9638 26.2554 13.8162 26.5103 13.897C27.8841 14.3368 29.1336 15.061 30.1795 16.009C30.3785 16.1893 30.3847 16.5001 30.1951 16.6882L28.1514 18.7318C28.0022 18.881 27.9696 19.1141 28.0768 19.2975L29.3481 21.5012C29.4538 21.6846 29.6698 21.7748 29.8749 21.7188L32.663 20.9728C32.921 20.9045 33.1852 21.063 33.2427 21.3225C33.3919 22.0048 33.4789 22.715 33.4789 23.4423C33.4789 24.1697 33.3934 24.8799 33.2427 25.5621ZM151.574 9.35742C143.796 9.35742 137.489 15.664 137.489 23.4423C137.489 31.2207 143.796 37.5272 151.574 37.5272C159.353 37.5272 165.659 31.2207 165.659 23.4423C165.659 15.664 159.353 9.35742 151.574 9.35742ZM161.374 25.5621C161.317 25.8217 161.053 25.9802 160.795 25.9118L158.007 25.1658C157.802 25.1099 157.587 25.2 157.48 25.3834L156.209 27.5871C156.103 27.7705 156.134 28.0021 156.283 28.1528L158.327 30.1981C158.516 30.3877 158.51 30.6985 158.311 30.8772C157.265 31.8237 156.017 32.5463 154.642 32.9877C154.387 33.0685 154.115 32.9209 154.045 32.6613L153.301 29.8764C153.245 29.6712 153.06 29.5298 152.849 29.5298H150.305C150.092 29.5298 149.908 29.6712 149.852 29.8764L149.106 32.6613C149.036 32.9209 148.764 33.0685 148.51 32.9877C147.136 32.5479 145.886 31.8237 144.842 30.8772C144.643 30.6969 144.637 30.3861 144.826 30.1981L146.87 28.1528C147.019 28.0036 147.052 27.7705 146.945 27.5871L145.672 25.3834C145.566 25.2 145.35 25.1099 145.145 25.1658L142.357 25.9118C142.1 25.9802 141.835 25.8232 141.779 25.5637C141.628 24.8799 141.541 24.1712 141.541 23.4423C141.541 22.7135 141.626 22.0048 141.779 21.321C141.835 21.0614 142.1 20.9045 142.357 20.9728L145.145 21.7188C145.35 21.7748 145.564 21.6846 145.672 21.5012L146.945 19.2975C147.05 19.1141 147.019 18.8826 146.87 18.7318L144.826 16.6882C144.637 16.4986 144.643 16.1877 144.842 16.009C145.886 15.061 147.134 14.3383 148.51 13.897C148.764 13.8162 149.036 13.9638 149.106 14.2233L149.852 17.0083C149.908 17.2135 150.093 17.3549 150.305 17.3549H152.849C153.062 17.3549 153.245 17.2135 153.301 17.0083L154.045 14.2233C154.115 13.9638 154.387 13.8162 154.642 13.897C156.016 14.3368 157.265 15.061 158.311 16.009C158.51 16.1893 158.516 16.5001 158.327 16.6882L156.283 18.7318C156.134 18.881 156.101 19.1141 156.209 19.2975L157.48 21.5012C157.586 21.6846 157.802 21.7748 158.007 21.7188L160.795 20.9728C161.053 20.9045 161.317 21.063 161.374 21.3225C161.524 22.0048 161.611 22.715 161.611 23.4423C161.611 24.1697 161.525 24.8799 161.374 25.5621Z" fill="#242430"/>
<path d="M54.7281 17.6549C59.4511 17.6549 63.0566 20.4305 64.39 24.6484L67.9474 35.9359C68.0422 36.2374 67.8169 36.5451 67.4998 36.5451H63.1094C62.9059 36.5451 62.724 36.413 62.6634 36.2187L61.9998 34.1238C61.9268 33.8922 61.633 33.8316 61.4683 34.0103C59.8147 35.8147 57.4432 36.9057 54.7281 36.9057C49.0681 36.9057 44.8145 32.7593 44.8145 27.2795C44.8145 21.7997 49.0681 17.6533 54.7281 17.6533V17.6549ZM59.5956 27.281C59.5956 24.4324 57.5053 22.2706 54.7281 22.2706C51.9509 22.2706 49.8607 24.4339 49.8607 27.281C49.8607 30.1282 51.9152 32.3288 54.7281 32.3288C57.5411 32.3288 59.5956 30.1297 59.5956 27.281Z" fill="#242430"/>
<path d="M69.1052 33.5903C69.1052 31.7518 70.5474 30.3096 72.386 30.3096C74.2245 30.3096 75.6667 31.7518 75.6667 33.5903C75.6667 35.4288 74.2602 36.871 72.386 36.871C70.5117 36.871 69.1052 35.4288 69.1052 33.5903Z" fill="#242430"/>
<path d="M77.9291 10.2291H82.1827C82.4423 10.2291 82.6521 10.4389 82.6521 10.6984V36.0771C82.6521 36.3366 82.4423 36.5464 82.1827 36.5464H77.9291C77.6696 36.5464 77.4598 36.3366 77.4598 36.0771V10.6969C77.4598 10.4373 77.6696 10.2275 77.9291 10.2275V10.2291Z" fill="#242430"/>
<path d="M88.4868 9.97559C90.2181 9.97559 91.5873 11.3463 91.5873 13.1118C91.5873 14.8773 90.2181 16.248 88.4868 16.248C86.7556 16.248 85.3506 14.8788 85.3506 13.1118C85.3506 11.3448 86.7214 9.97559 88.4868 9.97559ZM86.3593 18.015H90.6129C90.8724 18.015 91.0822 18.2248 91.0822 18.4843V36.0769C91.0822 36.3364 90.8724 36.5462 90.6129 36.5462H86.3593C86.0997 36.5462 85.8899 36.3364 85.8899 36.0769V18.4843C85.8899 18.2248 86.0997 18.015 86.3593 18.015Z" fill="#242430"/>
<path d="M98.4266 18.327L102.203 28.9742C102.301 29.2509 102.694 29.2509 102.792 28.9742L106.569 18.327C106.635 18.1405 106.813 18.0146 107.01 18.0146H111.044C111.372 18.0146 111.599 18.3441 111.483 18.6503L104.739 36.2428C104.669 36.4246 104.495 36.5443 104.301 36.5443H100.368C100.173 36.5443 99.9993 36.4246 99.9294 36.2428L93.1861 18.6503C93.068 18.3441 93.2949 18.0146 93.6243 18.0146H97.9836C98.1826 18.0146 98.3582 18.139 98.425 18.327H98.4266Z" fill="#242430"/>
<path d="M111.647 27.2805C111.647 21.8007 115.685 17.6543 121.057 17.6543C126.43 17.6543 130.354 21.6732 130.197 27.8664C130.191 28.1212 129.983 28.3248 129.728 28.3248H116.829C116.627 28.3248 116.476 28.5144 116.524 28.7102C117.082 30.9963 118.955 32.6157 121.346 32.6157C122.726 32.6157 123.936 32.1293 124.846 31.3103C125.034 31.1409 125.317 31.1409 125.496 31.318L128.088 33.8823C128.284 34.0766 128.273 34.3998 128.06 34.5755C126.296 36.0317 123.962 36.9051 121.346 36.9051C115.795 36.9051 111.649 32.7587 111.649 27.2789L111.647 27.2805ZM124.542 24.3603C124.776 24.3603 124.924 24.1116 124.818 23.9018C124.078 22.4316 122.761 21.6561 121.056 21.6561C119.255 21.6561 117.87 22.4301 117.09 23.8956C116.978 24.1054 117.127 24.3587 117.365 24.3587H124.542V24.3603Z" fill="#242430"/>
</svg>
