<svg width="354" height="80" viewBox="0 0 354 80" fill="none" xmlns="http://www.w3.org/2000/svg">
<rect x="1" y="0.507812" width="352.173" height="78.2607" rx="39.1303" fill="#E8ECE2" stroke="#242430"/>
<path d="M40.1299 13.5508C25.7235 13.5508 14.043 25.2313 14.043 39.6377C14.043 54.044 25.7235 65.7246 40.1299 65.7246C54.5362 65.7246 66.2168 54.044 66.2168 39.6377C66.2168 25.2313 54.5362 13.5508 40.1299 13.5508ZM58.281 43.5638C58.1745 44.0445 57.6852 44.3381 57.2074 44.2114L52.0435 42.8298C51.6636 42.7262 51.2664 42.8931 51.0678 43.2328L48.7132 47.3144C48.5175 47.654 48.5751 48.0829 48.8514 48.3621L52.6365 52.1501C52.9877 52.5012 52.9761 53.0769 52.6077 53.4079C50.6706 55.1609 48.3592 56.4993 45.8118 57.3168C45.3398 57.4665 44.836 57.193 44.7065 56.7123L43.3278 51.5542C43.2241 51.1743 42.8816 50.9123 42.4901 50.9123H37.7782C37.3839 50.9123 37.0442 51.1743 36.9406 51.5542L35.559 56.7123C35.4294 57.193 34.9257 57.4665 34.4537 57.3168C31.9092 56.5022 29.5949 55.1609 27.6607 53.4079C27.2922 53.074 27.2807 52.4984 27.6319 52.1501L31.417 48.3621C31.6933 48.0858 31.7537 47.654 31.5551 47.3144L29.1977 43.2328C29.002 42.8931 28.6019 42.7262 28.2219 42.8298L23.0581 44.2114C22.5832 44.3381 22.091 44.0474 21.9873 43.5667C21.7081 42.3002 21.5469 40.9876 21.5469 39.6377C21.5469 38.2877 21.7053 36.9752 21.9873 35.7087C22.091 35.228 22.5832 34.9373 23.0581 35.0639L28.2219 36.4455C28.6019 36.5492 28.9991 36.3822 29.1977 36.0426L31.5551 31.961C31.7509 31.6213 31.6933 31.1925 31.417 30.9133L27.6319 27.1282C27.2807 26.777 27.2922 26.2013 27.6607 25.8703C29.5949 24.1145 31.9063 22.776 34.4537 21.9586C34.9257 21.8089 35.4294 22.0823 35.559 22.563L36.9406 27.7211C37.0442 28.1011 37.3868 28.363 37.7782 28.363H42.4901C42.8845 28.363 43.2241 28.1011 43.3278 27.7211L44.7065 22.563C44.836 22.0823 45.3398 21.8089 45.8118 21.9586C48.3563 22.7732 50.6706 24.1145 52.6077 25.8703C52.9761 26.2042 52.9877 26.7799 52.6365 27.1282L48.8514 30.9133C48.5751 31.1896 48.5146 31.6213 48.7132 31.961L51.0678 36.0426C51.2635 36.3822 51.6636 36.5492 52.0435 36.4455L57.2074 35.0639C57.6852 34.9373 58.1745 35.2309 58.281 35.7115C58.5574 36.9752 58.7185 38.2906 58.7185 39.6377C58.7185 40.9848 58.5602 42.3002 58.281 43.5638ZM314.284 13.5508C299.877 13.5508 288.197 25.2313 288.197 39.6377C288.197 54.044 299.877 65.7246 314.284 65.7246C328.69 65.7246 340.371 54.044 340.371 39.6377C340.371 25.2313 328.69 13.5508 314.284 13.5508ZM332.435 43.5638C332.328 44.0445 331.839 44.3381 331.361 44.2114L326.197 42.8298C325.817 42.7262 325.42 42.8931 325.222 43.2328L322.867 47.3144C322.671 47.654 322.729 48.0829 323.005 48.3621L326.79 52.1501C327.142 52.5012 327.13 53.0769 326.762 53.4079C324.824 55.1609 322.513 56.4993 319.966 57.3168C319.494 57.4665 318.99 57.193 318.86 56.7123L317.482 51.5542C317.378 51.1743 317.035 50.9123 316.644 50.9123H311.932C311.538 50.9123 311.198 51.1743 311.094 51.5542L309.713 56.7123C309.583 57.193 309.08 57.4665 308.608 57.3168C306.063 56.5022 303.749 55.1609 301.815 53.4079C301.446 53.074 301.435 52.4984 301.786 52.1501L305.571 48.3621C305.847 48.0858 305.908 47.654 305.709 47.3144L303.352 43.2328C303.156 42.8931 302.756 42.7262 302.376 42.8298L297.212 44.2114C296.737 44.3381 296.245 44.0474 296.141 43.5667C295.862 42.3002 295.701 40.9876 295.701 39.6377C295.701 38.2877 295.859 36.9752 296.141 35.7087C296.245 35.228 296.737 34.9373 297.212 35.0639L302.376 36.4455C302.756 36.5492 303.153 36.3822 303.352 36.0426L305.709 31.961C305.905 31.6213 305.847 31.1925 305.571 30.9133L301.786 27.1282C301.435 26.777 301.446 26.2013 301.815 25.8703C303.749 24.1145 306.06 22.776 308.608 21.9586C309.08 21.8089 309.583 22.0823 309.713 22.563L311.094 27.7211C311.198 28.1011 311.541 28.363 311.932 28.363H316.644C317.038 28.363 317.378 28.1011 317.482 27.7211L318.86 22.563C318.99 22.0823 319.494 21.8089 319.966 21.9586C322.51 22.7732 324.824 24.1145 326.762 25.8703C327.13 26.2042 327.142 26.7799 326.79 27.1282L323.005 30.9133C322.729 31.1896 322.668 31.6213 322.867 31.961L325.222 36.0426C325.417 36.3822 325.817 36.5492 326.197 36.4455L331.361 35.0639C331.839 34.9373 332.328 35.2309 332.435 35.7115C332.711 36.9752 332.872 38.2906 332.872 39.6377C332.872 40.9848 332.714 42.3002 332.435 43.5638Z" fill="#242430"/>
<path d="M83.6094 20.0703H274.027" stroke="#242430" stroke-width="4" stroke-miterlimit="10"/>
<path d="M82.5215 20.0742H104.261" stroke="#FF665C" stroke-width="4" stroke-miterlimit="10"/>
<path d="M117.305 20.0703H104.261" stroke="#53E1AD" stroke-width="4" stroke-miterlimit="10"/>
<path d="M117.305 20.0703H104.261" stroke="#53E1AD" stroke-width="4" stroke-miterlimit="10"/>
<path d="M117.305 20.0703H104.261" stroke="#53E1AD" stroke-width="4" stroke-miterlimit="10"/>
<path d="M117.305 20.0703H134.696" stroke="#53E1AD" stroke-width="4" stroke-miterlimit="10"/>
<path d="M117.305 20.0703H134.696" stroke="#53E1AD" stroke-width="4" stroke-miterlimit="10"/>
<path d="M117.305 20.0703H134.696" stroke="#FBD200" stroke-width="4" stroke-miterlimit="10"/>
<path d="M77.1395 36.1602C79.7155 36.1602 80.9755 35.1382 80.9755 33.1642C80.9755 31.5542 80.0375 30.7282 78.5115 30.5462L80.7655 27.4522V27.1162H75.4735V28.6002H78.3995L76.2995 31.4562V31.7922H77.5315C78.8055 31.7922 79.4915 32.2682 79.4915 33.1642C79.4915 34.1442 78.6655 34.6762 77.1395 34.6762C76.4255 34.6762 75.8655 34.5782 75.1655 34.4662V35.9222C75.6415 36.0342 76.3835 36.1602 77.1395 36.1602ZM81.8433 34.4242V36.1602H83.5933V34.4242H81.8433ZM81.8433 29.5522V31.2882H83.5933V29.5522H81.8433ZM88.329 27.1162V31.6942H85.963L87.111 27.1162H85.753L84.199 33.1782H88.329V36.1602H89.813V27.1162H88.329ZM94.6044 27.1162V31.6942H92.2384L93.3864 27.1162H92.0284L90.4744 33.1782H94.6044V36.1602H96.0884V27.1162H94.6044Z" fill="#242430"/>
<path d="M263.102 36.3002C264.936 36.3002 266.378 34.9422 266.378 33.1082C266.378 31.4002 265.104 30.0982 263.662 30.0982C263.312 30.0982 263.032 30.1682 262.78 30.2662L265.216 27.1162H263.354L261.016 30.2942C260.162 31.4562 259.91 32.2822 259.91 33.2902C259.91 35.0122 261.254 36.3002 263.102 36.3002ZM263.116 34.8162C262.192 34.8162 261.52 34.1022 261.52 33.1362C261.52 32.1842 262.234 31.4282 263.144 31.4282C264.04 31.4282 264.782 32.1842 264.782 33.1362C264.782 34.1022 264.04 34.8162 263.116 34.8162ZM267.161 34.4242V36.1602H268.911V34.4242H267.161ZM267.161 29.5522V31.2882H268.911V29.5522H267.161ZM273.899 36.1602V34.6762H272.625V26.9762H272.289L269.615 28.2222V29.7202L271.001 29.1182V34.6762H269.615V36.1602H273.899ZM276.211 36.1602C278.787 36.1602 280.047 35.1382 280.047 33.1642C280.047 31.5542 279.109 30.7282 277.583 30.5462L279.837 27.4522V27.1162H274.545V28.6002H277.471L275.371 31.4562V31.7922H276.603C277.877 31.7922 278.563 32.2682 278.563 33.1642C278.563 34.1442 277.737 34.6762 276.211 34.6762C275.497 34.6762 274.937 34.5782 274.237 34.4662V35.9222C274.713 36.0342 275.455 36.1602 276.211 36.1602Z" fill="#242430"/>
<path d="M133.609 37.4642C128.807 37.4642 124.913 41.3574 124.913 46.1598C124.913 50.9623 128.807 54.8555 133.609 54.8555C138.412 54.8555 142.305 50.9623 142.305 46.1598C142.305 41.3574 138.412 37.4642 133.609 37.4642Z" fill="#E8ECE2"/>
<path d="M128.174 46.1597L133.066 42.8989L133.066 49.4206L128.174 46.1597Z" fill="#E8ECE2"/>
<path d="M133.609 46.1597L138.5 42.8989L138.5 49.4206L133.609 46.1597Z" fill="#E8ECE2"/>
<path d="M133.609 37.4642C128.807 37.4642 124.913 41.3574 124.913 46.1598C124.913 50.9623 128.807 54.8555 133.609 54.8555C138.412 54.8555 142.305 50.9623 142.305 46.1598C142.305 41.3574 138.412 37.4642 133.609 37.4642Z" stroke="#242430" stroke-miterlimit="10"/>
<path d="M128.174 46.1597L133.066 42.8989L133.066 49.4206L128.174 46.1597Z" stroke="#242430" stroke-miterlimit="10"/>
<path d="M133.609 46.1597L138.5 42.8989L138.5 49.4206L133.609 46.1597Z" stroke="#242430" stroke-miterlimit="10"/>
<path d="M220.567 54.8522C225.369 54.8522 229.262 50.959 229.262 46.1566C229.262 41.3541 225.369 37.4609 220.567 37.4609C215.764 37.4609 211.871 41.3541 211.871 46.1566C211.871 50.959 215.764 54.8522 220.567 54.8522Z" fill="#E8ECE2" stroke="#242430" stroke-miterlimit="10"/>
<path d="M226 46.1593L221.109 49.4202V42.8984L226 46.1593Z" fill="#E8ECE2"/>
<path d="M220.565 46.1593L215.674 49.4202V42.8984L220.565 46.1593Z" fill="#E8ECE2"/>
<path d="M226 46.1593L221.109 49.4202V42.8984L226 46.1593Z" stroke="#242430" stroke-miterlimit="10"/>
<path d="M220.565 46.1593L215.674 49.4202V42.8984L220.565 46.1593Z" stroke="#242430" stroke-miterlimit="10"/>
<path d="M177.45 61.0167C185.454 61.0167 191.942 54.5281 191.942 46.524C191.942 38.5199 185.454 32.0312 177.45 32.0312C169.446 32.0312 162.957 38.5199 162.957 46.524C162.957 54.5281 169.446 61.0167 177.45 61.0167Z" fill="#E8ECE2"/>
<path d="M181.073 39.2776V53.7703M173.827 39.2776V53.7703M191.942 46.524C191.942 54.5281 185.454 61.0167 177.45 61.0167C169.446 61.0167 162.957 54.5281 162.957 46.524C162.957 38.5199 169.446 32.0312 177.45 32.0312C185.454 32.0312 191.942 38.5199 191.942 46.524Z" stroke="#242430" stroke-miterlimit="10"/>
</svg>
