<svg width="48" height="48" viewBox="0 0 48 48" fill="none" xmlns="http://www.w3.org/2000/svg">
<path fill-rule="evenodd" clip-rule="evenodd" d="M2.33334 23.6667C2.33334 11.8846 11.8846 2.33333 23.6667 2.33333C35.4487 2.33334 45 11.8846 45 23.6667C45 35.4487 35.4487 45 23.6667 45C11.8846 45 2.33334 35.4487 2.33334 23.6667ZM14.3333 23.6667L30.3333 13L30.3333 34.3333L14.3333 23.6667Z" fill="#FBD200"/>
<path d="M30.3333 13L14.3333 23.6667L30.3333 34.3333L30.3333 13Z" fill="#53E1AD"/>
<path fill-rule="evenodd" clip-rule="evenodd" d="M24 44.6667C35.4139 44.6667 44.6667 35.4139 44.6667 24C44.6667 12.5861 35.4139 3.33333 24 3.33333C12.5861 3.33333 3.33333 12.5861 3.33333 24C3.33333 35.4139 12.5861 44.6667 24 44.6667ZM46 24C46 36.1503 36.1503 46 24 46C11.8497 46 2 36.1503 2 24C2 11.8497 11.8497 2 24 2C36.1503 2 46 11.8497 46 24ZM31.3333 35.9123L13.4648 24L31.3333 12.0877L31.3333 35.9123ZM30 33.421L30 14.579L15.8685 24L30 33.421Z" fill="#242430"/>
</svg>
