<svg width="48" height="48" viewBox="0 0 48 48" fill="none" xmlns="http://www.w3.org/2000/svg">
<path fill-rule="evenodd" clip-rule="evenodd" d="M45.6667 24.3333C45.6667 36.1154 36.1154 45.6667 24.3333 45.6667C12.5513 45.6667 3 36.1154 3 24.3333C3 12.5513 12.5513 3 24.3333 3C36.1154 3 45.6667 12.5513 45.6667 24.3333ZM33.6667 24.3333L17.6667 35V13.6667L33.6667 24.3333Z" fill="#FBD200"/>
<path d="M17.6667 35L33.6667 24.3333L17.6667 13.6667V35Z" fill="#53E1AD"/>
<path fill-rule="evenodd" clip-rule="evenodd" d="M24 3.33333C12.5861 3.33333 3.33333 12.5861 3.33333 24C3.33333 35.4139 12.5861 44.6667 24 44.6667C35.4139 44.6667 44.6667 35.4139 44.6667 24C44.6667 12.5861 35.4139 3.33333 24 3.33333ZM2 24C2 11.8497 11.8497 2 24 2C36.1503 2 46 11.8497 46 24C46 36.1503 36.1503 46 24 46C11.8497 46 2 36.1503 2 24ZM16.6667 12.0877L34.5352 24L16.6667 35.9123V12.0877ZM18 14.579V33.421L32.1315 24L18 14.579Z" fill="#242430"/>
</svg>
