<svg width="52" height="52" viewBox="0 0 52 52" fill="none" xmlns="http://www.w3.org/2000/svg">
<path d="M26 0C11.6416 0 0 11.6416 0 26C0 40.3584 11.6416 52 26 52C40.3584 52 52 40.3584 52 26C52 11.6416 40.3584 0 26 0ZM44.0907 29.913C43.9845 30.3921 43.4969 30.6848 43.0206 30.5585L37.874 29.1815C37.4953 29.0782 37.0994 29.2446 36.9015 29.5831L34.5548 33.6511C34.3597 33.9896 34.4171 34.4171 34.6925 34.6954L38.465 38.4707C38.8149 38.8207 38.8035 39.3944 38.4363 39.7244C36.5056 41.4715 34.2019 42.8055 31.663 43.6202C31.1925 43.7694 30.6905 43.4968 30.5614 43.0178L29.1873 37.8769C29.084 37.4982 28.7426 37.2371 28.3524 37.2371H23.6562C23.2632 37.2371 22.9246 37.4982 22.8213 37.8769L21.4443 43.0178C21.3153 43.4968 20.8132 43.7694 20.3427 43.6202C17.8067 42.8083 15.5002 41.4715 13.5723 39.7244C13.2051 39.3916 13.1937 38.8178 13.5437 38.4707L17.3161 34.6954C17.5915 34.4199 17.6518 33.9896 17.4538 33.6511L15.1043 29.5831C14.9092 29.2446 14.5104 29.0782 14.1318 29.1815L8.9851 30.5585C8.51175 30.6848 8.02119 30.395 7.91792 29.9159C7.63964 28.6536 7.47898 27.3455 7.47898 26C7.47898 24.6545 7.63677 23.3463 7.91792 22.0841C8.02119 21.605 8.51175 21.3152 8.9851 21.4415L14.1318 22.8185C14.5104 22.9218 14.9063 22.7554 15.1043 22.4169L17.4538 18.3489C17.6489 18.0104 17.5915 17.5829 17.3161 17.3046L13.5437 13.5322C13.1937 13.1822 13.2051 12.6084 13.5723 12.2785C15.5002 10.5285 17.8038 9.19453 20.3427 8.37978C20.8132 8.23061 21.3153 8.50314 21.4443 8.98223L22.8213 14.1231C22.9246 14.5018 23.266 14.7629 23.6562 14.7629H28.3524C28.7454 14.7629 29.084 14.5018 29.1873 14.1231L30.5614 8.98223C30.6905 8.50314 31.1925 8.23061 31.663 8.37978C34.199 9.19166 36.5056 10.5285 38.4363 12.2785C38.8035 12.6113 38.8149 13.185 38.465 13.5322L34.6925 17.3046C34.4171 17.58 34.3568 18.0104 34.5548 18.3489L36.9015 22.4169C37.0965 22.7554 37.4953 22.9218 37.874 22.8185L43.0206 21.4415C43.4969 21.3152 43.9845 21.6078 44.0907 22.0869C44.3661 23.3463 44.5267 24.6574 44.5267 26C44.5267 27.3426 44.369 28.6536 44.0907 29.913Z" fill="#242430"/>
</svg>
