<svg width="640" height="181" viewBox="0 0 640 181" fill="none" xmlns="http://www.w3.org/2000/svg">
<path d="M67.96 34C80.84 34 88.4 42.68 90.64 54.72L43.88 60.88C46.4 41.56 56.76 34 67.96 34ZM76.64 140.96C92.88 140.96 109.4 139.28 125.64 137.32V100.36C110.24 102.88 96.24 104.28 81.4 104.28C64.6 104.56 52 98.68 46.4 86.36L130.96 75.44C132.36 30.64 108.28 0.39999 67.96 0.39999C28.76 0.39999 0.76 24.76 0.76 69.28C0.76 113.8 31.28 140.96 76.64 140.96ZM125.524 2.91999L174.244 139H221.844L270.564 2.91999H226.044L198.884 90.28L170.604 2.91999H125.524ZM333.468 34C346.348 34 353.908 42.68 356.148 54.72L309.388 60.88C311.908 41.56 322.268 34 333.468 34ZM342.148 140.96C358.388 140.96 374.908 139.28 391.148 137.32V100.36C375.748 102.88 361.748 104.28 346.908 104.28C330.108 104.56 317.508 98.68 311.908 86.36L396.468 75.44C397.868 30.64 373.788 0.39999 333.468 0.39999C294.268 0.39999 266.268 24.76 266.268 69.28C266.268 113.8 296.788 140.96 342.148 140.96ZM452.468 72.92C452.468 52.48 459.748 44.36 481.028 44.36C484.948 44.36 489.428 44.36 493.628 44.64V2.63999H485.228C469.548 2.63999 458.908 10.76 452.468 23.64V3.2L410.748 3.2V139H452.468V72.92ZM576.145 180.16L639.705 3.2H595.185L567.185 91.68L539.745 3.2H494.665L544.785 137.04L528.545 180.16H576.145Z" fill="#242430"/>
</svg>
