<svg width="356" height="183" viewBox="0 0 356 183" fill="none" xmlns="http://www.w3.org/2000/svg">
<path d="M0.520001 0.032198V29.1522H41.96V0.032198H0.520001ZM0.24 43.7122L0.24 179.512H41.96V43.7122H0.24ZM103.236 182.032C137.956 182.032 157.276 164.672 157.276 138.632C157.276 119.032 146.916 103.912 113.036 95.5122C99.3163 91.5922 95.3963 87.9522 95.3963 83.1922C95.3963 77.5922 99.5963 75.0722 111.636 75.0722C123.396 75.0722 135.996 77.5922 150.276 80.9522V46.7922C141.876 43.4322 125.356 40.9122 109.396 40.9122C74.9563 40.9122 55.3563 59.1122 55.3563 83.1922C55.3563 103.632 65.7163 119.872 101.836 127.432C112.756 130.512 116.956 134.432 116.956 139.472C116.956 144.232 112.756 147.592 101.556 147.592C85.5963 147.592 70.4763 144.792 56.1963 141.992V176.992C66.5563 179.232 84.7563 182.032 103.236 182.032ZM286.098 145.352C270.698 145.352 259.498 133.592 259.498 111.752C259.498 89.3522 270.698 77.5922 286.098 77.5922C301.778 77.5922 314.098 89.3522 314.098 111.752C314.098 133.592 301.778 145.352 286.098 145.352ZM275.738 181.472C293.098 181.472 305.978 174.192 314.098 158.792V179.512H355.538V43.7122H314.098V65.5522C305.978 49.5922 292.818 41.7522 275.738 41.7522C246.338 41.7522 217.778 64.4322 217.778 112.032C217.778 159.352 245.498 181.472 275.738 181.472Z" fill="#242430"/>
</svg>
