<svg width="540" height="184" viewBox="0 0 540 184" fill="none" xmlns="http://www.w3.org/2000/svg">
<path d="M48.08 141.52C82.8 141.52 102.12 124.16 102.12 98.12C102.12 78.52 91.76 63.4 57.88 55C44.16 51.08 40.24 47.44 40.24 42.68C40.24 37.08 44.44 34.56 56.48 34.56C68.24 34.56 80.84 37.08 95.12 40.44V6.27999C86.72 2.91999 70.2 0.39999 54.24 0.39999C19.8 0.39999 0.2 18.6 0.2 42.68C0.2 63.12 10.56 79.36 46.68 86.92C57.6 90 61.8 93.92 61.8 98.96C61.8 103.72 57.6 107.08 46.4 107.08C30.44 107.08 15.32 104.28 1.04 101.48L1.04 136.48C11.4 138.72 29.6 141.52 48.08 141.52ZM178.742 141.52C221.022 141.8 247.902 112.96 247.902 70.68C247.902 29.8 221.582 0.679995 178.742 0.39999C135.902 0.39999 109.862 29.8 109.862 70.68C109.862 112.96 136.462 141.52 178.742 141.52ZM178.742 104.28C161.382 104.28 152.422 92.24 152.422 70.96C152.422 49.4 161.382 37.64 178.742 37.64C196.102 37.64 205.062 49.4 205.062 70.96C205.062 92.24 196.102 104.28 178.742 104.28ZM303.444 62.84C303.444 44.92 309.324 37.64 325.844 37.64C342.084 37.64 347.964 44.92 347.964 62.84V139H389.404V53.32C389.404 21.68 372.044 0.39999 342.084 0.39999C323.884 0.39999 311.004 8.24 303.444 21.68V3.2L261.724 3.2V139H303.444V62.84ZM469.36 97.28C454.24 97.28 442.76 86.92 442.76 67.32C442.76 47.72 454.24 37.08 469.36 37.08C485.04 37.08 497.64 47.72 497.64 67.32C497.64 86.92 485.04 97.28 469.36 97.28ZM459 126.4C476.36 126.4 489.52 119.68 497.64 105.96V119.96C497.64 137.04 484.48 146.56 463.2 146.56C447.24 146.56 430.16 144.88 413.36 142.08V178.76C425.96 181.84 448.08 183.24 467.68 183.24C511.92 183.24 539.08 160 539.08 121.36V3.2H497.64V22.52C489.52 8.24 476.08 1.24 459 1.24C429.6 1.24 401.32 21.68 401.32 64.24C401.32 106.8 429.04 126.4 459 126.4Z" fill="#242430"/>
</svg>
