<svg width="635" height="191" viewBox="0 0 635 191" fill="none" xmlns="http://www.w3.org/2000/svg">
<path d="M0.0399999 52.2244L29.72 188.024H76.2L98.32 125.864L119.88 188.024H167.2L196.88 52.2244L154.32 52.2244L137.8 137.344L106.72 52.2244H90.2L58.56 136.784L42.88 52.2244H0.0399999ZM263.218 190.544C305.498 190.824 332.378 161.984 332.378 119.704C332.378 78.8244 306.058 49.7044 263.218 49.4244C220.378 49.4244 194.338 78.8244 194.338 119.704C194.338 161.984 220.938 190.544 263.218 190.544ZM263.218 153.304C245.858 153.304 236.898 141.264 236.898 119.984C236.898 98.4244 245.858 86.6644 263.218 86.6644C280.578 86.6644 289.538 98.4244 289.538 119.984C289.538 141.264 280.578 153.304 263.218 153.304ZM387.921 121.944C387.921 101.504 395.201 93.3844 416.481 93.3844C420.401 93.3844 424.881 93.3844 429.081 93.6644V51.6644H420.681C405.001 51.6644 394.361 59.7844 387.921 72.6644V52.2244H346.201V188.024H387.921V121.944ZM442.998 0.144413V188.024H484.718V0.144413H442.998ZM564.8 153.864C549.68 153.864 538.2 142.104 538.2 120.264C538.2 97.8644 549.68 86.1044 564.8 86.1044C580.48 86.1044 593.08 97.8644 593.08 120.264C593.08 142.104 580.48 153.864 564.8 153.864ZM593.08 0.144413V74.0644C584.96 58.1044 571.52 50.2644 554.44 50.2644C525.04 50.2644 496.76 72.9444 496.76 120.544C496.76 167.864 524.48 189.984 554.44 189.984C571.8 189.984 584.96 182.704 593.08 167.304V188.024H634.52V0.144413H593.08Z" fill="#242430"/>
</svg>
