<svg xmlns="http://www.w3.org/2000/svg" width="207.171" height="154.543" viewBox="0 0 207.171 154.543">
  <g id="Group_1285" data-name="Group 1285" transform="translate(-648.445 -442.77)">
    <rect id="Rectangle_1488" data-name="Rectangle 1488" width="159.601" height="98.174" transform="translate(694.73 498.639) rotate(-0.458)" fill="#fff"/>
    <rect id="Rectangle_1489" data-name="Rectangle 1489" width="159.601" height="98.174" transform="translate(694.73 498.639) rotate(-0.458)" fill="none" stroke="#242430" stroke-linejoin="round" stroke-width="1"/>
    <path id="Path_8528" data-name="Path 8528" d="M105.758,109.755,186.027,62.9l79.322,45.581" transform="translate(588.945 388.87)" fill="#fff"/>
    <path id="Path_8529" data-name="Path 8529" d="M105.758,109.755,186.027,62.9l79.322,45.581" transform="translate(588.945 388.87)" fill="none" stroke="#242430" stroke-linejoin="round" stroke-width="1"/>
    <line id="Line_181" data-name="Line 181" x1="60.849" y1="63.162" transform="translate(794.23 532.352)" fill="none" stroke="#242430" stroke-linejoin="round" stroke-width="1"/>
    <line id="Line_182" data-name="Line 182" x1="59.123" y2="63.371" transform="translate(695.489 533.42)" fill="none" stroke="#242430" stroke-linejoin="round" stroke-width="1"/>
    <path id="Path_8530" data-name="Path 8530" d="M264.979,108.635,184.71,155.493l-79.322-45.58" transform="translate(588.945 388.87)"/>
    <path id="Path_8531" data-name="Path 8531" d="M264.979,108.635,184.71,155.493l-79.322-45.58" transform="translate(588.945 388.87)" fill="none" stroke="#242430" stroke-linejoin="round" stroke-width="1"/>
    <path id="Path_8532" data-name="Path 8532" d="M184.709,155.493l56.111-32.755V89.248h-108v36.426Z" transform="translate(588.945 388.87)" fill="#53e1ad"/>
    <path id="Path_8533" data-name="Path 8533" d="M184.709,155.493l56.111-32.755V89.248h-108v36.426Z" transform="translate(588.945 388.87)" fill="none" stroke="#242430" stroke-linejoin="round" stroke-width="1"/>
    <rect id="Rectangle_1490" data-name="Rectangle 1490" width="21.489" height="19.709" transform="translate(799.09 488.081)" fill="#fff"/>
    <rect id="Rectangle_1491" data-name="Rectangle 1491" width="21.489" height="19.709" transform="translate(799.09 488.081)" fill="none" stroke="#242430" stroke-linejoin="round" stroke-width="1"/>
    <line id="Line_183" data-name="Line 183" x2="29.065" transform="translate(735.787 487.5)" fill="none" stroke="#242430" stroke-linejoin="round" stroke-width="1"/>
    <line id="Line_184" data-name="Line 184" x2="29.065" transform="translate(735.787 493.926)" fill="none" stroke="#242430" stroke-linejoin="round" stroke-width="1"/>
    <line id="Line_185" data-name="Line 185" x2="29.065" transform="translate(735.787 500.579)" fill="none" stroke="#242430" stroke-linejoin="round" stroke-width="1"/>
    <path id="Path_8534" data-name="Path 8534" d="M113.811,81.3a26.894,26.894,0,0,0-26.9,26.9A26.9,26.9,0,0,0,60,81.3,26.9,26.9,0,0,0,86.915,54.4a26.892,26.892,0,0,0,26.9,26.9" transform="translate(588.945 388.87)" fill="#ff665c"/>
    <path id="Path_8535" data-name="Path 8535" d="M113.811,81.3a26.894,26.894,0,0,0-26.9,26.9A26.9,26.9,0,0,0,60,81.3,26.9,26.9,0,0,0,86.915,54.4,26.892,26.892,0,0,0,113.811,81.3Z" transform="translate(588.945 388.87)" fill="none" stroke="#242430" stroke-linejoin="round" stroke-width="1"/>
    <path id="Path_8536" data-name="Path 8536" d="M224.178,115.335a12.4,12.4,0,1,0,10.681,10.681,12.416,12.416,0,0,0-10.681-10.681m6.532,14.479-2.538-.68a.359.359,0,0,0-.4.167l-1.158,2.006a.359.359,0,0,0,.057.433l1.859,1.859a.364.364,0,0,1,0,.521,8.81,8.81,0,0,1-3.322,1.912.364.364,0,0,1-.455-.255l-.68-2.535a.358.358,0,0,0-.346-.266H221.4a.359.359,0,0,0-.347.266l-.679,2.535a.364.364,0,0,1-.455.255,8.81,8.81,0,0,1-3.322-1.912.364.364,0,0,1-.005-.521l1.859-1.859a.359.359,0,0,0,.057-.433l-1.158-2.005a.358.358,0,0,0-.4-.168l-2.538.68a.36.36,0,0,1-.445-.262,8.45,8.45,0,0,1,0-3.84.36.36,0,0,1,.445-.262l2.538.679a.357.357,0,0,0,.4-.167l1.158-2a.359.359,0,0,0-.057-.433l-1.859-1.859a.363.363,0,0,1,.006-.521,8.8,8.8,0,0,1,3.321-1.912.364.364,0,0,1,.455.255l.679,2.535a.359.359,0,0,0,.347.265h2.315a.359.359,0,0,0,.346-.265l.68-2.535a.364.364,0,0,1,.455-.255,8.8,8.8,0,0,1,3.321,1.912.363.363,0,0,1,.006.521l-1.859,1.859a.359.359,0,0,0-.057.433l1.158,2a.358.358,0,0,0,.4.167l2.538-.679a.359.359,0,0,1,.445.262,8.45,8.45,0,0,1,0,3.84.36.36,0,0,1-.445.262" transform="translate(588.945 388.87)" fill="#ff665c"/>
    <path id="Path_8537" data-name="Path 8537" d="M224.178,115.335a12.4,12.4,0,1,0,10.681,10.681A12.416,12.416,0,0,0,224.178,115.335Zm6.532,14.479-2.538-.68a.359.359,0,0,0-.4.167l-1.158,2.006a.359.359,0,0,0,.057.433l1.859,1.859a.364.364,0,0,1,0,.521,8.81,8.81,0,0,1-3.322,1.912.364.364,0,0,1-.455-.255l-.68-2.535a.358.358,0,0,0-.346-.266H221.4a.359.359,0,0,0-.347.266l-.679,2.535a.364.364,0,0,1-.455.255,8.81,8.81,0,0,1-3.322-1.912.364.364,0,0,1-.005-.521l1.859-1.859a.359.359,0,0,0,.057-.433l-1.158-2.005a.358.358,0,0,0-.4-.168l-2.538.68a.36.36,0,0,1-.445-.262,8.45,8.45,0,0,1,0-3.84.36.36,0,0,1,.445-.262l2.538.679a.357.357,0,0,0,.4-.167l1.158-2a.359.359,0,0,0-.057-.433l-1.859-1.859a.363.363,0,0,1,.006-.521,8.8,8.8,0,0,1,3.321-1.912.364.364,0,0,1,.455.255l.679,2.535a.359.359,0,0,0,.347.265h2.315a.359.359,0,0,0,.346-.265l.68-2.535a.364.364,0,0,1,.455-.255,8.8,8.8,0,0,1,3.321,1.912.363.363,0,0,1,.006.521l-1.859,1.859a.359.359,0,0,0-.057.433l1.158,2a.358.358,0,0,0,.4.167l2.538-.679a.359.359,0,0,1,.445.262,8.45,8.45,0,0,1,0,3.84A.36.36,0,0,1,230.71,129.814Z" transform="translate(588.945 388.87)" fill="none" stroke="#242430" stroke-linejoin="round" stroke-width="1"/>
    <path id="Path_8538" data-name="Path 8538" d="M183.463,125.666l1.246,29.827,77.618-45.309-33.765-10.1Z" transform="translate(588.945 388.87)" fill="none"/>
  </g>
</svg>
