<svg xmlns="http://www.w3.org/2000/svg" width="162.968" height="165.863" viewBox="0 0 162.968 165.863">
  <g id="Group_1284" data-name="Group 1284" transform="translate(-1063.794 -430.827)">
    <path id="Path_8515" data-name="Path 8515" d="M613.856,86.024h4.722a18.742,18.742,0,0,1,18.739,18.739v83.818a18.639,18.639,0,0,1-18.739,18.739H494.088a18.741,18.741,0,0,1-18.739-18.739V76.961" transform="translate(588.945 388.87)" fill="#fbd200"/>
    <path id="Path_8516" data-name="Path 8516" d="M613.856,86.024h4.722a18.742,18.742,0,0,1,18.739,18.739v83.818a18.639,18.639,0,0,1-18.739,18.739H494.088a18.741,18.741,0,0,1-18.739-18.739V76.961" transform="translate(588.945 388.87)" fill="none" stroke="#242430" stroke-width="1"/>
    <path id="Path_8517" data-name="Path 8517" d="M618.578,86.024H483.985a8.636,8.636,0,0,1,0-17.272H595.117a18.741,18.741,0,0,1,18.645,16.854" transform="translate(588.945 388.87)" fill="#242430"/>
    <path id="Path_8518" data-name="Path 8518" d="M618.578,86.024H483.985a8.636,8.636,0,0,1,0-17.272H595.117a18.741,18.741,0,0,1,18.645,16.854" transform="translate(588.945 388.87)" fill="none" stroke="#242430" stroke-linejoin="round" stroke-width="1"/>
    <path id="Path_8519" data-name="Path 8519" d="M581.165,88.759a31.492,31.492,0,1,0-31.492,31.492,31.492,31.492,0,0,0,31.492-31.492" transform="translate(588.945 388.87)" fill="#ff665c"/>
    <circle id="Ellipse_17" data-name="Ellipse 17" cx="31.492" cy="31.492" r="31.492" transform="matrix(0.987, -0.16, 0.16, 0.987, 1102.488, 451.588)" fill="none" stroke="#242430" stroke-linejoin="round" stroke-width="1"/>
    <path id="Path_8520" data-name="Path 8520" d="M574.669,88.759a25,25,0,1,0-25,25,25,25,0,0,0,25-25" transform="translate(588.945 388.87)" fill="#53e1ad"/>
    <path id="Path_8521" data-name="Path 8521" d="M574.669,88.759a25,25,0,1,0-25,25A25,25,0,0,0,574.669,88.759Z" transform="translate(588.945 388.87)" fill="none" stroke="#242430" stroke-width="1"/>
    <path id="Path_8522" data-name="Path 8522" d="M564.891,100.948l-4.755-4.1a12.394,12.394,0,0,1-8.142,4.243V76.421a12.313,12.313,0,0,1,7.512,3.569l4.439-4.44a18.523,18.523,0,0,0-11.951-5.409V67.5h-6.278v3.28a18.656,18.656,0,0,0,0,35.948v3.048h6.278v-2.39a18.665,18.665,0,0,0,12.9-6.443M538.335,88.759a12.412,12.412,0,0,1,7.381-11.33v22.66a12.412,12.412,0,0,1-7.381-11.33" transform="translate(588.945 388.87)" fill="#fbd200"/>
    <path id="Path_8523" data-name="Path 8523" d="M564.891,100.948l-4.755-4.1a12.394,12.394,0,0,1-8.142,4.243V76.421a12.313,12.313,0,0,1,7.512,3.569l4.439-4.44a18.523,18.523,0,0,0-11.951-5.409V67.5h-6.278v3.28a18.656,18.656,0,0,0,0,35.948v3.048h6.278v-2.39A18.665,18.665,0,0,0,564.891,100.948ZM538.335,88.759a12.412,12.412,0,0,1,7.381-11.33v22.66A12.412,12.412,0,0,1,538.335,88.759Z" transform="translate(588.945 388.87)" fill="none" stroke="#242430" stroke-linejoin="round" stroke-width="1"/>
    <rect id="Rectangle_1484" data-name="Rectangle 1484" width="82.864" height="43.399" transform="translate(1094.68 430.827)" fill="none"/>
    <path id="Path_8524" data-name="Path 8524" d="M637.317,165.2H603.854a14.072,14.072,0,1,1,0-28.144h33.463Z" transform="translate(588.945 388.87)" fill="#53e1ad"/>
    <path id="Path_8525" data-name="Path 8525" d="M637.317,165.2H603.854a14.072,14.072,0,1,1,0-28.144h33.463Z" transform="translate(588.945 388.87)" fill="none" stroke="#242430" stroke-width="1"/>
    <path id="Path_8526" data-name="Path 8526" d="M605.288,141.506a10.06,10.06,0,1,0,8.663,8.663,10.071,10.071,0,0,0-8.663-8.663m5.3,11.744-2.058-.551a.29.29,0,0,0-.327.135l-.94,1.627a.292.292,0,0,0,.047.351l1.508,1.508a.3.3,0,0,1-.005.423,7.167,7.167,0,0,1-2.694,1.551.3.3,0,0,1-.369-.207l-.551-2.057a.291.291,0,0,0-.281-.215h-1.878a.29.29,0,0,0-.281.215l-.551,2.057a.3.3,0,0,1-.369.207,7.152,7.152,0,0,1-2.694-1.551.294.294,0,0,1-.005-.423l1.508-1.508a.291.291,0,0,0,.046-.351l-.939-1.627a.291.291,0,0,0-.327-.135l-2.058.551a.292.292,0,0,1-.361-.213,6.861,6.861,0,0,1,0-3.114.292.292,0,0,1,.361-.213l2.058.551a.291.291,0,0,0,.327-.135l.939-1.627a.291.291,0,0,0-.046-.351l-1.508-1.508a.294.294,0,0,1,.005-.422,7.125,7.125,0,0,1,2.694-1.551.3.3,0,0,1,.369.207l.551,2.056a.29.29,0,0,0,.281.215h1.878a.291.291,0,0,0,.281-.215l.551-2.056a.3.3,0,0,1,.369-.207,7.14,7.14,0,0,1,2.694,1.551.294.294,0,0,1,0,.422l-1.507,1.508a.292.292,0,0,0-.047.351l.94,1.627a.29.29,0,0,0,.327.135l2.058-.551a.292.292,0,0,1,.361.213,6.863,6.863,0,0,1,0,3.114.292.292,0,0,1-.361.213" transform="translate(588.945 388.87)" fill="#ff665c"/>
    <path id="Path_8527" data-name="Path 8527" d="M605.288,141.506a10.06,10.06,0,1,0,8.663,8.663A10.071,10.071,0,0,0,605.288,141.506Zm5.3,11.744-2.058-.551a.29.29,0,0,0-.327.135l-.94,1.627a.292.292,0,0,0,.047.351l1.508,1.508a.3.3,0,0,1-.005.423,7.167,7.167,0,0,1-2.694,1.551.3.3,0,0,1-.369-.207l-.551-2.057a.291.291,0,0,0-.281-.215h-1.878a.29.29,0,0,0-.281.215l-.551,2.057a.3.3,0,0,1-.369.207,7.152,7.152,0,0,1-2.694-1.551.294.294,0,0,1-.005-.423l1.508-1.508a.291.291,0,0,0,.046-.351l-.939-1.627a.291.291,0,0,0-.327-.135l-2.058.551a.292.292,0,0,1-.361-.213,6.861,6.861,0,0,1,0-3.114.292.292,0,0,1,.361-.213l2.058.551a.291.291,0,0,0,.327-.135l.939-1.627a.291.291,0,0,0-.046-.351l-1.508-1.508a.294.294,0,0,1,.005-.422,7.125,7.125,0,0,1,2.694-1.551.3.3,0,0,1,.369.207l.551,2.056a.29.29,0,0,0,.281.215h1.878a.291.291,0,0,0,.281-.215l.551-2.056a.3.3,0,0,1,.369-.207,7.14,7.14,0,0,1,2.694,1.551.294.294,0,0,1,0,.422l-1.507,1.508a.292.292,0,0,0-.047.351l.94,1.627a.29.29,0,0,0,.327.135l2.058-.551a.292.292,0,0,1,.361.213,6.863,6.863,0,0,1,0,3.114A.292.292,0,0,1,610.586,153.25Z" transform="translate(588.945 388.87)" fill="none" stroke="#242430" stroke-linejoin="round" stroke-width="1"/>
  </g>
</svg>
