<svg xmlns="http://www.w3.org/2000/svg" width="65.77" height="61.547" viewBox="0 0 65.77 61.547">
  <g id="Group_4218" data-name="Group 4218" transform="translate(-543.49 -2786.855)">
    <rect id="Rectangle_2149" data-name="Rectangle 2149" width="53.049" height="53.049" transform="translate(555.711 2794.853)" fill="#e8ece2"/>
    <rect id="Rectangle_2150" data-name="Rectangle 2150" width="53.049" height="53.049" transform="translate(555.711 2794.853)" fill="none" stroke="#1e1e28" stroke-linejoin="bevel" stroke-width="1"/>
    <path id="Path_1532" data-name="Path 1532" d="M306.486,34.071a20.046,20.046,0,1,1-20.047-20.046,20.047,20.047,0,0,1,20.047,20.046" transform="translate(295.796 2786.855)" fill="#1e1e28"/>
    <circle id="Ellipse_9" data-name="Ellipse 9" cx="20.046" cy="20.046" r="20.046" transform="translate(562.189 2800.88)" fill="none" stroke="#1e1e28" stroke-linejoin="round" stroke-width="1"/>
    <path id="Path_1533" data-name="Path 1533" d="M291.849,34.071a5.41,5.41,0,1,1-5.41-5.41,5.41,5.41,0,0,1,5.41,5.41" transform="translate(295.796 2786.855)" fill="#e8ece2"/>
    <path id="Path_1534" data-name="Path 1534" d="M291.849,34.071a5.41,5.41,0,1,1-5.41-5.41A5.41,5.41,0,0,1,291.849,34.071Z" transform="translate(295.796 2786.855)" fill="none" stroke="#1e1e28" stroke-linejoin="bevel" stroke-width="1"/>
    <path id="Path_1535" data-name="Path 1535" d="M286.439,16.32a17.75,17.75,0,0,1,17.75,17.75" transform="translate(295.796 2786.855)" fill="none" stroke="#e8ece2" stroke-linecap="round" stroke-linejoin="round" stroke-width="1"/>
    <path id="Path_1536" data-name="Path 1536" d="M286.439,20.215a13.861,13.861,0,0,1,13.232,9.735" transform="translate(295.796 2786.855)" fill="none" stroke="#e8ece2" stroke-linecap="round" stroke-linejoin="round" stroke-width="1"/>
    <path id="Path_1537" data-name="Path 1537" d="M286.439,42.512A8.442,8.442,0,0,1,278,34.07" transform="translate(295.796 2786.855)" fill="none" stroke="#e8ece2" stroke-linecap="round" stroke-linejoin="round" stroke-width="1"/>
    <path id="Path_1538" data-name="Path 1538" d="M286.439,51.821a17.75,17.75,0,0,1-17.75-17.75" transform="translate(295.796 2786.855)" fill="none" stroke="#e8ece2" stroke-linecap="round" stroke-linejoin="round" stroke-width="1"/>
    <path id="Path_1539" data-name="Path 1539" d="M259.915,61.047,248.194,50.9V.5L259.915,8Z" transform="translate(295.796 2786.855)" fill="#e8ece2"/>
    <path id="Path_1540" data-name="Path 1540" d="M259.915,61.047,248.194,50.9V.5L259.915,8Z" transform="translate(295.796 2786.855)" fill="none" stroke="#1e1e28" stroke-linejoin="bevel" stroke-width="1"/>
    <path id="Path_1541" data-name="Path 1541" d="M312.964,8H259.915L248.194.5h50.4Z" transform="translate(295.796 2786.855)" fill="#1e1e28"/>
    <path id="Path_1542" data-name="Path 1542" d="M312.964,8H259.915L248.194.5h50.4Z" transform="translate(295.796 2786.855)" fill="none" stroke="#1e1e28" stroke-linejoin="bevel" stroke-width="1"/>
  </g>
</svg>
