<svg xmlns="http://www.w3.org/2000/svg" width="65.77" height="66.24" viewBox="0 0 65.77 66.24">
  <g id="Group_4219" data-name="Group 4219" transform="translate(-1181.49 -2488.885)">
    <rect id="Rectangle_2158" data-name="Rectangle 2158" width="53.049" height="53.049" transform="translate(1193.711 2501.576)" fill="#e8ece2"/>
    <rect id="Rectangle_2159" data-name="Rectangle 2159" width="53.049" height="53.049" transform="translate(1193.711 2501.576)" fill="none" stroke="#1e1e28" stroke-linejoin="bevel" stroke-width="1"/>
    <line id="Line_132" data-name="Line 132" x2="42.836" transform="translate(1198.613 2514.788)" fill="#e8ece2"/>
    <line id="Line_133" data-name="Line 133" x2="42.836" transform="translate(1198.613 2514.788)" fill="none" stroke="#1e1e28" stroke-linecap="round" stroke-linejoin="round" stroke-width="1"/>
    <line id="Line_134" data-name="Line 134" x2="42.836" transform="translate(1198.613 2524.386)" fill="#e8ece2"/>
    <line id="Line_135" data-name="Line 135" x2="42.836" transform="translate(1198.613 2524.386)" fill="none" stroke="#1e1e28" stroke-linecap="round" stroke-linejoin="round" stroke-width="1"/>
    <line id="Line_136" data-name="Line 136" x2="42.836" transform="translate(1198.613 2533.984)" fill="#e8ece2"/>
    <line id="Line_137" data-name="Line 137" x2="42.836" transform="translate(1198.613 2533.984)" fill="none" stroke="#1e1e28" stroke-linecap="round" stroke-linejoin="round" stroke-width="1"/>
    <line id="Line_138" data-name="Line 138" x2="42.836" transform="translate(1198.613 2543.582)" fill="#e8ece2"/>
    <line id="Line_139" data-name="Line 139" x2="42.836" transform="translate(1198.613 2543.582)" fill="none" stroke="#1e1e28" stroke-linecap="round" stroke-linejoin="round" stroke-width="1"/>
    <path id="Path_1552" data-name="Path 1552" d="M277.444,116.933a2.854,2.854,0,1,1-2.854-2.854,2.854,2.854,0,0,1,2.854,2.854" transform="translate(933.796 2397.855)" fill="#e8ece2"/>
    <circle id="Ellipse_12" data-name="Ellipse 12" cx="2.854" cy="2.854" r="2.854" transform="translate(1205.532 2511.934)" fill="none" stroke="#1e1e28" stroke-linecap="round" stroke-linejoin="round" stroke-width="1"/>
    <rect id="Rectangle_2160" data-name="Rectangle 2160" width="5.296" height="5.296" transform="translate(1230.539 2521.543)" fill="#1e1e28"/>
    <rect id="Rectangle_2161" data-name="Rectangle 2161" width="5.296" height="5.296" transform="translate(1230.539 2521.543)" fill="none" stroke="#1e1e28" stroke-linecap="round" stroke-linejoin="round" stroke-width="1"/>
    <path id="Path_1553" data-name="Path 1553" d="M275.405,132.033l-3.547,6.143h7.094Z" transform="translate(933.796 2397.855)" fill="#e8ece2"/>
    <path id="Path_1554" data-name="Path 1554" d="M275.405,132.033l-3.547,6.143h7.094Z" transform="translate(933.796 2397.855)" fill="none" stroke="#1e1e28" stroke-linecap="round" stroke-linejoin="round" stroke-width="1"/>
    <path id="Path_1555" data-name="Path 1555" d="M293.265,142.8h-3.374l-1.687,2.922,1.687,2.922h3.374l1.687-2.922Z" transform="translate(933.796 2397.855)" fill="#1e1e28"/>
    <path id="Path_1556" data-name="Path 1556" d="M293.265,142.8h-3.374l-1.687,2.922,1.687,2.922h3.374l1.687-2.922Z" transform="translate(933.796 2397.855)" fill="none" stroke="#1e1e28" stroke-linecap="round" stroke-linejoin="round" stroke-width="1"/>
    <path id="Path_1557" data-name="Path 1557" d="M259.915,156.77l-11.721-14.844V91.53l11.721,12.191Z" transform="translate(933.796 2397.855)" fill="#e8ece2"/>
    <path id="Path_1558" data-name="Path 1558" d="M259.915,156.77l-11.721-14.844V91.53l11.721,12.191Z" transform="translate(933.796 2397.855)" fill="none" stroke="#1e1e28" stroke-linejoin="bevel" stroke-width="1"/>
    <path id="Path_1559" data-name="Path 1559" d="M312.964,103.721H259.915L248.194,91.53h50.4Z" transform="translate(933.796 2397.855)" fill="#1e1e28"/>
    <path id="Path_1560" data-name="Path 1560" d="M312.964,103.721H259.915L248.194,91.53h50.4Z" transform="translate(933.796 2397.855)" fill="none" stroke="#1e1e28" stroke-linejoin="bevel" stroke-width="1"/>
  </g>
</svg>
