<svg xmlns="http://www.w3.org/2000/svg" width="54.049" height="70.933" viewBox="0 0 54.049 70.933">
  <g id="Group_4220" data-name="Group 4220" transform="translate(-1312.286 -2972.606)">
    <rect id="Rectangle_2151" data-name="Rectangle 2151" width="53.049" height="53.049" transform="translate(1312.786 2989.99)" fill="#e8ece2"/>
    <rect id="Rectangle_2152" data-name="Rectangle 2152" width="53.049" height="53.049" transform="translate(1312.786 2989.99)" fill="none" stroke="#1e1e28" stroke-linejoin="bevel" stroke-width="1"/>
    <rect id="Rectangle_2153" data-name="Rectangle 2153" width="25.179" height="13.877" transform="translate(1324.41 3012.954)" fill="none" stroke="#1e1e28" stroke-linejoin="round" stroke-width="1"/>
    <path id="Path_1543" data-name="Path 1543" d="M44.856,241.417,37.3,238.234v-7.263l7.556-3.431Z" transform="translate(1312.286 2785.855)" fill="none" stroke="#1e1e28" stroke-linejoin="round" stroke-width="1"/>
    <path id="Path_1544" data-name="Path 1544" d="M23.156,223.15a3.95,3.95,0,1,1-3.949-3.949,3.949,3.949,0,0,1,3.949,3.949" transform="translate(1312.286 2785.855)" fill="#1e1e28"/>
    <path id="Path_1545" data-name="Path 1545" d="M23.156,223.15a3.95,3.95,0,1,1-3.949-3.949A3.949,3.949,0,0,1,23.156,223.15Z" transform="translate(1312.286 2785.855)" fill="none" stroke="#1e1e28" stroke-linejoin="round" stroke-width="1"/>
    <path id="Path_1546" data-name="Path 1546" d="M34.874,221.26a5.839,5.839,0,1,1-5.839-5.839,5.839,5.839,0,0,1,5.839,5.839" transform="translate(1312.286 2785.855)" fill="#1e1e28"/>
    <circle id="Ellipse_10" data-name="Ellipse 10" cx="5.839" cy="5.839" r="5.839" transform="translate(1335.482 3001.277)" fill="none" stroke="#1e1e28" stroke-linejoin="round" stroke-width="1"/>
    <path id="Path_1547" data-name="Path 1547" d="M53.549,204.135H.5l1.25-16.884h50.4Z" transform="translate(1312.286 2785.855)" fill="#1e1e28"/>
    <path id="Path_1548" data-name="Path 1548" d="M53.549,204.135H.5l1.25-16.884h50.4Z" transform="translate(1312.286 2785.855)" fill="none" stroke="#1e1e28" stroke-linejoin="round" stroke-width="1"/>
  </g>
</svg>
