<svg xmlns="http://www.w3.org/2000/svg" width="106.279" height="106.279" viewBox="0 0 106.279 106.279">
  <g id="Group_370" data-name="Group 370" transform="translate(-1144.629 -450.1)">
    <rect id="Rectangle_643" data-name="Rectangle 643" width="105.279" height="105.279" transform="translate(1145.129 450.6)" fill="#e8ece2"/>
    <rect id="Rectangle_644" data-name="Rectangle 644" width="105.279" height="105.279" transform="translate(1145.129 450.6)" fill="none" stroke="#1e1e28" stroke-linecap="round" stroke-linejoin="round" stroke-width="1"/>
    <path id="Path_564" data-name="Path 564" d="M1383.692,2758.45a6.336,6.336,0,0,1-12.672,0,6.336,6.336,0,0,1,12.672,0" transform="translate(-147.581 -2271.01)" fill="#e8ece2"/>
    <path id="Path_565" data-name="Path 565" d="M1383.692,2758.45a6.336,6.336,0,0,1-12.672,0,6.336,6.336,0,0,1,12.672,0Z" transform="translate(-147.581 -2271.01)" fill="none" stroke="#1e1e28" stroke-linecap="round" stroke-linejoin="round" stroke-width="1"/>
    <path id="Path_566" data-name="Path 566" d="M1326.019,2741.507a7.112,7.112,0,0,0-7.1,7.1,7.1,7.1,0,0,1,0-14.192,7.112,7.112,0,0,0,7.1,7.1" transform="translate(-147.581 -2271.01)" fill="#e8ece2"/>
    <path id="Path_567" data-name="Path 567" d="M1326.019,2741.507a7.112,7.112,0,0,0-7.1,7.1,7.1,7.1,0,0,1,0-14.192A7.112,7.112,0,0,0,1326.019,2741.507Z" transform="translate(-147.581 -2271.01)" fill="none" stroke="#1e1e28" stroke-linecap="round" stroke-linejoin="round" stroke-width="1"/>
    <path id="Path_568" data-name="Path 568" d="M1343.2,2755.759c16.047,0,29.057,8.493,29.057,18.97s-13.01,18.969-29.057,18.969-29.057-8.492-29.057-18.969,13.009-18.97,29.057-18.97" transform="translate(-147.581 -2271.01)" fill="#e8ece2"/>
    <ellipse id="Ellipse_39" data-name="Ellipse 39" cx="29.057" cy="18.97" rx="29.057" ry="18.97" transform="translate(1166.559 484.749)" fill="none" stroke="#1e1e28" stroke-linejoin="bevel" stroke-width="1"/>
    <path id="Path_569" data-name="Path 569" d="M1354.911,2778.015a5.661,5.661,0,1,1-5.662,5.662,5.662,5.662,0,0,1,5.662-5.662" transform="translate(-147.581 -2271.01)" fill="#e8ece2"/>
    <path id="Path_570" data-name="Path 570" d="M1354.911,2778.015a5.661,5.661,0,1,1-5.662,5.662A5.662,5.662,0,0,1,1354.911,2778.015Z" transform="translate(-147.581 -2271.01)" fill="none" stroke="#1e1e28" stroke-linecap="round" stroke-linejoin="round" stroke-width="1"/>
    <path id="Path_571" data-name="Path 571" d="M1364.412,2766.756a2.831,2.831,0,1,1-2.831,2.832,2.831,2.831,0,0,1,2.831-2.832" transform="translate(-147.581 -2271.01)" fill="#e8ece2"/>
    <path id="Path_572" data-name="Path 572" d="M1364.412,2766.756a2.831,2.831,0,1,1-2.831,2.832A2.831,2.831,0,0,1,1364.412,2766.756Z" transform="translate(-147.581 -2271.01)" fill="none" stroke="#1e1e28" stroke-linecap="round" stroke-linejoin="round" stroke-width="1"/>
    <path id="Path_573" data-name="Path 573" d="M1343.067,2755.856s35.011,14.935,0,37.777" transform="translate(-147.581 -2271.01)" fill="none" stroke="#1e1e28" stroke-linecap="round" stroke-linejoin="round" stroke-width="1"/>
    <path id="Path_574" data-name="Path 574" d="M1328.067,2769.587a4.914,4.914,0,1,1-4.913,4.913,4.912,4.912,0,0,1,4.913-4.913" transform="translate(-147.581 -2271.01)" fill="#e8ece2"/>
    <path id="Path_575" data-name="Path 575" d="M1328.067,2769.587a4.914,4.914,0,1,1-4.913,4.913A4.912,4.912,0,0,1,1328.067,2769.587Z" transform="translate(-147.581 -2271.01)" fill="none" stroke="#1e1e28" stroke-linecap="round" stroke-linejoin="round" stroke-width="1"/>
    <path id="Path_576" data-name="Path 576" d="M1343.2,2761.127a3.222,3.222,0,1,1-3.221,3.221,3.221,3.221,0,0,1,3.221-3.221" transform="translate(-147.581 -2271.01)" fill="#e8ece2"/>
    <path id="Path_577" data-name="Path 577" d="M1343.2,2761.127a3.222,3.222,0,1,1-3.221,3.221A3.221,3.221,0,0,1,1343.2,2761.127Z" transform="translate(-147.581 -2271.01)" fill="none" stroke="#1e1e28" stroke-linecap="round" stroke-linejoin="round" stroke-width="1"/>
    <path id="Path_578" data-name="Path 578" d="M1343.067,2755.856s-35.011,14.935,0,37.777" transform="translate(-147.581 -2271.01)" fill="none" stroke="#1e1e28" stroke-linecap="round" stroke-linejoin="round" stroke-width="1"/>
    <line id="Line_507" data-name="Line 507" y2="37.777" transform="translate(1195.486 484.846)" fill="none" stroke="#1e1e28" stroke-linecap="round" stroke-linejoin="round" stroke-width="1"/>
    <line id="Line_508" data-name="Line 508" x2="57.951" transform="translate(1166.592 503.719)" fill="none" stroke="#1e1e28" stroke-linecap="round" stroke-linejoin="round" stroke-width="1"/>
    <line id="Line_509" data-name="Line 509" x2="48.449" transform="translate(1171.343 493.306)" fill="none" stroke="#1e1e28" stroke-linecap="round" stroke-linejoin="round" stroke-width="1"/>
    <line id="Line_510" data-name="Line 510" x2="48.775" transform="translate(1171.18 514.098)" fill="none" stroke="#1e1e28" stroke-linecap="round" stroke-linejoin="round" stroke-width="1"/>
    <path id="Path_579" data-name="Path 579" d="M1325.17,2805.008a9.1,9.1,0,0,0-9.081,9.081,9.081,9.081,0,0,1,0-18.162,9.1,9.1,0,0,0,9.081,9.081" transform="translate(-147.581 -2271.01)" fill="#e8ece2"/>
    <path id="Path_580" data-name="Path 580" d="M1325.17,2805.008a9.1,9.1,0,0,0-9.081,9.081,9.081,9.081,0,0,1,0-18.162A9.1,9.1,0,0,0,1325.17,2805.008Z" transform="translate(-147.581 -2271.01)" fill="none" stroke="#1e1e28" stroke-linecap="round" stroke-linejoin="round" stroke-width="1"/>
  </g>
</svg>
