<svg xmlns="http://www.w3.org/2000/svg" width="101.478" height="101.478" viewBox="0 0 101.478 101.478">
  <g id="Group_368" data-name="Group 368" transform="translate(-970.014 -556.911)">
    <rect id="Rectangle_651" data-name="Rectangle 651" width="100.478" height="100.478" transform="translate(970.514 557.411)" fill="#e8ece2"/>
    <rect id="Rectangle_652" data-name="Rectangle 652" width="100.478" height="100.478" transform="translate(970.514 557.411)" fill="none" stroke="#1e1e28" stroke-linejoin="bevel" stroke-width="1"/>
    <path id="Path_590" data-name="Path 590" d="M1203.379,1739.9a35.044,35.044,0,1,1-35.043-35.043,35.043,35.043,0,0,1,35.043,35.043" transform="translate(-147.581 -1132.25)" fill="#e8ece2"/>
    <path id="Path_591" data-name="Path 591" d="M1203.379,1739.9a35.044,35.044,0,1,1-35.043-35.043A35.043,35.043,0,0,1,1203.379,1739.9Z" transform="translate(-147.581 -1132.25)" fill="none" stroke="#1e1e28" stroke-linejoin="bevel" stroke-width="0.831"/>
    <path id="Path_592" data-name="Path 592" d="M1203.372,1739.907a35.04,35.04,0,0,1-35.034,35.034v-70.085a35.044,35.044,0,0,1,35.034,35.051" transform="translate(-147.581 -1132.25)" fill="#1e1e28"/>
    <path id="Path_593" data-name="Path 593" d="M1168.338,1704.856v70.084a35.042,35.042,0,1,1,0-70.084" transform="translate(-147.581 -1132.25)" fill="#e8ece2"/>
    <path id="Path_594" data-name="Path 594" d="M1168.338,1704.856v70.084a35.042,35.042,0,1,1,0-70.084Z" transform="translate(-147.581 -1132.25)" fill="none" stroke="#1e1e28" stroke-width="0.831"/>
  </g>
</svg>
