<svg xmlns="http://www.w3.org/2000/svg" width="101.478" height="101.478" viewBox="0 0 101.478 101.478">
  <g id="Group_369" data-name="Group 369" transform="translate(-834.883 -556.911)">
    <rect id="Rectangle_654" data-name="Rectangle 654" width="100.478" height="100.478" transform="translate(835.383 557.411)" fill="#e8ece2"/>
    <rect id="Rectangle_655" data-name="Rectangle 655" width="100.478" height="100.478" transform="translate(835.383 557.411)" fill="none" stroke="#1e1e28" stroke-linejoin="bevel" stroke-width="1"/>
    <path id="Path_595" data-name="Path 595" d="M1009.4,1769.874a6.2,6.2,0,0,1-4.518-1.652c-3.088-3.087-2.319-10.39,6.358-19.749l.166-.179.243.01a70.923,70.923,0,0,0,13.424-.873l.711-.109-.109.712a71.6,71.6,0,0,0-.873,13.413l.01.243-.179.165c-6.18,5.734-11.466,8.019-15.233,8.019m2.451-20.5c-8,8.71-8.844,15.482-6.221,18.1s9.4,1.777,18.106-6.23a72.169,72.169,0,0,1,.788-12.662,70.922,70.922,0,0,1-12.673.788" transform="translate(-147.581 -1132.25)" fill="#1e1e28"/>
    <path id="Path_596" data-name="Path 596" d="M1025.782,1732.479l-.711-.109a70.968,70.968,0,0,0-13.423-.872l-.244.01-.166-.179c-8.675-9.353-9.445-16.654-6.359-19.741s10.392-2.32,19.753,6.358l.178.165-.009.243a71.6,71.6,0,0,0,.873,13.413Zm-11.913-2.084a74.877,74.877,0,0,1,10.654.824,71.971,71.971,0,0,1-.788-12.661c-8.711-8-15.485-8.847-18.107-6.222s-1.778,9.392,6.222,18.095q.99-.036,2.019-.036" transform="translate(-147.581 -1132.25)" fill="#1e1e28"/>
    <path id="Path_597" data-name="Path 597" d="M1057.007,1769.874c-3.765,0-9.05-2.284-15.231-8.018l-.178-.165.009-.243a71.669,71.669,0,0,0-.873-13.414l-.108-.711.711.108a71.616,71.616,0,0,0,13.414.873l.242-.009.166.178c8.679,9.361,9.449,16.665,6.362,19.751a6.19,6.19,0,0,1-4.514,1.65m-14.334-8.63c8.708,8.005,15.478,8.852,18.1,6.232s1.777-9.395-6.226-18.106a72.036,72.036,0,0,1-12.661-.788,72.235,72.235,0,0,1,.787,12.662" transform="translate(-147.581 -1132.25)" fill="#1e1e28"/>
    <path id="Path_598" data-name="Path 598" d="M1040.626,1732.478l.108-.711a71.669,71.669,0,0,0,.873-13.414l-.009-.243.178-.165c9.36-8.677,16.663-9.447,19.746-6.363s2.314,10.387-6.363,19.746l-.166.178-.242-.009a71.725,71.725,0,0,0-13.414.873Zm2.047-13.921a72.235,72.235,0,0,1-.787,12.662,71.947,71.947,0,0,1,12.661-.788c8-8.71,8.847-15.481,6.227-18.1s-9.392-1.775-18.1,6.226" transform="translate(-147.581 -1132.25)" fill="#1e1e28"/>
    <path id="Path_599" data-name="Path 599" d="M1054.771,1748.832a71.921,71.921,0,0,1-13.514-.878,71.9,71.9,0,0,1,.879,13.513,72.229,72.229,0,0,1-8.932-10.18,72.158,72.158,0,0,1-8.931,10.18,71.916,71.916,0,0,1,.878-13.513,71.048,71.048,0,0,1-13.524.878,72.223,72.223,0,0,1,10.18-8.932,72.16,72.16,0,0,1-10.18-8.931,71.048,71.048,0,0,1,13.524.878,71.916,71.916,0,0,1-.878-13.513,72.158,72.158,0,0,1,8.931,10.18,72.229,72.229,0,0,1,8.932-10.18,71.9,71.9,0,0,1-.879,13.513,71.921,71.921,0,0,1,13.514-.878,72.158,72.158,0,0,1-10.18,8.931,72.221,72.221,0,0,1,10.18,8.932" transform="translate(-147.581 -1132.25)" fill="#1e1e28"/>
    <path id="Path_600" data-name="Path 600" d="M1011.85,1749.37l-.243-.009c-12.748-.479-18.454-5.1-18.454-9.461s5.706-8.981,18.454-9.46l.243-.009.165.178a71.884,71.884,0,0,0,10.106,8.865l.578.426-.578.426a71.849,71.849,0,0,0-10.106,8.866Zm-.445-17.863c-11.811.5-17.194,4.687-17.194,8.393s5.383,7.9,17.194,8.393a72.487,72.487,0,0,1,9.514-8.393,72.388,72.388,0,0,1-9.514-8.393" transform="translate(-147.581 -1132.25)" fill="#1e1e28"/>
    <path id="Path_601" data-name="Path 601" d="M1033.2,1779.95c-4.368,0-8.987-5.709-9.46-18.463l-.009-.243.178-.164a71.972,71.972,0,0,0,8.865-10.106l.426-.578.426.578a72,72,0,0,0,8.865,10.106l.178.164-.009.243c-.473,12.754-5.092,18.463-9.46,18.463m-8.393-18.26c.492,11.815,4.683,17.2,8.393,17.2s7.9-5.386,8.393-17.2a72.482,72.482,0,0,1-8.393-9.515,72.506,72.506,0,0,1-8.393,9.515" transform="translate(-147.581 -1132.25)" fill="#1e1e28"/>
    <path id="Path_602" data-name="Path 602" d="M1033.2,1729.406l-.426-.578a71.957,71.957,0,0,0-8.865-10.106l-.178-.165.009-.244c.473-12.752,5.092-18.461,9.46-18.461s8.987,5.709,9.46,18.461l.009.244-.178.165a71.821,71.821,0,0,0-8.865,10.106Zm-8.393-11.294a72.542,72.542,0,0,1,8.393,9.514,72.454,72.454,0,0,1,8.393-9.514c-.492-11.816-4.684-17.2-8.393-17.2s-7.9,5.386-8.393,17.2" transform="translate(-147.581 -1132.25)" fill="#1e1e28"/>
    <path id="Path_603" data-name="Path 603" d="M1054.547,1749.37l-.165-.178a71.793,71.793,0,0,0-10.1-8.866l-.579-.426.579-.426a71.837,71.837,0,0,0,10.106-8.865l.164-.178.243.009c12.754.474,18.463,5.093,18.463,9.46s-5.709,8.987-18.463,9.46Zm-9.069-9.47a72.54,72.54,0,0,1,9.515,8.393c11.815-.493,17.2-4.683,17.2-8.393s-5.387-7.9-17.2-8.393a72.5,72.5,0,0,1-9.515,8.393" transform="translate(-147.581 -1132.25)" fill="#1e1e28"/>
  </g>
</svg>
