<svg xmlns="http://www.w3.org/2000/svg" xmlns:xlink="http://www.w3.org/1999/xlink" width="101.478" height="101.478" viewBox="0 0 101.478 101.478">
  <defs>
    <clipPath id="clip-path">
      <path id="Path_609" data-name="Path 609" d="M1211.345,1571.712a.5.5,0,0,0-.353.146.494.494,0,0,0-.145.353,25.043,25.043,0,0,0,50.086,0,.5.5,0,0,0-.145-.353.507.507,0,0,0-.356-.145Zm49.087,0h0Z" fill="none"/>
    </clipPath>
  </defs>
  <g id="Group_365" data-name="Group 365" transform="translate(-1037.6 -389.225)">
    <rect id="Rectangle_723" data-name="Rectangle 723" width="100.478" height="100.478" transform="translate(1038.1 389.725)" fill="#e8ece2"/>
    <rect id="Rectangle_724" data-name="Rectangle 724" width="100.478" height="100.478" transform="translate(1038.1 389.725)" fill="none" stroke="#1e1e28" stroke-linejoin="bevel" stroke-width="1"/>
    <circle id="Ellipse_45" data-name="Ellipse 45" cx="34.386" cy="34.386" r="34.386" transform="translate(1053.953 405.578)" fill="none" stroke="#1e1e28" stroke-width="0.883"/>
    <path id="Path_606" data-name="Path 606" d="M1212.421,1558.541a7.75,7.75,0,0,0,7.495,7.635,7.556,7.556,0,0,0,5.444-2.166,7.689,7.689,0,0,0,2.368-5.469" transform="translate(-147.581 -1132.25)" fill="none" stroke="#1e1e28" stroke-linecap="round" stroke-linejoin="round" stroke-width="0.883"/>
    <path id="Path_607" data-name="Path 607" d="M1244.266,1558.541a7.75,7.75,0,0,0,7.495,7.635,7.556,7.556,0,0,0,5.444-2.166,7.693,7.693,0,0,0,2.368-5.469" transform="translate(-147.581 -1132.25)" fill="none" stroke="#1e1e28" stroke-linecap="round" stroke-linejoin="round" stroke-width="0.883"/>
    <g id="Group_339" data-name="Group 339" transform="translate(-147.581 -1132.25)">
      <g id="Group_338" data-name="Group 338" clip-path="url(#clip-path)">
        <path id="Path_608" data-name="Path 608" d="M1210.992,1606.952a.512.512,0,0,0,.355.145h49.087a.5.5,0,0,0,.354-.146.5.5,0,0,0,.145-.353h0a25.044,25.044,0,0,0-50.087,0,.5.5,0,0,0,.146.353" fill="#1e1e28"/>
      </g>
    </g>
    <path id="Path_610" data-name="Path 610" d="M1260.788,1571.856a.511.511,0,0,0-.355-.145h-49.087a.5.5,0,0,0-.354.146.5.5,0,0,0-.145.353h0a25.043,25.043,0,0,0,50.087,0A.5.5,0,0,0,1260.788,1571.856Z" transform="translate(-147.581 -1132.25)" fill="none" stroke="#1e1e28" stroke-width="0.883"/>
  </g>
</svg>
