<svg xmlns="http://www.w3.org/2000/svg" width="692" height="260.02" viewBox="0 0 692 260.02">
  <g id="Group_1323" data-name="Group 1323" transform="translate(-3369.325 -4323.315)">
    <g id="Group_1322" data-name="Group 1322" transform="translate(2755 3898.325)">
      <g id="Group_1258" data-name="Group 1258" transform="translate(-277.397 -29.387)">
        <path id="Path_8500" data-name="Path 8500" d="M1539.865,556.063a76.863,76.863,0,0,0-11.269-37.444l-14.271-23.613a82.434,82.434,0,0,0-70.879-40.629H1016.365c-43.486,0-80.019,34.5-81.435,76.9a78.954,78.954,0,0,0,17.264,52.284c.313.405,17.978,23.24,18.3,23.638a80.917,80.917,0,0,0,5.963,6.929,78.968,78.968,0,0,0,57.232,24.272H1460.3a79.615,79.615,0,0,0,79.569-82.334Z" transform="translate(0 0)" fill="#242430"/>
        <path id="Path_8501" data-name="Path 8501" d="M1011.544,466.367c-34.521,0-63.516,27.2-64.634,60.646a62.805,62.805,0,0,0,62.769,64.962h430.812a62.805,62.805,0,0,0,62.768-64.962c-1.116-33.441-30.111-60.646-64.634-60.646Z" transform="translate(4.821 4.821)" fill="#e8ece2"/>
        <g id="Group_1242" data-name="Group 1242" transform="translate(1397.841 486.521)">
          <g id="Group_1241" data-name="Group 1241">
            <path id="Path_8502" data-name="Path 8502" d="M1318.733,477.7a47.483,47.483,0,1,0,40.891,40.891A47.532,47.532,0,0,0,1318.733,477.7Zm25.006,55.43-9.715-2.6a1.372,1.372,0,0,0-1.544.639l-4.432,7.676a1.372,1.372,0,0,0,.217,1.657l7.119,7.119a1.387,1.387,0,0,1-.022,2,33.72,33.72,0,0,1-12.718,7.32,1.387,1.387,0,0,1-1.739-.977l-2.6-9.705a1.372,1.372,0,0,0-1.326-1.017h-8.863a1.373,1.373,0,0,0-1.326,1.017l-2.6,9.7a1.388,1.388,0,0,1-1.74.979,33.732,33.732,0,0,1-12.719-7.32,1.388,1.388,0,0,1-.021-2l7.117-7.119a1.373,1.373,0,0,0,.217-1.657l-4.431-7.676a1.374,1.374,0,0,0-1.545-.639l-9.714,2.6a1.378,1.378,0,0,1-1.7-1.005,32.353,32.353,0,0,1,0-14.7,1.378,1.378,0,0,1,1.7-1.005l9.714,2.6a1.376,1.376,0,0,0,1.545-.641l4.431-7.676a1.373,1.373,0,0,0-.217-1.657l-7.117-7.118a1.387,1.387,0,0,1,.022-1.994,33.733,33.733,0,0,1,12.719-7.32,1.388,1.388,0,0,1,1.739.979l2.6,9.7a1.374,1.374,0,0,0,1.326,1.018h8.863a1.373,1.373,0,0,0,1.326-1.018l2.6-9.7a1.388,1.388,0,0,1,1.739-.979,33.749,33.749,0,0,1,12.718,7.32,1.387,1.387,0,0,1,.021,1.994l-7.117,7.118a1.373,1.373,0,0,0-.217,1.657l4.432,7.676a1.374,1.374,0,0,0,1.544.641l9.715-2.6a1.38,1.38,0,0,1,1.706,1.005,32.462,32.462,0,0,1,0,14.7A1.38,1.38,0,0,1,1343.739,533.128Z" transform="translate(-1265.073 -477.303)" fill="#242430"/>
          </g>
        </g>
        <g id="Group_1244" data-name="Group 1244" transform="translate(967.027 486.521)">
          <g id="Group_1243" data-name="Group 1243">
            <path id="Path_8503" data-name="Path 8503" d="M1011.47,477.7a47.483,47.483,0,1,0,40.891,40.891A47.533,47.533,0,0,0,1011.47,477.7Zm25.006,55.43-9.715-2.6a1.372,1.372,0,0,0-1.544.639l-4.432,7.676A1.373,1.373,0,0,0,1021,540.5l7.118,7.119a1.392,1.392,0,0,1-.022,2,33.762,33.762,0,0,1-12.717,7.32,1.392,1.392,0,0,1-1.74-.977l-2.6-9.705a1.373,1.373,0,0,0-1.326-1.017h-8.863a1.371,1.371,0,0,0-1.326,1.017l-2.6,9.7a1.394,1.394,0,0,1-1.741.979,33.765,33.765,0,0,1-12.717-7.32,1.391,1.391,0,0,1-.021-2l7.117-7.119a1.373,1.373,0,0,0,.217-1.657l-4.432-7.676a1.371,1.371,0,0,0-1.544-.639l-9.714,2.6a1.379,1.379,0,0,1-1.7-1,32.374,32.374,0,0,1,0-14.7,1.379,1.379,0,0,1,1.7-1l9.714,2.6a1.373,1.373,0,0,0,1.544-.641l4.432-7.676a1.373,1.373,0,0,0-.217-1.657l-7.117-7.118a1.39,1.39,0,0,1,.022-1.994,33.759,33.759,0,0,1,12.716-7.32,1.4,1.4,0,0,1,1.741.979l2.6,9.7a1.372,1.372,0,0,0,1.326,1.018h8.863a1.374,1.374,0,0,0,1.326-1.018l2.6-9.7a1.393,1.393,0,0,1,1.74-.979,33.748,33.748,0,0,1,12.716,7.32,1.389,1.389,0,0,1,.022,1.994L1021,509.048a1.373,1.373,0,0,0-.217,1.657l4.432,7.676a1.374,1.374,0,0,0,1.544.641l9.715-2.6a1.379,1.379,0,0,1,1.705,1,32.424,32.424,0,0,1,0,14.7A1.379,1.379,0,0,1,1036.476,533.128Z" transform="translate(-957.809 -477.303)" fill="#242430"/>
          </g>
        </g>
        <g id="Group_1257" data-name="Group 1257" transform="translate(1083.646 488.823)">
          <g id="Group_1246" data-name="Group 1246" transform="translate(0 25.76)">
            <g id="Group_1245" data-name="Group 1245">
              <path id="Path_8504" data-name="Path 8504" d="M1074.242,497.317c15.842,0,27.935,9.31,32.411,23.458l12.013,38.124a1.373,1.373,0,0,1-1.309,1.786h-15.141a1.375,1.375,0,0,1-1.31-.958l-2.109-6.649a1.363,1.363,0,0,0-2.292-.524,30.282,30.282,0,0,1-22.263,9.341c-18.987,0-33.258-13.91-33.258-32.289S1055.255,497.317,1074.242,497.317Zm16.326,32.29c0-9.557-7.015-16.811-16.326-16.811-9.433,0-16.326,7.254-16.326,16.811s6.893,16.929,16.326,16.929C1083.553,546.536,1090.568,539.16,1090.568,529.607Z" transform="translate(-1040.984 -497.317)" fill="#242430"/>
            </g>
          </g>
          <g id="Group_1248" data-name="Group 1248" transform="translate(81.697 68.207)">
            <g id="Group_1247" data-name="Group 1247">
              <path id="Path_8505" data-name="Path 8505" d="M1099.252,538.6a11,11,0,1,1,11,11A10.891,10.891,0,0,1,1099.252,538.6Z" transform="translate(-1099.252 -527.591)" fill="#242430"/>
            </g>
          </g>
          <g id="Group_1250" data-name="Group 1250" transform="translate(109.787 0.848)">
            <g id="Group_1249" data-name="Group 1249">
              <path id="Path_8506" data-name="Path 8506" d="M1120.66,479.549h14.669a1.372,1.372,0,0,1,1.373,1.373v85.535a1.373,1.373,0,0,1-1.373,1.374H1120.66a1.374,1.374,0,0,1-1.374-1.374V480.922A1.373,1.373,0,0,1,1120.66,479.549Z" transform="translate(-1119.286 -479.549)" fill="#242430"/>
            </g>
          </g>
          <g id="Group_1252" data-name="Group 1252" transform="translate(136.257)">
            <g id="Group_1251" data-name="Group 1251">
              <path id="Path_8507" data-name="Path 8507" d="M1140.819,481.74c8.882-6.495,18.269-.74,18.269,7.724a10.353,10.353,0,0,1-10.4,10.524c-8.226,0-13.886-8.853-8.26-17.829A1.546,1.546,0,0,1,1140.819,481.74Zm.533,24.172h14.67a1.372,1.372,0,0,1,1.373,1.373V566.7a1.373,1.373,0,0,1-1.373,1.374h-14.67a1.373,1.373,0,0,1-1.373-1.374V507.285A1.372,1.372,0,0,1,1141.352,505.912Z" transform="translate(-1138.165 -478.944)" fill="#242430"/>
            </g>
          </g>
          <g id="Group_1254" data-name="Group 1254" transform="translate(162.522 26.968)">
            <g id="Group_1253" data-name="Group 1253">
              <path id="Path_8508" data-name="Path 8508" d="M1174.619,499.092l12.409,34.985a1.373,1.373,0,0,0,2.588,0l12.411-34.985a1.373,1.373,0,0,1,1.294-.914h13.963a1.372,1.372,0,0,1,1.281,1.865L1195.8,559.458a1.374,1.374,0,0,1-1.283.882h-13.468a1.373,1.373,0,0,1-1.282-.882l-22.773-59.415a1.374,1.374,0,0,1,1.283-1.865h15.053A1.374,1.374,0,0,1,1174.619,499.092Z" transform="translate(-1156.897 -498.178)" fill="#242430"/>
            </g>
          </g>
          <g id="Group_1256" data-name="Group 1256" transform="translate(224.676 25.76)">
            <g id="Group_1255" data-name="Group 1255">
              <path id="Path_8509" data-name="Path 8509" d="M1201.227,529.607c0-18.384,13.544-32.29,31.565-32.29,18.477,0,31.27,13.572,30.654,34.466a1.383,1.383,0,0,1-1.383,1.329h-43.035a1.384,1.384,0,0,0-1.332,1.741c2,7.433,8.2,12.651,16.063,12.651a17.3,17.3,0,0,0,11.916-4.54,1.353,1.353,0,0,1,1.868.053l8.987,8.888a1.371,1.371,0,0,1-.059,2.016,35.086,35.086,0,0,1-22.713,7.974C1215.136,561.9,1201.227,547.986,1201.227,529.607Zm42.719-9.8a1.37,1.37,0,0,0,1.227-2c-2.521-4.634-6.841-7.074-12.38-7.074-5.85,0-10.39,2.431-13.045,7.048a1.368,1.368,0,0,0,1.213,2.022Z" transform="translate(-1201.227 -497.317)" fill="#242430"/>
            </g>
          </g>
        </g>
      </g>
      <text id="every_song_is_a_world." data-name="every song is a world." transform="translate(614.325 609.01)" fill="#242430" font-size="60" font-family="NuformSans-Semibold, Nuform Sans" font-weight="600" letter-spacing="0.02em"><tspan x="72.795" y="60">every song is a world.</tspan></text>
    </g>
    <text id="alpha" transform="translate(3810.325 4464.334)" fill="#e8ece2" font-size="30" font-family="NuformSans-Regular, Nuform Sans" letter-spacing="0.02em"><tspan x="44.42" y="30">alpha</tspan></text>
  </g>
</svg>
