<svg xmlns="http://www.w3.org/2000/svg" width="101.478" height="101.478" viewBox="0 0 101.478 101.478">
  <g id="Group_366" data-name="Group 366" transform="translate(-910.993 -389.225)">
    <rect id="Rectangle_718" data-name="Rectangle 718" width="100.478" height="100.478" transform="translate(911.493 389.725)" fill="#e8ece2"/>
    <rect id="Rectangle_719" data-name="Rectangle 719" width="100.478" height="100.478" transform="translate(911.493 389.725)" fill="none" stroke="#1e1e28" stroke-linejoin="bevel" stroke-width="1"/>
    <path id="Path_604" data-name="Path 604" d="M1107.826,1588.036a16.1,16.1,0,1,1-16.1-16.1,16.1,16.1,0,0,1,16.1,16.1" transform="translate(-147.581 -1132.25)" fill="#1e1e28"/>
    <path id="Path_605" data-name="Path 605" d="M1107.826,1588.036a16.1,16.1,0,1,1-16.1-16.1A16.1,16.1,0,0,1,1107.826,1588.036Z" transform="translate(-147.581 -1132.25)" fill="none" stroke="#1e1e28" stroke-linejoin="bevel" stroke-width="0.829"/>
    <line id="Line_513" data-name="Line 513" y1="47.747" transform="translate(960.245 408.039)" fill="#e8ece2"/>
    <line id="Line_514" data-name="Line 514" y1="47.747" transform="translate(960.245 408.039)" fill="none" stroke="#1e1e28" stroke-linejoin="bevel" stroke-width="0.829"/>
    <rect id="Rectangle_720" data-name="Rectangle 720" width="35.18" height="20.315" transform="translate(960.245 408.039)" fill="#e8ece2"/>
    <rect id="Rectangle_721" data-name="Rectangle 721" width="35.18" height="20.315" transform="translate(960.245 408.039)" fill="none" stroke="#1e1e28" stroke-linejoin="round" stroke-width="0.829"/>
    <line id="Line_515" data-name="Line 515" x2="27.975" transform="translate(967.45 440.391)" fill="#e8ece2"/>
    <line id="Line_516" data-name="Line 516" x2="27.975" transform="translate(967.45 440.391)" fill="none" stroke="#1e1e28" stroke-linecap="round" stroke-linejoin="bevel" stroke-width="0.829"/>
    <line id="Line_517" data-name="Line 517" x2="27.975" transform="translate(967.45 446.171)" fill="#e8ece2"/>
    <line id="Line_518" data-name="Line 518" x2="27.975" transform="translate(967.45 446.171)" fill="none" stroke="#1e1e28" stroke-linecap="round" stroke-linejoin="bevel" stroke-width="0.829"/>
    <line id="Line_519" data-name="Line 519" x2="27.975" transform="translate(967.45 451.951)" fill="#e8ece2"/>
    <line id="Line_520" data-name="Line 520" x2="27.975" transform="translate(967.45 451.951)" fill="none" stroke="#1e1e28" stroke-linecap="round" stroke-linejoin="bevel" stroke-width="0.829"/>
    <line id="Line_521" data-name="Line 521" x2="27.975" transform="translate(967.45 457.731)" fill="#e8ece2"/>
    <line id="Line_522" data-name="Line 522" x2="27.975" transform="translate(967.45 457.731)" fill="none" stroke="#1e1e28" stroke-linecap="round" stroke-linejoin="bevel" stroke-width="0.829"/>
  </g>
</svg>
