<svg xmlns="http://www.w3.org/2000/svg" width="106.279" height="106.279" viewBox="0 0 106.279 106.279">
  <g id="Group_373" data-name="Group 373" transform="translate(-670.123 -450.1)">
    <rect id="Rectangle_637" data-name="Rectangle 637" width="105.279" height="105.279" transform="translate(670.623 450.6)" fill="#e8ece2"/>
    <rect id="Rectangle_638" data-name="Rectangle 638" width="105.279" height="105.279" transform="translate(670.623 450.6)" fill="none" stroke="#1e1e28" stroke-linecap="round" stroke-linejoin="round" stroke-width="1"/>
    <path id="Path_503" data-name="Path 503" d="M845.2,2776.1v17.477a8.582,8.582,0,0,0,6.146,8.228,8.323,8.323,0,0,0,1.376.285,8.747,8.747,0,0,0,1.057.066H873.7a8.726,8.726,0,0,0,1.052-.066.181.181,0,0,0,.053,0,8.58,8.58,0,0,0,7.474-8.508V2776.1a8.58,8.58,0,0,0-8.579-8.579h-19.92a8.579,8.579,0,0,0-8.579,8.579" transform="translate(-147.581 -2271.01)" fill="#e8ece2"/>
    <path id="Path_504" data-name="Path 504" d="M845.2,2776.1v17.477a8.582,8.582,0,0,0,6.146,8.228,8.323,8.323,0,0,0,1.376.285,8.747,8.747,0,0,0,1.057.066H873.7a8.726,8.726,0,0,0,1.052-.066.181.181,0,0,0,.053,0,8.58,8.58,0,0,0,7.474-8.508V2776.1a8.58,8.58,0,0,0-8.579-8.579h-19.92A8.579,8.579,0,0,0,845.2,2776.1Z" transform="translate(-147.581 -2271.01)" fill="none" stroke="#1e1e28" stroke-linecap="round" stroke-linejoin="round" stroke-width="1"/>
    <path id="Path_505" data-name="Path 505" d="M851.347,2801.809a8.334,8.334,0,0,0,1.375.285h3.543l4.491-10.89v10.89h4.662v-10.581l4.359,10.581h5.032l-.005,0a1.952,1.952,0,0,0-.076-.223l-6.5-15.769a2.329,2.329,0,0,0-3.045-1.262,2.229,2.229,0,0,0-.545.318,2.326,2.326,0,0,0-3.159.052,2.239,2.239,0,0,0-.616-.37,2.329,2.329,0,0,0-3.045,1.262s-5.592,13.573-6.469,15.712" transform="translate(-147.581 -2271.01)" fill="#1e1e28"/>
    <path id="Path_506" data-name="Path 506" d="M851.347,2801.809a8.334,8.334,0,0,0,1.375.285h3.543l4.491-10.89v10.89h4.662v-10.581l4.359,10.581h5.032l-.005,0a1.952,1.952,0,0,0-.076-.223l-6.5-15.769a2.329,2.329,0,0,0-3.045-1.262,2.229,2.229,0,0,0-.545.318,2.326,2.326,0,0,0-3.159.052,2.239,2.239,0,0,0-.616-.37,2.329,2.329,0,0,0-3.045,1.262S852.224,2799.67,851.347,2801.809Z" transform="translate(-147.581 -2271.01)" fill="none" stroke="#1e1e28" stroke-linejoin="round" stroke-width="1"/>
    <path id="Path_507" data-name="Path 507" d="M854.32,2786.647l24.154,8.9a5.71,5.71,0,0,0,7.309-3.372L890,2780.709a5.711,5.711,0,0,0-3.372-7.308l-24.155-8.9a5.709,5.709,0,0,0-7.308,3.377l-1.252,3.4-2.281,6.2-.688,1.86a5.708,5.708,0,0,0,3.372,7.308" transform="translate(-147.581 -2271.01)" fill="#e8ece2"/>
    <path id="Path_508" data-name="Path 508" d="M854.32,2786.647l24.154,8.9a5.71,5.71,0,0,0,7.309-3.372L890,2780.709a5.711,5.711,0,0,0-3.372-7.308l-24.155-8.9a5.709,5.709,0,0,0-7.308,3.377l-1.252,3.4-2.281,6.2-.688,1.86A5.708,5.708,0,0,0,854.32,2786.647Z" transform="translate(-147.581 -2271.01)" fill="none" stroke="#1e1e28" stroke-linecap="round" stroke-linejoin="round" stroke-width="1"/>
    <path id="Path_509" data-name="Path 509" d="M881.217,2771.193a7.922,7.922,0,0,0,5.477-14.868l-13.186-4.857a7.922,7.922,0,0,0-5.476,14.868Z" transform="translate(-147.581 -2271.01)" fill="#e8ece2"/>
    <path id="Path_510" data-name="Path 510" d="M881.217,2771.193a7.922,7.922,0,0,0,5.477-14.868l-13.186-4.857a7.922,7.922,0,0,0-5.476,14.868Z" transform="translate(-147.581 -2271.01)" fill="none" stroke="#1e1e28" stroke-linecap="round" stroke-linejoin="round" stroke-width="1"/>
    <path id="Path_511" data-name="Path 511" d="M903.077,2778.7l2.232-.366,3.518,1.3L901,2800.891l-3.518-1.3-1.461-1.726-8.582-10.136,2.535-6.882Z" transform="translate(-147.581 -2271.01)" fill="#e8ece2"/>
    <path id="Path_512" data-name="Path 512" d="M903.077,2778.7l2.232-.366,3.518,1.3L901,2800.891l-3.518-1.3-1.461-1.726-8.582-10.136,2.535-6.882Z" transform="translate(-147.581 -2271.01)" fill="none" stroke="#1e1e28" stroke-linecap="round" stroke-linejoin="round" stroke-width="1"/>
    <line id="Line_484" data-name="Line 484" x1="7.422" y2="20.15" transform="translate(749.659 507.716)" fill="#ff5b45"/>
    <line id="Line_485" data-name="Line 485" x1="7.422" y2="20.15" transform="translate(749.659 507.716)" fill="none" stroke="#1e1e28" stroke-linecap="round" stroke-linejoin="round" stroke-width="1"/>
    <line id="Line_486" data-name="Line 486" x1="6.012" y2="16.87" transform="translate(747.406 508.101)" fill="#ff5b45"/>
    <line id="Line_487" data-name="Line 487" x1="6.012" y2="16.87" transform="translate(747.406 508.101)" fill="none" stroke="#1e1e28" stroke-linecap="round" stroke-linejoin="round" stroke-width="1"/>
    <line id="Line_488" data-name="Line 488" x1="5.25" y2="14.252" transform="translate(745.21 508.519)" fill="#ff5b45"/>
    <line id="Line_489" data-name="Line 489" x1="5.25" y2="14.252" transform="translate(745.21 508.519)" fill="none" stroke="#1e1e28" stroke-linecap="round" stroke-linejoin="round" stroke-width="1"/>
    <line id="Line_490" data-name="Line 490" x1="4.104" y2="11.142" transform="translate(743.19 509.176)" fill="#ff5b45"/>
    <line id="Line_491" data-name="Line 491" x1="4.104" y2="11.142" transform="translate(743.19 509.176)" fill="none" stroke="#1e1e28" stroke-linecap="round" stroke-linejoin="round" stroke-width="1"/>
    <line id="Line_492" data-name="Line 492" x1="3.042" y2="8.258" transform="translate(741.166 509.552)" fill="#ff5b45"/>
    <line id="Line_493" data-name="Line 493" x1="3.042" y2="8.258" transform="translate(741.166 509.552)" fill="none" stroke="#1e1e28" stroke-linecap="round" stroke-linejoin="round" stroke-width="1"/>
    <path id="Path_513" data-name="Path 513" d="M881.765,2762.952a2.245,2.245,0,1,1,1.331,2.883,2.245,2.245,0,0,1-1.331-2.883" transform="translate(-147.581 -2271.01)" fill="#ff5b45"/>
    <path id="Path_514" data-name="Path 514" d="M881.765,2762.952a2.245,2.245,0,1,1,1.331,2.883A2.245,2.245,0,0,1,881.765,2762.952Z" transform="translate(-147.581 -2271.01)" fill="none" stroke="#1e1e28" stroke-linecap="round" stroke-linejoin="round" stroke-width="1"/>
    <path id="Path_515" data-name="Path 515" d="M880.657,2762.544a3.426,3.426,0,1,1,2.031,4.4,3.426,3.426,0,0,1-2.031-4.4" transform="translate(-147.581 -2271.01)" fill="#e8ece2"/>
    <path id="Path_516" data-name="Path 516" d="M880.657,2762.544a3.426,3.426,0,1,1,2.031,4.4A3.426,3.426,0,0,1,880.657,2762.544Z" transform="translate(-147.581 -2271.01)" fill="none" stroke="#1e1e28" stroke-linecap="round" stroke-linejoin="round" stroke-width="1"/>
    <path id="Path_517" data-name="Path 517" d="M868.721,2758.148a2.245,2.245,0,1,1,1.331,2.883,2.246,2.246,0,0,1-1.331-2.883" transform="translate(-147.581 -2271.01)" fill="#ff5b45"/>
    <path id="Path_518" data-name="Path 518" d="M868.721,2758.148a2.245,2.245,0,1,1,1.331,2.883A2.246,2.246,0,0,1,868.721,2758.148Z" transform="translate(-147.581 -2271.01)" fill="none" stroke="#1e1e28" stroke-linecap="round" stroke-linejoin="round" stroke-width="1"/>
    <path id="Path_519" data-name="Path 519" d="M867.614,2757.74a3.426,3.426,0,1,1,2.031,4.4,3.426,3.426,0,0,1-2.031-4.4" transform="translate(-147.581 -2271.01)" fill="#e8ece2"/>
    <path id="Path_520" data-name="Path 520" d="M867.614,2757.74a3.426,3.426,0,1,1,2.031,4.4A3.426,3.426,0,0,1,867.614,2757.74Z" transform="translate(-147.581 -2271.01)" fill="none" stroke="#1e1e28" stroke-linecap="round" stroke-linejoin="round" stroke-width="1"/>
    <path id="Path_521" data-name="Path 521" d="M851.636,2777.479l24.595,2.02-22.314-8.219Z" transform="translate(-147.581 -2271.01)" fill="#1e1e28"/>
    <path id="Path_522" data-name="Path 522" d="M851.636,2777.479l24.595,2.02-22.314-8.219Z" transform="translate(-147.581 -2271.01)" fill="none" stroke="#1e1e28" stroke-linejoin="round" stroke-width="1"/>
    <path id="Path_523" data-name="Path 523" d="M855.809,2766.841l5.12,1.886.249.092,14.862,5.069a3.086,3.086,0,0,1-2.133,5.79l-14.862-5.069-8.59-3.164,3.291-8.932c1.389.511,2.129,2.226,2.063,4.328" transform="translate(-147.581 -2271.01)" fill="#e8ece2"/>
    <path id="Path_524" data-name="Path 524" d="M855.809,2766.841l5.12,1.886.249.092,14.862,5.069a3.086,3.086,0,0,1-2.133,5.79l-14.862-5.069-8.59-3.164,3.291-8.932C855.135,2763.024,855.875,2764.739,855.809,2766.841Z" transform="translate(-147.581 -2271.01)" fill="none" stroke="#1e1e28" stroke-linecap="round" stroke-linejoin="round" stroke-width="1"/>
    <line id="Line_494" data-name="Line 494" x2="23.088" y2="8.042" transform="translate(706.848 498.525)" fill="none" stroke="#1e1e28" stroke-linecap="round" stroke-linejoin="round" stroke-width="1"/>
    <path id="Path_525" data-name="Path 525" d="M846.588,2806.92a6.421,6.421,0,0,0-6.406,6.406,6.406,6.406,0,1,1,0-12.812,6.421,6.421,0,0,0,6.406,6.406" transform="translate(-147.581 -2271.01)" fill="#e8ece2"/>
    <path id="Path_526" data-name="Path 526" d="M846.588,2806.92a6.421,6.421,0,0,0-6.406,6.406,6.406,6.406,0,1,1,0-12.812A6.421,6.421,0,0,0,846.588,2806.92Z" transform="translate(-147.581 -2271.01)" fill="none" stroke="#1e1e28" stroke-linecap="round" stroke-linejoin="round" stroke-width="1"/>
    <path id="Path_527" data-name="Path 527" d="M906.163,2751.785a5.67,5.67,0,0,0-5.657,5.657,5.657,5.657,0,1,1,0-11.314,5.67,5.67,0,0,0,5.657,5.657" transform="translate(-147.581 -2271.01)" fill="#e8ece2"/>
    <path id="Path_528" data-name="Path 528" d="M906.163,2751.785a5.67,5.67,0,0,0-5.657,5.657,5.657,5.657,0,1,1,0-11.314A5.67,5.67,0,0,0,906.163,2751.785Z" transform="translate(-147.581 -2271.01)" fill="none" stroke="#1e1e28" stroke-linecap="round" stroke-linejoin="round" stroke-width="1"/>
    <path id="Path_529" data-name="Path 529" d="M850.171,2751.242l8.539-.13-7.6-3.892,5.947-6.13-8.128,2.623-.129-8.539-3.893,7.6-6.13-5.946,2.623,8.128-8.539.129,7.6,3.893-5.947,6.13,8.128-2.623.13,8.539,3.892-7.6,6.13,5.947Z" transform="translate(-147.581 -2271.01)" fill="#e8ece2"/>
    <path id="Path_530" data-name="Path 530" d="M850.171,2751.242l8.539-.13-7.6-3.892,5.947-6.13-8.128,2.623-.129-8.539-3.893,7.6-6.13-5.946,2.623,8.128-8.539.129,7.6,3.893-5.947,6.13,8.128-2.623.13,8.539,3.892-7.6,6.13,5.947Z" transform="translate(-147.581 -2271.01)" fill="none" stroke="#1e1e28" stroke-linecap="round" stroke-linejoin="round" stroke-width="1"/>
  </g>
</svg>
