<svg xmlns="http://www.w3.org/2000/svg" width="106.279" height="106.279" viewBox="0 0 106.279 106.279">
  <g id="Group_372" data-name="Group 372" transform="translate(-828.291 -450.1)">
    <rect id="Rectangle_639" data-name="Rectangle 639" width="105.279" height="105.279" transform="translate(828.791 450.6)" fill="#e8ece2"/>
    <rect id="Rectangle_640" data-name="Rectangle 640" width="105.279" height="105.279" transform="translate(828.791 450.6)" fill="none" stroke="#1e1e28" stroke-linecap="round" stroke-linejoin="round" stroke-width="1"/>
    <path id="Path_531" data-name="Path 531" d="M1025.763,2769.551a14.712,14.712,0,1,1-14.712-14.712,14.712,14.712,0,0,1,14.712,14.712" transform="translate(-147.581 -2271.01)" fill="#e8ece2"/>
    <circle id="Ellipse_34" data-name="Ellipse 34" cx="14.712" cy="14.712" r="14.712" transform="translate(848.759 483.829)" fill="none" stroke="#1e1e28" stroke-linecap="round" stroke-linejoin="round" stroke-width="1"/>
    <path id="Path_532" data-name="Path 532" d="M1036.1,2781.07a9.579,9.579,0,1,1-9.579-9.579,9.579,9.579,0,0,1,9.579,9.579" transform="translate(-147.581 -2271.01)" fill="#e8ece2"/>
    <circle id="Ellipse_35" data-name="Ellipse 35" cx="9.579" cy="9.579" r="9.579" transform="translate(869.364 500.481)" fill="none" stroke="#1e1e28" stroke-linecap="round" stroke-linejoin="round" stroke-width="1"/>
    <path id="Path_533" data-name="Path 533" d="M1058.791,2771.2a14.712,14.712,0,1,1-14.712-14.712,14.712,14.712,0,0,1,14.712,14.712" transform="translate(-147.581 -2271.01)" fill="#e8ece2"/>
    <circle id="Ellipse_36" data-name="Ellipse 36" cx="14.712" cy="14.712" r="14.712" transform="translate(881.786 485.482)" fill="none" stroke="#1e1e28" stroke-linecap="round" stroke-linejoin="round" stroke-width="1"/>
    <path id="Path_534" data-name="Path 534" d="M1028.043,2761.708l8.011,8.052-26.073,23.775-5.507-5.681Z" transform="translate(-147.581 -2271.01)" fill="#1e1e28"/>
    <path id="Path_535" data-name="Path 535" d="M1028.043,2761.708l8.011,8.052-26.073,23.775-5.507-5.681Z" transform="translate(-147.581 -2271.01)" fill="none" stroke="#1e1e28" stroke-linecap="round" stroke-linejoin="round" stroke-width="1"/>
    <path id="Path_536" data-name="Path 536" d="M1040.768,2763.8a9.453,9.453,0,1,1-11.756-6.364,9.452,9.452,0,0,1,11.756,6.364" transform="translate(-147.581 -2271.01)" fill="#e8ece2"/>
    <path id="Path_537" data-name="Path 537" d="M1040.768,2763.8a9.453,9.453,0,1,1-11.756-6.364A9.452,9.452,0,0,1,1040.768,2763.8Z" transform="translate(-147.581 -2271.01)" fill="none" stroke="#1e1e28" stroke-linecap="round" stroke-linejoin="round" stroke-width="1"/>
    <line id="Line_495" data-name="Line 495" y1="16.041" x2="8.684" transform="translate(879.984 487.474)" fill="#e8ece2"/>
    <line id="Line_496" data-name="Line 496" y1="16.041" x2="8.684" transform="translate(879.984 487.474)" fill="none" stroke="#1e1e28" stroke-linecap="round" stroke-linejoin="round" stroke-width="1"/>
    <line id="Line_497" data-name="Line 497" y1="12.958" x2="7.015" transform="translate(885.495 491.548)" fill="#e8ece2"/>
    <line id="Line_498" data-name="Line 498" y1="12.958" x2="7.015" transform="translate(885.495 491.548)" fill="none" stroke="#1e1e28" stroke-linecap="round" stroke-linejoin="round" stroke-width="1"/>
    <line id="Line_499" data-name="Line 499" y1="12.97" x2="7.055" transform="translate(875.784 486.448)" fill="#e8ece2"/>
    <line id="Line_500" data-name="Line 500" y1="12.97" x2="7.055" transform="translate(875.784 486.448)" fill="none" stroke="#1e1e28" stroke-linecap="round" stroke-linejoin="round" stroke-width="1"/>
    <line id="Line_501" data-name="Line 501" x1="16.041" y1="8.684" transform="translate(876.128 491.293)" fill="#e8ece2"/>
    <line id="Line_502" data-name="Line 502" x1="16.041" y1="8.684" transform="translate(876.128 491.293)" fill="none" stroke="#1e1e28" stroke-linecap="round" stroke-linejoin="round" stroke-width="1"/>
    <line id="Line_503" data-name="Line 503" x1="12.645" y1="6.845" transform="translate(875.307 496.93)" fill="#e8ece2"/>
    <line id="Line_504" data-name="Line 504" x1="12.645" y1="6.845" transform="translate(875.307 496.93)" fill="none" stroke="#1e1e28" stroke-linecap="round" stroke-linejoin="round" stroke-width="1"/>
    <line id="Line_505" data-name="Line 505" x1="12.958" y1="7.015" transform="translate(880.343 487.19)" fill="#e8ece2"/>
    <line id="Line_506" data-name="Line 506" x1="12.958" y1="7.015" transform="translate(880.343 487.19)" fill="none" stroke="#1e1e28" stroke-linecap="round" stroke-linejoin="round" stroke-width="1"/>
    <path id="Path_538" data-name="Path 538" d="M1069.038,2749.438a8.49,8.49,0,0,0-8.471,8.47,8.47,8.47,0,1,1,0-16.941,8.491,8.491,0,0,0,8.471,8.471" transform="translate(-147.581 -2271.01)" fill="#e8ece2"/>
    <path id="Path_539" data-name="Path 539" d="M1069.038,2749.438a8.49,8.49,0,0,0-8.471,8.47,8.47,8.47,0,1,1,0-16.941A8.491,8.491,0,0,0,1069.038,2749.438Z" transform="translate(-147.581 -2271.01)" fill="none" stroke="#1e1e28" stroke-linecap="round" stroke-linejoin="round" stroke-width="1"/>
    <path id="Path_540" data-name="Path 540" d="M1040.542,2804.467a7.482,7.482,0,0,0-7.465,7.465,7.465,7.465,0,1,1,0-14.93,7.482,7.482,0,0,0,7.465,7.465" transform="translate(-147.581 -2271.01)" fill="#e8ece2"/>
    <path id="Path_541" data-name="Path 541" d="M1040.542,2804.467a7.482,7.482,0,0,0-7.465,7.465,7.465,7.465,0,1,1,0-14.93A7.482,7.482,0,0,0,1040.542,2804.467Z" transform="translate(-147.581 -2271.01)" fill="none" stroke="#1e1e28" stroke-linecap="round" stroke-linejoin="round" stroke-width="1"/>
    <path id="Path_542" data-name="Path 542" d="M1004.474,2744.312a7.762,7.762,0,0,0-7.744,7.744,7.744,7.744,0,1,1,0-15.488,7.762,7.762,0,0,0,7.744,7.744" transform="translate(-147.581 -2271.01)" fill="#e8ece2"/>
    <circle id="Ellipse_37" data-name="Ellipse 37" cx="7.744" cy="7.744" r="7.744" transform="translate(841.406 465.558)" fill="none" stroke="#1e1e28" stroke-linecap="round" stroke-linejoin="round" stroke-width="1"/>
  </g>
</svg>
