<svg xmlns="http://www.w3.org/2000/svg" width="106.279" height="106.279" viewBox="0 0 106.279 106.279">
  <g id="Group_371" data-name="Group 371" transform="translate(-986.46 -450.1)">
    <rect id="Rectangle_641" data-name="Rectangle 641" width="105.279" height="105.279" transform="translate(986.96 450.6)" fill="#e8ece2"/>
    <rect id="Rectangle_642" data-name="Rectangle 642" width="105.279" height="105.279" transform="translate(986.96 450.6)" fill="none" stroke="#1e1e28" stroke-linecap="round" stroke-linejoin="round" stroke-width="1"/>
    <path id="Path_543" data-name="Path 543" d="M1159.2,2759.066l-10.973,16.363v10.4l5.486,3.85h14.727l2.5,5.968h5.39l1.925,6.16h3.08l5.968-7.507h16.858l1.541,8.855h2.969v-12.9l9.433-5.583v-6.93l8.031-6.78-1.347-4.043-12.652,5.818.577-7.893-4.813,2.118-3.849,4.235v-12.321Z" transform="translate(-147.581 -2271.01)" fill="#e8ece2" fill-rule="evenodd"/>
    <path id="Path_544" data-name="Path 544" d="M1159.2,2759.066l-10.973,16.363v10.4l5.486,3.85h14.727l2.5,5.968h5.39l1.925,6.16h3.08l5.968-7.507h16.858l1.541,8.855h2.969v-12.9l9.433-5.583v-6.93l8.031-6.78-1.347-4.043-12.652,5.818.577-7.893-4.813,2.118-3.849,4.235v-12.321Z" transform="translate(-147.581 -2271.01)" fill="none" stroke="#1e1e28" stroke-linecap="round" stroke-linejoin="round" stroke-width="1"/>
    <path id="Path_545" data-name="Path 545" d="M1218.105,2779.016l-9.433,5.583v12.9h-3.465l-1.54-8.856H1187.3l-5.968,7.508h-3.08l-1.925-6.16h-5.39l-2.5-5.968h-14.727l-5.486-3.85v5.652l5.486,3.85h14.821l2.409,5.968h5.39l1.925,6.161h3.08l5.7-7.406H1203.8l1.905,8.753h2.969l.952-13.429,8.481-5.052Z" transform="translate(-147.581 -2271.01)" fill="#1e1e28" fill-rule="evenodd"/>
    <path id="Path_546" data-name="Path 546" d="M1218.105,2779.016l-9.433,5.583v12.9h-3.465l-1.54-8.856H1187.3l-5.968,7.508h-3.08l-1.925-6.16h-5.39l-2.5-5.968h-14.727l-5.486-3.85v5.652l5.486,3.85h14.821l2.409,5.968h5.39l1.925,6.161h3.08l5.7-7.406H1203.8l1.905,8.753h2.969l.952-13.429,8.481-5.052Z" transform="translate(-147.581 -2271.01)" fill="none" stroke="#1e1e28" stroke-linejoin="bevel" stroke-width="1"/>
    <path id="Path_547" data-name="Path 547" d="M1176.517,2765.12a6.893,6.893,0,1,1-6.894,6.894,6.894,6.894,0,0,1,6.894-6.894" transform="translate(-147.581 -2271.01)" fill="#e8ece2" fill-rule="evenodd"/>
    <path id="Path_548" data-name="Path 548" d="M1176.517,2765.12a6.893,6.893,0,1,1-6.894,6.894A6.894,6.894,0,0,1,1176.517,2765.12Z" transform="translate(-147.581 -2271.01)" fill="none" stroke="#1e1e28" stroke-linecap="round" stroke-linejoin="round" stroke-width="1"/>
    <path id="Path_549" data-name="Path 549" d="M1166.521,2761.493a2.521,2.521,0,1,1-2.521,2.521,2.522,2.522,0,0,1,2.521-2.521" transform="translate(-147.581 -2271.01)" fill="#e8ece2" fill-rule="evenodd"/>
    <path id="Path_550" data-name="Path 550" d="M1166.521,2761.493a2.521,2.521,0,1,1-2.521,2.521A2.522,2.522,0,0,1,1166.521,2761.493Z" transform="translate(-147.581 -2271.01)" fill="none" stroke="#1e1e28" stroke-linecap="round" stroke-linejoin="round" stroke-width="1"/>
    <path id="Path_551" data-name="Path 551" d="M1189.855,2773.955a4.342,4.342,0,1,1-4.342,4.342,4.343,4.343,0,0,1,4.342-4.342" transform="translate(-147.581 -2271.01)" fill="#e8ece2" fill-rule="evenodd"/>
    <path id="Path_552" data-name="Path 552" d="M1189.855,2773.955a4.342,4.342,0,1,1-4.342,4.342A4.343,4.343,0,0,1,1189.855,2773.955Z" transform="translate(-147.581 -2271.01)" fill="none" stroke="#1e1e28" stroke-linecap="round" stroke-linejoin="round" stroke-width="1"/>
    <path id="Path_553" data-name="Path 553" d="M1159.725,2767.158a6.8,6.8,0,1,1-6.8,6.8,6.8,6.8,0,0,1,6.8-6.8" transform="translate(-147.581 -2271.01)" fill="#e8ece2" fill-rule="evenodd"/>
    <path id="Path_554" data-name="Path 554" d="M1159.725,2767.158a6.8,6.8,0,1,1-6.8,6.8A6.8,6.8,0,0,1,1159.725,2767.158Z" transform="translate(-147.581 -2271.01)" fill="none" stroke="#1e1e28" stroke-linecap="round" stroke-linejoin="round" stroke-width="1"/>
    <path id="Path_555" data-name="Path 555" d="M1208.541,2775.259a2.527,2.527,0,1,1-2.527,2.527,2.526,2.526,0,0,1,2.527-2.527" transform="translate(-147.581 -2271.01)" fill="#e8ece2" fill-rule="evenodd"/>
    <circle id="Ellipse_38" data-name="Ellipse 38" cx="2.527" cy="2.527" r="2.527" transform="translate(1058.434 504.249)" fill="none" stroke="#1e1e28" stroke-linecap="round" stroke-linejoin="round" stroke-width="1"/>
    <path id="Path_556" data-name="Path 556" d="M1194.2,2762.049a3.07,3.07,0,1,1-3.071,3.071,3.071,3.071,0,0,1,3.071-3.071" transform="translate(-147.581 -2271.01)" fill="#e8ece2" fill-rule="evenodd"/>
    <path id="Path_557" data-name="Path 557" d="M1194.2,2762.049a3.07,3.07,0,1,1-3.071,3.071A3.071,3.071,0,0,1,1194.2,2762.049Z" transform="translate(-147.581 -2271.01)" fill="none" stroke="#1e1e28" stroke-linecap="round" stroke-linejoin="round" stroke-width="1"/>
    <path id="Path_558" data-name="Path 558" d="M1179.588,2781.451a3.071,3.071,0,1,1-3.072,3.071,3.071,3.071,0,0,1,3.072-3.071" transform="translate(-147.581 -2271.01)" fill="#e8ece2" fill-rule="evenodd"/>
    <path id="Path_559" data-name="Path 559" d="M1179.588,2781.451a3.071,3.071,0,1,1-3.072,3.071A3.071,3.071,0,0,1,1179.588,2781.451Z" transform="translate(-147.581 -2271.01)" fill="none" stroke="#1e1e28" stroke-linecap="round" stroke-linejoin="round" stroke-width="1"/>
    <path id="Path_560" data-name="Path 560" d="M1226.137,2749.952a8.239,8.239,0,0,0-8.24,8.24,8.24,8.24,0,1,1,0-16.48,8.239,8.239,0,0,0,8.24,8.24" transform="translate(-147.581 -2271.01)" fill="#e8ece2"/>
    <path id="Path_561" data-name="Path 561" d="M1226.137,2749.952a8.239,8.239,0,0,0-8.24,8.24,8.24,8.24,0,1,1,0-16.48A8.239,8.239,0,0,0,1226.137,2749.952Z" transform="translate(-147.581 -2271.01)" fill="none" stroke="#1e1e28" stroke-linecap="round" stroke-linejoin="round" stroke-width="1"/>
    <path id="Path_562" data-name="Path 562" d="M1164,2801.487a5.3,5.3,0,0,1-10.608,0,5.3,5.3,0,0,1,10.608,0" transform="translate(-147.581 -2271.01)" fill="#e8ece2"/>
    <path id="Path_563" data-name="Path 563" d="M1164,2801.487a5.3,5.3,0,0,1-10.608,0,5.3,5.3,0,0,1,10.608,0Z" transform="translate(-147.581 -2271.01)" fill="none" stroke="#1e1e28" stroke-linecap="round" stroke-linejoin="round" stroke-width="1"/>
  </g>
</svg>
