<svg width="66" height="66" viewBox="0 0 66 66" fill="none" xmlns="http://www.w3.org/2000/svg">
<path d="M65 43.0002C65 43.0002 51 43.0003 51 19.0002C51 -4.99993 15 -5.00021 15 19.0002C15 43.0006 1 43.0002 1 43.0002L1 49.0002L65 49.0002L65 43.0002Z" fill="#FBD200"/>
<path d="M51 19.0002L51.5 19.0002L51 19.0002ZM65 43.0002L65.5 43.0002L65.5 42.5002L65 42.5002L65 43.0002ZM1 43.0002L1.00002 42.5002L0.500002 42.5002L0.500002 43.0002L1 43.0002ZM1 49.0002L0.500002 49.0002L0.500002 49.5002L1 49.5002L1 49.0002ZM65 49.0002L65 49.5002L65.5 49.5002L65.5 49.0002L65 49.0002ZM50.5 19.0002C50.5 31.0992 54.0325 37.258 57.6746 40.3799C59.4884 41.9346 61.306 42.7148 62.6751 43.106C63.3595 43.3015 63.9322 43.4 64.3377 43.4496C64.5405 43.4744 64.7016 43.4871 64.8143 43.4935C64.8706 43.4967 64.9148 43.4984 64.946 43.4993C64.9616 43.4997 64.974 43.4999 64.9831 43.5C64.9876 43.5001 64.9912 43.5001 64.9941 43.5002C64.9955 43.5002 64.9967 43.5002 64.9977 43.5002C64.9982 43.5002 64.9988 43.5002 64.999 43.5002C64.9995 43.5002 65 43.5002 65 43.0002C65 42.5002 65.0004 42.5002 65.0007 42.5002C65.0007 42.5002 65.001 42.5002 65.001 42.5002C65.0012 42.5002 65.0011 42.5002 65.0008 42.5002C65.0003 42.5002 64.9989 42.5002 64.9966 42.5001C64.9922 42.5001 64.9845 42.4999 64.9737 42.4996C64.9519 42.499 64.9175 42.4978 64.8713 42.4951C64.7788 42.4899 64.6392 42.4791 64.4592 42.457C64.099 42.4129 63.578 42.3239 62.9499 42.1444C61.694 41.7856 60.0116 41.0659 58.3254 39.6206C54.9675 36.7425 51.5 30.9013 51.5 19.0002L50.5 19.0002ZM14.5 19.0002C14.5 30.9015 11.0325 36.7426 7.67461 39.6207C5.98843 41.066 4.30604 41.7857 3.05015 42.1445C2.42197 42.3239 1.901 42.4129 1.54081 42.457C1.36078 42.4791 1.22117 42.4899 1.12872 42.4951C1.0825 42.4978 1.0481 42.499 1.02636 42.4996C1.01549 42.4999 1.00779 42.5001 1.00336 42.5001C1.00115 42.5002 0.999754 42.5002 0.999192 42.5002C0.998911 42.5002 0.998839 42.5002 0.998975 42.5002C0.999043 42.5002 0.999305 42.5002 0.999338 42.5002C0.999651 42.5002 1.00002 42.5002 1 43.0002C0.999987 43.5002 1.00046 43.5002 1.00099 43.5002C1.00123 43.5002 1.00181 43.5002 1.00231 43.5002C1.00329 43.5002 1.0045 43.5002 1.00591 43.5002C1.00874 43.5001 1.01242 43.5001 1.01694 43.5C1.02597 43.4999 1.03835 43.4997 1.05397 43.4993C1.08521 43.4984 1.12942 43.4967 1.18574 43.4935C1.29836 43.4871 1.45953 43.4744 1.66232 43.4496C2.06775 43.4 2.64053 43.3015 3.32485 43.106C4.69396 42.7149 6.51157 41.9347 8.32539 40.38C11.9675 37.2582 15.5 31.0993 15.5 19.0002L14.5 19.0002ZM51.5 19.0002C51.5 12.8645 49.1942 8.22595 45.7072 5.12638C42.2294 2.035 37.6065 0.500017 33 0.499999C28.3935 0.499981 23.7706 2.03493 20.2928 5.12631C16.8059 8.22586 14.5 12.8644 14.5 19.0002L15.5 19.0002C15.5 13.1358 17.6942 8.77421 20.9572 5.87371C24.2294 2.96503 28.6065 1.49998 33 1.5C37.3935 1.50002 41.7706 2.9651 45.0428 5.87379C48.3059 8.7743 50.5 13.1358 50.5 19.0002L51.5 19.0002ZM0.500002 43.0002L0.500002 49.0002L1.5 49.0002L1.5 43.0002L0.500002 43.0002ZM1 49.5002L65 49.5002L65 48.5002L1 48.5002L1 49.5002ZM65.5 49.0002L65.5 43.0002L64.5 43.0002L64.5 49.0002L65.5 49.0002ZM44.5 53C44.5 59.3513 39.3513 64.5 33 64.5L33 65.5C39.9036 65.5 45.5 59.9036 45.5 53L44.5 53ZM33 64.5C26.6487 64.5 21.5 59.3513 21.5 53L20.5 53C20.5 59.9036 26.0964 65.5 33 65.5L33 64.5Z" fill="#242430"/>
</svg>
