<svg width="138" height="44" viewBox="0 0 138 44" fill="none" xmlns="http://www.w3.org/2000/svg">
<rect x="65.002" y="4" width="72" height="36" fill="#53E1AD" stroke="#242430"/>
<rect x="1" y="1" width="64" height="41.9694" rx="2" fill="#E8ECE2" stroke="#242430"/>
<rect x="11.0078" y="13.0039" width="44.0394" height="12.002" rx="6.001" fill="#53E1AD" stroke="#242430"/>
<ellipse cx="16.9883" cy="18.9995" rx="6" ry="5.99563" fill="#FBD200" stroke="#242430"/>
<line y1="-0.5" x2="11.9946" y2="-0.5" transform="matrix(0.707364 0.706849 -0.707364 0.706849 12.1367 15.3828)" stroke="#242430"/>
<line y1="-0.5" x2="11.9946" y2="-0.5" transform="matrix(0.707364 -0.706849 0.707364 0.706849 13.3691 23.832)" stroke="#242430"/>
<ellipse cx="49.0059" cy="18.9995" rx="6" ry="5.99563" fill="#FBD200" stroke="#242430"/>
<line y1="-0.5" x2="11.9946" y2="-0.5" transform="matrix(0.707364 0.706849 -0.707364 0.706849 44.1543 15.3828)" stroke="#242430"/>
<line y1="-0.5" x2="11.9946" y2="-0.5" transform="matrix(0.707364 -0.706849 0.707364 0.706849 45.3594 23.832)" stroke="#242430"/>
<path d="M14.4852 34.2646L10.9883 43.0005L54.9883 43.0005L51.4913 34.2646C51.1875 33.5055 50.4522 33.0078 49.6346 33.0078L16.342 33.0078C15.5244 33.0078 14.7891 33.5055 14.4852 34.2646Z" fill="#FF665C" stroke="#242430" stroke-linejoin="round"/>
</svg>
