<svg width="31" height="24" viewBox="0 0 31 24" fill="none" xmlns="http://www.w3.org/2000/svg">
<g clip-path="url(#clip0_2212_4221)">
<path d="M26.655 2.16916C24.6482 1.24832 22.4961 0.569884 20.246 0.181317C20.205 0.173818 20.1641 0.192559 20.143 0.230042C19.8662 0.722308 19.5596 1.36451 19.3449 1.86928C16.9248 1.50695 14.517 1.50695 12.1465 1.86928C11.9318 1.35329 11.6141 0.722308 11.3361 0.230042C11.315 0.19381 11.274 0.175069 11.233 0.181317C8.98416 0.568643 6.8321 1.24708 4.82398 2.16916C4.8066 2.17665 4.7917 2.18916 4.78181 2.20539C0.699787 8.30384 -0.418449 14.2524 0.13012 20.1272C0.132602 20.1559 0.148736 20.1834 0.171077 20.2009C2.86428 22.1787 5.4731 23.3794 8.03348 24.1753C8.07446 24.1878 8.11787 24.1728 8.14395 24.1391C8.74961 23.312 9.2895 22.4399 9.7524 21.5228C9.77972 21.4691 9.75364 21.4053 9.69781 21.3841C8.84145 21.0593 8.02603 20.6632 7.24165 20.2134C7.17961 20.1772 7.17464 20.0884 7.23171 20.046C7.39678 19.9223 7.56188 19.7936 7.7195 19.6636C7.74801 19.6399 7.78775 19.6349 7.82127 19.6499C12.9743 22.0026 18.5531 22.0026 23.6453 19.6499C23.6789 19.6337 23.7186 19.6387 23.7484 19.6624C23.906 19.7923 24.0711 19.9223 24.2374 20.046C24.2945 20.0884 24.2907 20.1772 24.2287 20.2134C23.4443 20.6719 22.6289 21.0593 21.7713 21.3829C21.7155 21.4041 21.6906 21.4691 21.7179 21.5228C22.1908 22.4386 22.7307 23.3107 23.3251 24.1378C23.35 24.1728 23.3946 24.1878 23.4356 24.1753C26.0084 23.3794 28.6172 22.1787 31.3104 20.2009C31.334 20.1834 31.3489 20.1572 31.3514 20.1284C32.0079 13.3365 30.2517 7.43675 26.696 2.20663C26.6873 2.18916 26.6724 2.17665 26.655 2.16916ZM10.5219 16.5501C8.9705 16.5501 7.69218 15.1257 7.69218 13.3765C7.69218 11.6273 8.94571 10.203 10.5219 10.203C12.1105 10.203 13.3765 11.6398 13.3516 13.3765C13.3516 15.1257 12.0981 16.5501 10.5219 16.5501ZM20.9844 16.5501C19.433 16.5501 18.1547 15.1257 18.1547 13.3765C18.1547 11.6273 19.4082 10.203 20.9844 10.203C22.5731 10.203 23.839 11.6398 23.8142 13.3765C23.8142 15.1257 22.5731 16.5501 20.9844 16.5501Z" fill="#242430"/>
</g>
<defs>
<clipPath id="clip0_2212_4221">
<rect width="30.9818" height="24" fill="white"/>
</clipPath>
</defs>
</svg>
