<?xml version="1.0" encoding="utf-8"?>
<!-- Generator: Adobe Illustrator 26.4.0, SVG Export Plug-In . SVG Version: 6.00 Build 0)  -->
<svg version="1.1" id="Layer_1" xmlns="http://www.w3.org/2000/svg" xmlns:xlink="http://www.w3.org/1999/xlink" x="0px" y="0px"
	 viewBox="0 0 448 448" style="enable-background:new 0 0 448 448;" xml:space="preserve">
<style type="text/css">
	.st0{fill:#242430;}
</style>
<path class="st0" d="M224,31.9c-106.3,0-192.5,86.2-192.5,192.5S117.7,417,224,417s192.5-86.2,192.5-192.5S330.3,31.9,224,31.9z
	 M152.7,308c-46.3,0-83.9-37.8-83.9-84.5s37.6-84.5,83.9-84.5s83.9,37.8,83.9,84.5S199,308,152.7,308z M286.7,303.1
	c-23.2,0-41.9-35.6-41.9-79.5s18.8-79.5,41.9-79.5s41.9,35.6,41.9,79.5h0C328.6,267.5,309.8,303.1,286.7,303.1z M351.5,294.8
	c-8.1,0-14.7-31.9-14.7-71.2c0-39.3,6.6-71.2,14.7-71.2c8.1,0,14.8,31.9,14.8,71.2C366.3,262.9,359.7,294.8,351.5,294.8z"/>
</svg>
