<svg xmlns="http://www.w3.org/2000/svg" width="250.301" height="76.129" viewBox="0 0 250.301 76.129">
  <g id="Group_1081" data-name="Group 1081" transform="translate(-29.097 -49.895)">
    <path id="Path_5865" data-name="Path 5865" d="M279.379,91.962a31.8,31.8,0,0,0-4.661-15.49l-5.9-9.769A34.1,34.1,0,0,0,239.491,49.9H62.806c-17.99,0-33.1,14.271-33.69,31.812a32.668,32.668,0,0,0,7.142,21.63c.13.168,7.438,9.615,7.57,9.78a33.776,33.776,0,0,0,2.466,2.866,32.672,32.672,0,0,0,23.678,10.041H246.461a32.936,32.936,0,0,0,32.918-34.062Z" fill="#242430"/>
    <path id="Path_5866" data-name="Path 5866" d="M62.806,56.849c-14.282,0-26.277,11.255-26.739,25.09a25.982,25.982,0,0,0,25.968,26.875H240.263A25.982,25.982,0,0,0,266.23,81.939c-.462-13.835-12.457-25.09-26.739-25.09Z" fill="#e8ece2"/>
    <g id="Group_1065" data-name="Group 1065">
      <g id="Group_1064" data-name="Group 1064">
        <path id="Path_5867" data-name="Path 5867" d="M242.823,63.356A19.644,19.644,0,1,0,259.74,80.273,19.664,19.664,0,0,0,242.823,63.356Zm10.345,22.932-4.019-1.076a.568.568,0,0,0-.639.264l-1.833,3.176a.567.567,0,0,0,.09.686l2.944,2.945a.573.573,0,0,1-.008.825,13.983,13.983,0,0,1-5.262,3.029.576.576,0,0,1-.72-.4l-1.076-4.015a.569.569,0,0,0-.549-.421h-3.667a.567.567,0,0,0-.548.421L236.8,95.732a.576.576,0,0,1-.72.4,13.971,13.971,0,0,1-5.261-3.029.573.573,0,0,1-.009-.825l2.944-2.945a.567.567,0,0,0,.09-.686l-1.833-3.176a.568.568,0,0,0-.639-.264l-4.019,1.076a.57.57,0,0,1-.705-.416,13.377,13.377,0,0,1,0-6.08.57.57,0,0,1,.705-.416l4.019,1.076a.568.568,0,0,0,.639-.265l1.833-3.175a.568.568,0,0,0-.09-.686l-2.944-2.945a.574.574,0,0,1,.009-.825,13.956,13.956,0,0,1,5.261-3.028.574.574,0,0,1,.72.4l1.076,4.015a.566.566,0,0,0,.548.42H242.1a.568.568,0,0,0,.549-.42l1.076-4.015a.574.574,0,0,1,.72-.4,13.956,13.956,0,0,1,5.261,3.028.573.573,0,0,1,.009.825l-2.944,2.945a.568.568,0,0,0-.09.686l1.833,3.175a.568.568,0,0,0,.639.265l4.019-1.076a.571.571,0,0,1,.706.416,13.414,13.414,0,0,1,0,6.08A.571.571,0,0,1,253.168,86.288Z" fill="#242430"/>
      </g>
    </g>
    <g id="Group_1067" data-name="Group 1067">
      <g id="Group_1066" data-name="Group 1066">
        <path id="Path_5868" data-name="Path 5868" d="M64.6,63.356A19.644,19.644,0,1,0,81.511,80.273,19.664,19.664,0,0,0,64.6,63.356ZM74.94,86.288l-4.019-1.076a.567.567,0,0,0-.639.264l-1.834,3.176a.57.57,0,0,0,.09.686l2.945,2.945a.575.575,0,0,1-.009.825,13.956,13.956,0,0,1-5.261,3.028.575.575,0,0,1-.72-.4l-1.077-4.015a.567.567,0,0,0-.548-.421H60.2a.569.569,0,0,0-.549.421l-1.076,4.015a.575.575,0,0,1-.72.4A13.956,13.956,0,0,1,52.6,93.108a.575.575,0,0,1-.009-.825l2.944-2.945a.569.569,0,0,0,.091-.686l-1.834-3.176a.567.567,0,0,0-.639-.264l-4.019,1.076a.571.571,0,0,1-.705-.416,13.419,13.419,0,0,1,0-6.081.57.57,0,0,1,.705-.415l4.019,1.076a.567.567,0,0,0,.639-.265l1.834-3.175a.569.569,0,0,0-.091-.686l-2.944-2.945a.576.576,0,0,1,.009-.825,13.956,13.956,0,0,1,5.261-3.028.575.575,0,0,1,.72.4l1.076,4.015a.568.568,0,0,0,.549.42h3.667a.566.566,0,0,0,.548-.42l1.077-4.015a.575.575,0,0,1,.72-.4,13.963,13.963,0,0,1,5.261,3.028.576.576,0,0,1,.009.825l-2.945,2.945a.57.57,0,0,0-.09.686l1.834,3.175a.567.567,0,0,0,.639.265l4.019-1.076a.57.57,0,0,1,.7.415,13.419,13.419,0,0,1,0,6.081A.571.571,0,0,1,74.94,86.288Z" fill="#242430"/>
      </g>
    </g>
    <g id="Group_1080" data-name="Group 1080">
      <g id="Group_1069" data-name="Group 1069">
        <g id="Group_1068" data-name="Group 1068">
          <path id="Path_5869" data-name="Path 5869" d="M104.4,74.8a13.583,13.583,0,0,1,13.409,9.705l4.97,15.772a.568.568,0,0,1-.542.739h-6.264a.568.568,0,0,1-.542-.4l-.872-2.75a.564.564,0,0,0-.949-.218,12.523,12.523,0,0,1-9.21,3.865c-7.855,0-13.758-5.755-13.758-13.359S96.544,74.8,104.4,74.8Zm6.754,13.358a6.758,6.758,0,1,0-6.754,7A6.711,6.711,0,0,0,111.153,88.16Z" fill="#242430"/>
        </g>
      </g>
      <g id="Group_1071" data-name="Group 1071">
        <g id="Group_1070" data-name="Group 1070">
          <path id="Path_5870" data-name="Path 5870" d="M124.439,96.916a4.553,4.553,0,1,1,4.552,4.552A4.506,4.506,0,0,1,124.439,96.916Z" fill="#242430"/>
        </g>
      </g>
      <g id="Group_1073" data-name="Group 1073">
        <g id="Group_1072" data-name="Group 1072">
          <path id="Path_5871" data-name="Path 5871" d="M136.628,64.5H142.7a.568.568,0,0,1,.568.568V100.45a.568.568,0,0,1-.568.568h-6.069a.568.568,0,0,1-.568-.568V65.064A.568.568,0,0,1,136.628,64.5Z" fill="#242430"/>
        </g>
      </g>
      <g id="Group_1075" data-name="Group 1075">
        <g id="Group_1074" data-name="Group 1074">
          <path id="Path_5872" data-name="Path 5872" d="M148.109,65.3c3.674-2.687,7.557-.306,7.557,3.2a4.283,4.283,0,0,1-4.3,4.354c-3.4,0-5.745-3.663-3.417-7.376A.638.638,0,0,1,148.109,65.3Zm.22,10H154.4a.568.568,0,0,1,.568.568v24.58a.568.568,0,0,1-.568.568h-6.069a.568.568,0,0,1-.568-.568V75.87A.568.568,0,0,1,148.329,75.3Z" fill="#242430"/>
        </g>
      </g>
      <g id="Group_1077" data-name="Group 1077">
        <g id="Group_1076" data-name="Group 1076">
          <path id="Path_5873" data-name="Path 5873" d="M165.208,75.68l5.134,14.473a.568.568,0,0,0,1.07,0l5.135-14.473a.567.567,0,0,1,.535-.378h5.777a.568.568,0,0,1,.53.771l-9.421,24.58a.567.567,0,0,1-.53.365h-5.572a.567.567,0,0,1-.53-.365l-9.421-24.58a.568.568,0,0,1,.53-.771h6.227A.568.568,0,0,1,165.208,75.68Z" fill="#242430"/>
        </g>
      </g>
      <g id="Group_1079" data-name="Group 1079">
        <g id="Group_1078" data-name="Group 1078">
          <path id="Path_5874" data-name="Path 5874" d="M183.59,88.16c0-7.605,5.6-13.358,13.058-13.358,7.644,0,12.937,5.615,12.682,14.259a.572.572,0,0,1-.571.55h-17.8a.572.572,0,0,0-.551.72,6.824,6.824,0,0,0,6.645,5.234,7.154,7.154,0,0,0,4.929-1.878.56.56,0,0,1,.773.022l3.719,3.677a.568.568,0,0,1-.025.834,14.514,14.514,0,0,1-9.4,3.3A13.1,13.1,0,0,1,183.59,88.16Zm17.673-4.052a.566.566,0,0,0,.507-.826,5.505,5.505,0,0,0-5.122-2.926,5.859,5.859,0,0,0-5.4,2.915.566.566,0,0,0,.5.837Z" fill="#242430"/>
        </g>
      </g>
    </g>
  </g>
</svg>
