<svg xmlns="http://www.w3.org/2000/svg" width="32.608" height="32.616" viewBox="0 0 32.608 32.616">
  <path id="Icon_ionic-ios-settings" data-name="Icon ionic-ios-settings" d="M34.416,20.8a4.2,4.2,0,0,1,2.692-3.915A16.632,16.632,0,0,0,35.1,12.041a4.252,4.252,0,0,1-1.707.365,4.187,4.187,0,0,1-3.83-5.893A16.582,16.582,0,0,0,24.719,4.5a4.192,4.192,0,0,1-7.829,0,16.632,16.632,0,0,0-4.849,2.013,4.187,4.187,0,0,1-3.83,5.893A4.114,4.114,0,0,1,6.5,12.041a17,17,0,0,0-2,4.857,4.195,4.195,0,0,1,.008,7.829,16.632,16.632,0,0,0,2.013,4.849A4.188,4.188,0,0,1,12.049,35.1,16.729,16.729,0,0,0,16.9,37.116a4.185,4.185,0,0,1,7.812,0A16.632,16.632,0,0,0,29.559,35.1a4.193,4.193,0,0,1,5.528-5.528A16.729,16.729,0,0,0,37.1,24.727,4.216,4.216,0,0,1,34.416,20.8ZM20.88,27.589A6.793,6.793,0,1,1,27.674,20.8,6.791,6.791,0,0,1,20.88,27.589Z" transform="translate(-4.5 -4.5)" fill="#fff"/>
</svg>
