<svg width="25" height="24" viewBox="0 0 25 24" fill="none" xmlns="http://www.w3.org/2000/svg">
<path d="M12.0161 0C5.39051 0 0 5.38278 0 12C0 18.6172 5.39051 24 12.0161 24C18.6416 24 24.0321 18.6172 24.0321 12C24.0321 5.38278 18.6416 0 12.0161 0ZM8.359 17.2174H6.26925V9.3913H8.359V17.2174ZM7.31413 7.82609C6.73683 7.82609 6.26925 7.35913 6.26925 6.78261C6.26925 6.20609 6.73683 5.73913 7.31413 5.73913C7.89142 5.73913 8.359 6.20609 8.359 6.78261C8.359 7.35913 7.89142 7.82609 7.31413 7.82609ZM18.2853 17.2174H16.1956V14.6087V13.3043C16.1956 12.3 15.3727 11.4783 14.367 11.4783C13.3613 11.4783 12.5385 12.3 12.5385 13.3043V17.2174H10.4488V9.3913H12.5385V10.3388C13.1487 9.75339 13.9762 9.3913 14.8895 9.3913C16.765 9.3913 18.2853 10.9096 18.2853 12.7826V17.2174Z" fill="#E8ECE2"/>
</svg>
