<svg width="30" height="24" viewBox="0 0 30 24" fill="none" xmlns="http://www.w3.org/2000/svg">
<path d="M26.5275 5.9882C26.5394 6.24806 26.5394 6.50788 26.5394 6.76775C26.5389 9.85754 25.7067 12.8904 24.1299 15.5488C22.5531 18.2072 20.2897 20.3934 17.5766 21.8785C14.8635 23.3637 11.8005 24.0931 8.70833 23.9905C5.61612 23.8879 2.60838 22.957 0 21.2953C0.478778 21.3526 0.960652 21.3802 1.44285 21.3779C4.17504 21.3814 6.82881 20.4661 8.97655 18.7795C7.711 18.7568 6.48429 18.3391 5.46838 17.5851C4.45247 16.831 3.69827 15.7784 3.3115 14.5748C4.21849 14.7463 5.15261 14.7099 6.04349 14.4685C4.67214 14.1887 3.43954 13.4448 2.55392 12.3623C1.66829 11.2799 1.18394 9.92538 1.18269 8.52757V8.44489C2.02528 8.90823 2.96518 9.16718 3.92648 9.20084C2.64427 8.3417 1.73678 7.02818 1.38766 5.52611C1.03854 4.02405 1.27387 2.44562 2.04603 1.11028C3.56885 2.98177 5.46875 4.51253 7.6224 5.60317C9.77604 6.69381 12.1353 7.31996 14.547 7.44096C14.4478 6.98691 14.3963 6.5238 14.3932 6.05909C14.393 4.84435 14.7585 3.65759 15.4422 2.6529C16.1259 1.64821 17.0962 0.87199 18.2273 0.425016C19.3583 -0.0219584 20.5978 -0.119041 21.7848 0.146373C22.9717 0.411788 24.0514 1.02744 24.8836 1.9134C26.2435 1.64991 27.5477 1.15449 28.7392 0.448851C28.2844 1.85334 27.3346 3.04525 26.0663 3.80316C27.2702 3.65791 28.4459 3.33552 29.5552 2.84647C28.7408 4.06492 27.7155 5.12878 26.5275 5.9882Z" fill="#E8ECE2"/>
</svg>
