<svg width="44" height="44" viewBox="0 0 44 44" fill="none" xmlns="http://www.w3.org/2000/svg">
<rect x="1" y="1" width="42" height="42" fill="#E8ECE2" stroke="#242430"/>
<path fill-rule="evenodd" clip-rule="evenodd" d="M7.84662 17.442H37V38H7.84662V17.442ZM25.4392 24.1569H19.4075V30.3553H25.4392V24.1569ZM33.9836 24.1569H27.9519V30.3553H33.9836V24.1569ZM16.8939 24.1569H10.8622V30.3553H16.8939V24.1569Z" fill="#53E1AD"/>
<path d="M36.802 9.11819L35.9889 6L15.1852 11.7283L7 13.9822L7.81305 17.1004L22.5239 13.0497L36.802 9.11819Z" fill="#FBD200"/>
<path d="M10.8622 24.1569H16.8939V30.3553H10.8622V24.1569Z" fill="#FBD200"/>
<path d="M19.4075 24.1569H25.4392V30.3553H19.4075V24.1569Z" fill="#FBD200"/>
<path d="M27.9519 24.1569H33.9836V30.3553H27.9519V24.1569Z" fill="#FBD200"/>
<path fill-rule="evenodd" clip-rule="evenodd" d="M36.3447 5.38379L37.4101 9.46972L10.2714 16.9424H37.4999V38.5004H7.34649V17.2936L6.3916 13.6315L36.3447 5.38379ZM8.16886 16.4841L14.6851 14.6899V12.385L7.60814 14.3337L8.16886 16.4841ZM15.6851 12.1097V14.4145L22.0237 12.6692V10.3643L15.6851 12.1097ZM23.0237 10.089V12.3938L29.3619 10.6486V8.34375L23.0237 10.089ZM30.3619 8.0684V10.3733L36.1936 8.76748L35.6328 6.61702L30.3619 8.0684ZM8.34649 17.9424V37.5004H36.4999V17.9424H8.34649ZM10.3621 23.6573H17.3938V30.8557H10.3621V23.6573ZM11.3621 24.6573V29.8557H16.3938V24.6573H11.3621ZM18.9074 23.6573H25.9391V30.8557H18.9074V23.6573ZM19.9074 24.6573V29.8557H24.9391V24.6573H19.9074ZM27.4517 23.6573H34.4835V30.8557H27.4517V23.6573ZM28.4517 24.6573V29.8557H33.4835V24.6573H28.4517Z" fill="#242430"/>
</svg>
