<svg width="44" height="44" viewBox="0 0 44 44" fill="none" xmlns="http://www.w3.org/2000/svg">
<rect x="1" y="1" width="42" height="42" fill="#E8ECE2" stroke="#242430"/>
<path d="M11.8499 20.1997H5V35H29.1005L29.1002 30.7695V23.7248L29.1005 20.1997H21.4278C21.402 20.2001 21.376 20.2002 21.3501 20.2002C21.3241 20.2002 21.2982 20.2001 21.2723 20.1997H11.8499Z" fill="#53E1AD"/>
<path d="M29.1002 23.7248V30.7695L37.0004 33.9005V20.3002L29.1002 23.7248Z" fill="#53E1AD"/>
<path d="M11.8499 20.1997C13.9762 20.1997 15.7 18.476 15.7 16.3496C15.7 14.2233 13.9762 12.4995 11.8499 12.4995C9.72354 12.4995 7.9998 14.2233 7.9998 16.3496C7.9998 18.476 9.72354 20.1997 11.8499 20.1997Z" fill="#FBD200"/>
<path d="M21.3501 9C18.2296 9 15.7 11.5073 15.7 14.6001C15.7 17.6672 18.1877 20.1585 21.2723 20.1997H21.4278C24.5125 20.1585 27.0002 17.6672 27.0002 14.6001C27.0002 11.5073 24.4705 9 21.3501 9Z" fill="#FBD200"/>
<path fill-rule="evenodd" clip-rule="evenodd" d="M21.3501 9.5C18.5015 9.5 16.2 11.7876 16.2 14.6001C16.2 17.3881 18.4616 19.6603 21.2757 19.6997H21.4244C24.2385 19.6603 26.5002 17.3881 26.5002 14.6001C26.5002 11.7876 24.1986 9.5 21.3501 9.5ZM24.726 19.6997C26.3962 18.6099 27.5002 16.7344 27.5002 14.6001C27.5002 11.2269 24.7425 8.5 21.3501 8.5C18.278 8.5 15.7264 10.7363 15.2719 13.6637C14.4755 12.6504 13.2387 11.9995 11.8499 11.9995C9.4474 11.9995 7.4998 13.9471 7.4998 16.3496C7.4998 17.6973 8.11262 18.9018 9.07478 19.6997H4.5V35.5H29.6005V31.5056L37.5004 34.6365V19.5385L29.6005 22.963V19.6997H24.726ZM21.269 20.6997C21.296 20.7001 21.323 20.7002 21.3501 20.7002C21.3771 20.7002 21.4041 20.7001 21.4311 20.6997H28.6004L28.6005 34.5H5.5V20.6997H21.269ZM17.9741 19.6997H14.625C15.2697 19.165 15.7576 18.4478 16.0093 17.6273C16.4913 18.4621 17.1665 19.1727 17.9741 19.6997ZM29.6005 30.4299L36.5004 33.1645V21.0619L29.6005 24.0529V30.4299ZM11.8499 12.9995C9.99968 12.9995 8.4998 14.4994 8.4998 16.3496C8.4998 18.1998 9.99968 19.6997 11.8499 19.6997C13.7001 19.6997 15.2 18.1998 15.2 16.3496C15.2 14.4994 13.7001 12.9995 11.8499 12.9995Z" fill="#242430"/>
</svg>
