<svg width="44" height="44" viewBox="0 0 44 44" fill="none" xmlns="http://www.w3.org/2000/svg">
<rect x="1" y="1" width="42" height="42" fill="#E8ECE2" stroke="#242430"/>
<path fill-rule="evenodd" clip-rule="evenodd" d="M38 22C38 30.8366 30.8366 38 22 38C13.1634 38 6 30.8366 6 22C6 13.1634 13.1634 6 22 6C30.8366 6 38 13.1634 38 22ZM22 26C24.2091 26 26 24.2091 26 22C26 19.7909 24.2091 18 22 18C19.7909 18 18 19.7909 18 22C18 24.2091 19.7909 26 22 26Z" fill="#53E1AD"/>
<path fill-rule="evenodd" clip-rule="evenodd" d="M22 6.5C13.4396 6.5 6.5 13.4396 6.5 22C6.5 30.5604 13.4396 37.5 22 37.5C30.5604 37.5 37.5 30.5604 37.5 22C37.5 13.4396 30.5604 6.5 22 6.5ZM5.5 22C5.5 12.8873 12.8873 5.5 22 5.5C31.1127 5.5 38.5 12.8873 38.5 22C38.5 31.1127 31.1127 38.5 22 38.5C12.8873 38.5 5.5 31.1127 5.5 22ZM22 12.5C16.7533 12.5 12.5 16.7533 12.5 22H11.5C11.5 16.201 16.201 11.5 22 11.5V12.5ZM22 18.5C20.067 18.5 18.5 20.067 18.5 22C18.5 23.933 20.067 25.5 22 25.5C23.933 25.5 25.5 23.933 25.5 22C25.5 20.067 23.933 18.5 22 18.5ZM17.5 22C17.5 19.5147 19.5147 17.5 22 17.5C24.4853 17.5 26.5 19.5147 26.5 22C26.5 24.4853 24.4853 26.5 22 26.5C19.5147 26.5 17.5 24.4853 17.5 22Z" fill="#242430"/>
</svg>
