<svg width="44" height="44" viewBox="0 0 44 44" fill="none" xmlns="http://www.w3.org/2000/svg">
<rect x="1" y="1" width="42" height="42" fill="#E8ECE2" stroke="#242430"/>
<path d="M18 32C18 35.3137 15.3137 38 12 38C8.68629 38 6 35.3137 6 32C6 28.6863 8.68629 26 12 26C15.3137 26 18 28.6863 18 32Z" fill="#53E1AD"/>
<path fill-rule="evenodd" clip-rule="evenodd" d="M17.5 5.5H38V6.5H18.5V32C18.5 35.5899 15.5899 38.5 12 38.5C8.41015 38.5 5.5 35.5899 5.5 32C5.5 28.4101 8.41015 25.5 12 25.5C14.3158 25.5 16.3487 26.711 17.5 28.5343V5.5ZM17.5 32C17.5 28.9624 15.0376 26.5 12 26.5C8.96243 26.5 6.5 28.9624 6.5 32C6.5 35.0376 8.96243 37.5 12 37.5C15.0376 37.5 17.5 35.0376 17.5 32ZM38 12.5H22V11.5H38V12.5ZM38 18.5H22V17.5H38V18.5ZM38 24.5H22V23.5H38V24.5Z" fill="#242430"/>
</svg>
