<svg width="44" height="44" viewBox="0 0 44 44" fill="none" xmlns="http://www.w3.org/2000/svg">
<rect x="1" y="1" width="42" height="42" fill="#E8ECE2" stroke="#242430"/>
<path fill-rule="evenodd" clip-rule="evenodd" d="M38 21.9841L32.127 17.7978L33.3016 10.6938L26.1905 11.8672L22 6L17.8095 11.8672L10.6984 10.6938L11.873 17.7978L6 21.9841L11.873 26.1705L10.6984 33.2745L17.8095 32.1011L22.0317 38L26.254 32.1011L33.3651 33.2745L32.1905 26.1705L38 21.9841ZM26.1971 20.2585L28.6312 21.9936L26.2234 23.7286L26.7102 26.6729L23.763 26.1866L22.0131 28.6314L20.2632 26.1866L17.3159 26.6729L17.8028 23.7286L15.3687 21.9936L17.8028 20.2585L17.3159 17.3142L20.2632 17.8006L21.9999 15.3689L23.7367 17.8006L26.6839 17.3142L26.1971 20.2585Z" fill="#53E1AD"/>
<path d="M28.6312 21.9936L26.1971 20.2585L26.6839 17.3142L23.7367 17.8006L21.9999 15.3689L20.2632 17.8006L17.3159 17.3142L17.8028 20.2585L15.3687 21.9936L17.8028 23.7286L17.3159 26.6729L20.2632 26.1866L22.0131 28.6314L23.763 26.1866L26.7102 26.6729L26.2234 23.7286L28.6312 21.9936Z" fill="#FBD200"/>
<path fill-rule="evenodd" clip-rule="evenodd" d="M22.0001 5.13965L26.4164 11.3231L33.9088 10.0867L32.6712 17.5716L38.8584 21.9819L32.7345 26.3948L33.9723 33.8814L26.4796 32.645L22.0318 38.859L17.5841 32.645L10.0914 33.8814L11.3289 26.3965L5.13867 21.9841L11.3289 17.5716L10.0914 10.0867L17.5837 11.3231L22.0001 5.13965ZM22.0001 6.86022L18.0355 12.4112L11.3056 11.3006L12.4173 18.0239L6.8615 21.9841L12.4173 25.9443L11.3056 32.6675L18.0351 31.5571L22.0318 37.1409L26.0285 31.5571L32.758 32.6675L31.6467 25.946L37.1418 21.9863L31.5829 18.0239L32.6945 11.3006L25.9647 12.4112L22.0001 6.86022ZM22 14.5085L23.9626 17.2565L27.2911 16.7072L26.7413 20.0323L29.4896 21.9913L26.7674 23.9529L27.3174 27.2798L23.9886 26.7305L22.0132 29.4904L20.0377 26.7305L16.7089 27.2798L17.2587 23.9547L14.5073 21.9935L17.2587 20.0323L16.7089 16.7072L20.0374 17.2565L22 14.5085ZM22 16.2291L20.4891 18.3445L17.9232 17.9211L18.347 20.4846L16.2302 21.9935L18.347 23.5024L17.9232 26.0659L20.4888 25.6425L22.0132 27.7723L23.5375 25.6425L26.1031 26.0659L25.6796 23.5042L27.7729 21.9957L25.653 20.4846L26.0768 17.9211L23.5109 18.3445L22 16.2291Z" fill="#242430"/>
</svg>
