<svg width="44" height="44" viewBox="0 0 44 44" fill="none" xmlns="http://www.w3.org/2000/svg">
<rect x="1" y="1" width="42" height="42" fill="#E8ECE2" stroke="#242430"/>
<path d="M16.6667 15.3333C16.6667 18.2789 14.2789 20.6667 11.3333 20.6667C8.38781 20.6667 6 18.2789 6 15.3333C6 12.3878 8.38781 10 11.3333 10C14.2789 10 16.6667 12.3878 16.6667 15.3333Z" fill="#53E1AD"/>
<path d="M38 15.3333C38 18.2789 35.6122 20.6667 32.6667 20.6667C29.7211 20.6667 27.3333 18.2789 27.3333 15.3333C27.3333 12.3878 29.7211 10 32.6667 10C35.6122 10 38 12.3878 38 15.3333Z" fill="#53E1AD"/>
<path d="M27.3333 28.6667C27.3333 31.6122 24.9455 34 22 34C19.0545 34 16.6667 31.6122 16.6667 28.6667C16.6667 25.7211 19.0545 23.3333 22 23.3333C24.9455 23.3333 27.3333 25.7211 27.3333 28.6667Z" fill="#FBD200"/>
<path fill-rule="evenodd" clip-rule="evenodd" d="M10.8333 9.52113V6H11.8333V9.52113C14.8209 9.77475 17.1667 12.2801 17.1667 15.3333C17.1667 18.3866 14.8209 20.8919 11.8333 21.1455L11.8333 38H10.8333L10.8333 21.1455C7.84573 20.8919 5.5 18.3866 5.5 15.3333C5.5 12.2801 7.84573 9.77474 10.8333 9.52113ZM21.5 22.8545V6H22.5V22.8545C25.4876 23.1081 27.8333 25.6134 27.8333 28.6667C27.8333 31.7199 25.4876 34.2253 22.5 34.4789V38H21.5V34.4789C18.5124 34.2253 16.1667 31.7199 16.1667 28.6667C16.1667 25.6134 18.5124 23.1081 21.5 22.8545ZM32.1667 9.52113V6H33.1667V9.52113C36.1543 9.77474 38.5 12.2801 38.5 15.3333C38.5 18.3866 36.1543 20.8919 33.1667 21.1455V38H32.1667V21.1455C29.1791 20.8919 26.8333 18.3866 26.8333 15.3333C26.8333 12.2801 29.1791 9.77474 32.1667 9.52113ZM11.3333 10.5C8.66396 10.5 6.5 12.664 6.5 15.3333C6.5 18.0027 8.66396 20.1667 11.3333 20.1667C14.0027 20.1667 16.1667 18.0027 16.1667 15.3333C16.1667 12.664 14.0027 10.5 11.3333 10.5ZM32.6667 10.5C29.9973 10.5 27.8333 12.664 27.8333 15.3333C27.8333 18.0027 29.9973 20.1667 32.6667 20.1667C35.336 20.1667 37.5 18.0027 37.5 15.3333C37.5 12.664 35.336 10.5 32.6667 10.5ZM22 23.8333C19.3306 23.8333 17.1667 25.9973 17.1667 28.6667C17.1667 31.336 19.3306 33.5 22 33.5C24.6694 33.5 26.8333 31.336 26.8333 28.6667C26.8333 25.9973 24.6694 23.8333 22 23.8333Z" fill="#242430"/>
</svg>
