<svg width="57" height="38" viewBox="0 0 57 38" fill="none" xmlns="http://www.w3.org/2000/svg">
<rect x="1" y="2" width="50" height="30" fill="#53E1AD" stroke="#242430"/>
<path d="M56 37L51 32V2L56 7V37Z" fill="#E8ECE2" stroke="#242430" stroke-linejoin="bevel"/>
<path d="M6 37L1 32H51L56 37H6Z" fill="#242430" stroke="#242430" stroke-linejoin="bevel"/>
<path d="M24.75 6.625V9.05C22.525 9.65 21.35 11.325 21.35 13.2C21.35 15.325 22.5 16.65 25.55 18.025C27.125 18.725 27.7 19.5 27.7 20.575C27.7 21.65 27.05 22.45 24.975 22.45C23.875 22.45 22.825 22.35 21.525 22.225V24.8C22.275 24.875 23.65 25.025 24.75 25.05V27.225H27.15V24.775C29.325 24.15 30.525 22.5 30.525 20.35C30.525 18.375 29.6 16.725 26.65 15.375C24.775 14.5 24.2 13.95 24.2 13.075C24.2 12.125 24.95 11.35 26.8 11.35C27.65 11.35 28.7 11.5 29.675 11.6V9.05C29.25 8.975 28.125 8.85 27.15 8.8V6.625H24.75Z" fill="#242430"/>
</svg>
