<svg width="10" height="22" viewBox="0 0 10 22" fill="none" xmlns="http://www.w3.org/2000/svg">
<path opacity="0.25" d="M3.75 0.625V3.05C1.525 3.65 0.35 5.325 0.35 7.2C0.35 9.325 1.5 10.65 4.55 12.025C6.125 12.725 6.7 13.5 6.7 14.575C6.7 15.65 6.05 16.45 3.975 16.45C2.875 16.45 1.825 16.35 0.525 16.225V18.8C1.275 18.875 2.65 19.025 3.75 19.05V21.225H6.15V18.775C8.325 18.15 9.525 16.5 9.525 14.35C9.525 12.375 8.6 10.725 5.65 9.375C3.775 8.5 3.2 7.95 3.2 7.075C3.2 6.125 3.95 5.35 5.8 5.35C6.65 5.35 7.7 5.5 8.675 5.6V3.05C8.25 2.975 7.125 2.85 6.15 2.8V0.625H3.75Z" fill="#242430"/>
</svg>
