<svg width="57" height="37" viewBox="0 0 57 37" fill="none" xmlns="http://www.w3.org/2000/svg">
<rect x="1" y="1" width="50" height="30" fill="#8247E5" stroke="#242430"/>
<path d="M56 36L51 31V1L56 6V36Z" fill="#E8ECE2" stroke="#242430" stroke-linejoin="bevel"/>
<path d="M6 36L1 31H51L56 36H6Z" fill="#242430" stroke="#242430" stroke-linejoin="bevel"/>
<path d="M31.658 12.1119C31.256 11.8747 30.7389 11.8747 30.2793 12.1119L27.0627 14.0707L24.8801 15.3166L21.7207 17.2768C21.3188 17.514 20.8016 17.514 20.342 17.2768L17.8731 15.7337C17.6631 15.6059 17.489 15.4237 17.3681 15.2051C17.2472 14.9866 17.1835 14.7392 17.1835 14.4874V11.5185C17.1835 11.0437 17.4135 10.5689 17.8731 10.2722L20.342 8.78862C20.744 8.55099 21.2611 8.55099 21.7207 8.78862L24.1897 10.3317C24.3997 10.4594 24.5738 10.6416 24.6947 10.8602C24.8157 11.0788 24.8793 11.3262 24.8792 11.578V13.5364L27.0619 12.2305V10.2131C27.0619 9.73827 26.8323 9.26345 26.3727 8.96674L21.7779 6.17823C21.3759 5.94059 20.8592 5.94059 20.3996 6.17823L15.6891 9.02581C15.2296 9.26345 15 9.73827 15 10.2131V15.7915C15 16.2663 15.2296 16.7398 15.6891 17.0378L20.342 19.8277C20.744 20.0653 21.2611 20.0653 21.7207 19.8277L24.8801 17.9284L27.0627 16.623L30.2221 14.7237C30.6241 14.4865 31.1412 14.4865 31.6008 14.7237L34.0698 16.2077C34.2801 16.3355 34.4544 16.518 34.5754 16.7369C34.6965 16.9558 34.76 17.2037 34.7598 17.4558V20.4229C34.7598 20.8977 34.5302 21.3725 34.0706 21.6692L31.658 23.1532C31.256 23.3904 30.7389 23.3904 30.2793 23.1532L27.8103 21.6692C27.6004 21.5414 27.4264 21.3592 27.3056 21.1406C27.1847 20.922 27.1212 20.6746 27.1212 20.4229V18.5218L24.9373 19.8277V21.786C24.9373 22.2608 25.1673 22.7357 25.6268 23.0324L30.2793 25.8218C30.6817 26.0594 31.1984 26.0594 31.658 25.8218L36.3109 23.0319C36.5208 22.9041 36.6948 22.7219 36.8156 22.5033C36.9365 22.2847 37 22.0373 37 21.7856V16.1468C37 15.672 36.7704 15.1971 36.3109 14.9004L31.658 12.1119Z" fill="#242430"/>
</svg>
