<svg width="22" height="20" viewBox="0 0 22 20" fill="none" xmlns="http://www.w3.org/2000/svg">
<path opacity="0.25" d="M16.658 6.11193C16.256 5.87474 15.7389 5.87474 15.2793 6.11193L12.0627 8.07073L9.8801 9.31663L6.72072 11.2768C6.31876 11.514 5.80158 11.514 5.34201 11.2768L2.87307 9.73372C2.6631 9.60593 2.48905 9.42373 2.36811 9.20515C2.24718 8.98656 2.18354 8.73915 2.1835 8.48737V5.51851C2.1835 5.04369 2.4135 4.56887 2.87307 4.27216L5.34201 2.78862C5.74397 2.55099 6.26115 2.55099 6.72072 2.78862L9.18966 4.33168C9.39968 4.45941 9.57378 4.64159 9.69473 4.86019C9.81567 5.07879 9.87927 5.32624 9.87923 5.57803V7.53639L12.0619 6.23052V4.21309C12.0619 3.73827 11.8323 3.26345 11.3727 2.96674L6.77789 0.178226C6.37593 -0.0594086 5.85919 -0.0594086 5.39962 0.178226L0.689138 3.02581C0.229568 3.26345 0 3.73827 0 4.21309V9.79145C0 10.2663 0.229568 10.7398 0.689138 11.0378L5.34201 13.8277C5.74397 14.0653 6.26115 14.0653 6.72072 13.8277L9.8801 11.9284L12.0627 10.623L15.2221 8.72367C15.6241 8.48648 16.1412 8.48648 16.6008 8.72367L19.0698 10.2077C19.2801 10.3355 19.4544 10.518 19.5754 10.7369C19.6965 10.9558 19.76 11.2037 19.7598 11.4558V14.4229C19.7598 14.8977 19.5302 15.3725 19.0706 15.6692L16.658 17.1532C16.256 17.3904 15.7389 17.3904 15.2793 17.1532L12.8103 15.6692C12.6004 15.5414 12.4264 15.3592 12.3056 15.1406C12.1847 14.922 12.1212 14.6746 12.1212 14.4229V12.5218L9.93727 13.8277V15.786C9.93727 16.2608 10.1673 16.7357 10.6268 17.0324L15.2793 19.8218C15.6817 20.0594 16.1984 20.0594 16.658 19.8218L21.3109 17.0319C21.5208 16.9041 21.6948 16.7219 21.8156 16.5033C21.9365 16.2847 22 16.0373 22 15.7856V10.1468C22 9.67197 21.7704 9.19714 21.3109 8.90044L16.658 6.11193Z" fill="#242430"/>
</svg>
