<svg width="455" height="144" viewBox="0 0 455 144" fill="none" xmlns="http://www.w3.org/2000/svg">
<rect x="214.231" y="12.5996" width="238.769" height="119.384" fill="#E8ECE2" stroke="#242430" stroke-width="3.31623"/>
<rect x="214.238" y="141.932" width="212.239" height="139.18" rx="6.63246" transform="rotate(180 214.238 141.932)" fill="#E8ECE2" stroke="#242430" stroke-width="3.31623"/>
<rect x="181.05" y="102.129" width="146.045" height="39.8014" rx="19.9007" transform="rotate(180 181.05 102.129)" fill="#53E1AD" stroke="#242430" stroke-width="3.31623"/>
<ellipse cx="161.216" cy="82.2421" rx="19.8974" ry="19.8829" transform="rotate(180 161.216 82.2421)" fill="#FBD200" stroke="#242430" stroke-width="3.31623"/>
<line y1="-1.65811" x2="39.777" y2="-1.65811" transform="matrix(-0.707364 -0.706849 0.707364 -0.706849 177.305 94.2344)" stroke="#242430" stroke-width="3.31623"/>
<line y1="-1.65811" x2="39.777" y2="-1.65811" transform="matrix(-0.707364 0.706849 -0.707364 -0.706849 173.212 66.209)" stroke="#242430" stroke-width="3.31623"/>
<ellipse cx="55.0352" cy="82.2421" rx="19.8974" ry="19.8829" transform="rotate(180 55.0352 82.2421)" fill="#FBD200" stroke="#242430" stroke-width="3.31623"/>
<line y1="-1.65811" x2="39.777" y2="-1.65811" transform="matrix(-0.707364 -0.706849 0.707364 -0.706849 71.1182 94.2344)" stroke="#242430" stroke-width="3.31623"/>
<line y1="-1.65811" x2="39.777" y2="-1.65811" transform="matrix(-0.707364 0.706849 -0.707364 -0.706849 67.1318 66.209)" stroke="#242430" stroke-width="3.31623"/>
<path d="M169.517 31.6175L181.113 2.64701L35.1992 2.64703L46.7958 31.6175C47.8035 34.1347 50.2419 35.7852 52.9533 35.7852L163.359 35.7852C166.071 35.7852 168.509 34.1347 169.517 31.6175Z" fill="#FF665C" stroke="#242430" stroke-width="3.31623" stroke-linejoin="round"/>
<path d="M288.608 43.1957V73.2806H276.444L282.759 43.1957H269.666L261.216 87.1159H288.608V103.18H302.815V43.1957H288.608ZM321.229 56.4739C328.193 56.4739 331.257 59.0738 331.257 64.9237C331.257 67.895 329.957 71.1449 326.707 75.2305L306 101.323V103.18H348.435V89.4372H331.257L339.149 80.1518C344.906 73.2806 346.949 67.0593 346.949 61.5809C346.949 49.8812 339.985 42.5457 324.107 42.5457C318.536 42.5457 312.965 43.5671 308.879 44.5885V58.0524C313.057 57.2167 316.772 56.4739 321.229 56.4739ZM377.078 104.294C393.327 104.294 401.963 92.0372 401.963 72.8163C401.963 54.1525 393.327 41.8958 377.078 41.8958C360.828 41.8958 352.564 54.1525 352.564 72.8163C352.564 92.0372 361.014 104.294 377.078 104.294ZM377.17 91.1086C370.763 91.1086 367.235 84.3302 367.235 72.7234C367.235 61.5809 370.763 55.1739 377.17 55.1739C383.67 55.1739 387.292 61.488 387.292 72.7234C387.292 84.4231 383.67 91.1086 377.17 91.1086Z" fill="#242430"/>
</svg>
