<svg width="704" height="492" viewBox="0 0 704 492" fill="none" xmlns="http://www.w3.org/2000/svg">
<path d="M354.638 85.9475C354.638 74.2068 364.198 64.6465 375.939 64.6465C387.68 64.6465 397.24 74.2068 397.24 85.9475" fill="#FBD200"/>
<path d="M354.638 85.9475C354.638 74.2068 364.198 64.6465 375.939 64.6465C387.68 64.6465 397.24 74.2068 397.24 85.9475" stroke="#242430" stroke-width="2.68919" stroke-miterlimit="10"/>
<path d="M405.463 85.9475C405.463 74.2068 415.023 64.6465 426.763 64.6465C438.504 64.6465 448.064 74.2068 448.064 85.9475" fill="#53E1AD"/>
<path d="M405.463 85.9475C405.463 74.2068 415.023 64.6465 426.763 64.6465C438.504 64.6465 448.064 74.2068 448.064 85.9475" stroke="#242430" stroke-width="2.68919" stroke-miterlimit="10"/>
<path d="M456.114 85.9475C456.114 74.2068 465.674 64.6465 477.415 64.6465C489.155 64.6465 498.716 74.2068 498.716 85.9475" fill="#FBD200"/>
<path d="M456.114 85.9475C456.114 74.2068 465.674 64.6465 477.415 64.6465C489.155 64.6465 498.716 74.2068 498.716 85.9475" stroke="#242430" stroke-width="2.68919" stroke-miterlimit="10"/>
<path d="M655.031 463.998H48.8759C23.0464 463.998 2.08085 443.032 2.08085 417.203V132.742C2.08085 106.913 23.0464 85.9473 48.8759 85.9473H655.031C680.861 85.9473 701.826 106.913 701.826 132.742V417.203C701.994 443.032 681.029 463.998 655.031 463.998Z" fill="#53E1AD" stroke="#242430" stroke-width="2.68919" stroke-miterlimit="10"/>
<path d="M701.913 132.742C701.913 106.913 680.948 85.9473 655.118 85.9473H48.7951C22.9655 85.9473 2 106.913 2 132.742V187.085H701.913V132.742Z" fill="#FF665C" stroke="#242430" stroke-width="2.68919" stroke-miterlimit="10"/>
<path d="M104.896 175.514C121.477 175.514 134.918 162.072 134.918 145.491C134.918 128.91 121.477 115.469 104.896 115.469C88.3147 115.469 74.8731 128.91 74.8731 145.491C74.8731 162.072 88.3147 175.514 104.896 175.514Z" fill="#242430" stroke="#242430" stroke-width="2.68919" stroke-miterlimit="10"/>
<path d="M599.016 175.514C615.597 175.514 629.039 162.072 629.039 145.491C629.039 128.91 615.597 115.469 599.016 115.469C582.435 115.469 568.994 128.91 568.994 145.491C568.994 162.072 582.435 175.514 599.016 175.514Z" fill="#242430" stroke="#242430" stroke-width="2.68919" stroke-miterlimit="10"/>
<path d="M34.1162 127.375C40.693 127.375 46.0246 122.044 46.0246 115.467C46.0246 108.89 40.693 103.559 34.1162 103.559C27.5393 103.559 22.2077 108.89 22.2077 115.467C22.2077 122.044 27.5393 127.375 34.1162 127.375Z" fill="#E8ECE2" stroke="#242430" stroke-width="2.68919" stroke-miterlimit="10"/>
<path d="M34.1162 175.344C40.693 175.344 46.0246 170.013 46.0246 163.436C46.0246 156.859 40.693 151.527 34.1162 151.527C27.5393 151.527 22.2077 156.859 22.2077 163.436C22.2077 170.013 27.5393 175.344 34.1162 175.344Z" fill="#E8ECE2" stroke="#242430" stroke-width="2.68919" stroke-miterlimit="10"/>
<path d="M669.792 127.375C676.369 127.375 681.701 122.044 681.701 115.467C681.701 108.89 676.369 103.559 669.792 103.559C663.216 103.559 657.884 108.89 657.884 115.467C657.884 122.044 663.216 127.375 669.792 127.375Z" fill="#E8ECE2" stroke="#242430" stroke-width="2.68919" stroke-miterlimit="10"/>
<path d="M669.792 175.344C676.369 175.344 681.701 170.013 681.701 163.436C681.701 156.859 676.369 151.527 669.792 151.527C663.216 151.527 657.884 156.859 657.884 163.436C657.884 170.013 663.216 175.344 669.792 175.344Z" fill="#E8ECE2" stroke="#242430" stroke-width="2.68919" stroke-miterlimit="10"/>
<path d="M34.1162 436.493C40.693 436.493 46.0246 431.161 46.0246 424.584C46.0246 418.007 40.693 412.676 34.1162 412.676C27.5393 412.676 22.2077 418.007 22.2077 424.584C22.2077 431.161 27.5393 436.493 34.1162 436.493Z" fill="#E8ECE2" stroke="#242430" stroke-width="2.68919" stroke-miterlimit="10"/>
<path d="M669.792 436.493C676.369 436.493 681.701 431.161 681.701 424.584C681.701 418.007 676.369 412.676 669.792 412.676C663.216 412.676 657.884 418.007 657.884 424.584C657.884 431.161 663.216 436.493 669.792 436.493Z" fill="#E8ECE2" stroke="#242430" stroke-width="2.68919" stroke-miterlimit="10"/>
<path d="M303.317 408.815C309.894 408.815 315.225 403.483 315.225 396.906C315.225 390.33 309.894 384.998 303.317 384.998C296.74 384.998 291.408 390.33 291.408 396.906C291.408 403.483 296.74 408.815 303.317 408.815Z" fill="#E8ECE2" stroke="#242430" stroke-width="2.68919" stroke-miterlimit="10"/>
<path d="M351.96 408.815C358.536 408.815 363.868 403.483 363.868 396.906C363.868 390.33 358.536 384.998 351.96 384.998C345.383 384.998 340.051 390.33 340.051 396.906C340.051 403.483 345.383 408.815 351.96 408.815Z" fill="#E8ECE2" stroke="#242430" stroke-width="2.68919" stroke-miterlimit="10"/>
<path d="M400.765 408.815C407.342 408.815 412.674 403.483 412.674 396.906C412.674 390.33 407.342 384.998 400.765 384.998C394.189 384.998 388.857 390.33 388.857 396.906C388.857 403.483 394.189 408.815 400.765 408.815Z" fill="#E8ECE2" stroke="#242430" stroke-width="2.68919" stroke-miterlimit="10"/>
<path d="M520.686 175.514H183.225C175.677 175.514 169.639 169.476 169.639 161.928V129.054C169.639 121.507 175.677 115.469 183.225 115.469H520.686C528.233 115.469 534.271 121.507 534.271 129.054V161.761C534.271 169.308 528.233 175.514 520.686 175.514Z" fill="#FBD200" stroke="#242430" stroke-width="2.68919" stroke-miterlimit="10"/>
<path d="M517.515 158.655V132.154L186.427 132.154V158.655L517.515 158.655Z" fill="#242430" stroke="#242430" stroke-width="2.68919" stroke-miterlimit="10"/>
<path d="M134.915 436.489C196.238 436.489 245.949 386.777 245.949 325.455C245.949 264.133 196.238 214.422 134.915 214.422C73.5934 214.422 23.882 264.133 23.882 325.455C23.882 386.777 73.5934 436.489 134.915 436.489Z" fill="#FBD200" stroke="#242430" stroke-width="2.68919" stroke-miterlimit="10"/>
<path d="M134.924 417.036C185.501 417.036 226.501 376.035 226.501 325.458C226.501 274.881 185.501 233.881 134.924 233.881C84.347 233.881 43.3464 274.881 43.3464 325.458C43.3464 376.035 84.347 417.036 134.924 417.036Z" fill="#53E1AD" stroke="#242430" stroke-width="2.68919" stroke-miterlimit="10"/>
<path d="M569.157 436.489C630.479 436.489 680.19 386.777 680.19 325.455C680.19 264.133 630.479 214.422 569.157 214.422C507.835 214.422 458.123 264.133 458.123 325.455C458.123 386.777 507.835 436.489 569.157 436.489Z" fill="#FBD200" stroke="#242430" stroke-width="2.68919" stroke-miterlimit="10"/>
<path d="M569.154 417.036C619.73 417.036 660.731 376.035 660.731 325.458C660.731 274.881 619.73 233.881 569.154 233.881C518.577 233.881 477.576 274.881 477.576 325.458C477.576 376.035 518.577 417.036 569.154 417.036Z" fill="#53E1AD" stroke="#242430" stroke-width="2.68919" stroke-miterlimit="10"/>
<path d="M146.254 68.0039H179.463C186.843 68.0039 192.881 74.042 192.881 81.4218V85.9504H132.836V81.4218C132.836 74.042 138.874 68.0039 146.254 68.0039Z" fill="#242430" stroke="#242430" stroke-width="2.68919" stroke-miterlimit="10"/>
<path d="M105.738 44.4082H81.5066V86.0558H105.738V44.4082Z" fill="#E8ECE2" stroke="#242430" stroke-width="2.68919" stroke-miterlimit="10"/>
<path d="M270.44 186.766V312.391C270.44 325.474 281.007 336.04 294.089 336.04H409.986C423.069 336.04 433.636 325.474 433.636 312.391V186.766" fill="#FBD200"/>
<path d="M270.44 186.766V312.391C270.44 325.474 281.007 336.04 294.089 336.04H409.986C423.069 336.04 433.636 325.474 433.636 312.391V186.766H270.44Z" stroke="#242430" stroke-width="2.68919" stroke-miterlimit="10"/>
<path d="M287.209 186.766V305.514C287.209 313.062 293.415 319.268 300.963 319.268H403.107C410.654 319.268 416.86 313.062 416.86 305.514V186.766H287.209Z" fill="#FF665C" stroke="#242430" stroke-width="2.68919" stroke-miterlimit="10"/>
<path d="M385.494 293.423H318.572C312.031 293.423 306.832 288.224 306.832 281.683V248.641C306.832 242.1 312.031 236.9 318.572 236.9H385.494C392.036 236.9 397.235 242.1 397.235 248.641V281.683C397.235 288.056 392.036 293.423 385.494 293.423Z" fill="#53E1AD" stroke="#242430" stroke-width="2.68919" stroke-miterlimit="10"/>
<path d="M329.138 282.02C335.715 282.02 341.046 276.688 341.046 270.112C341.046 263.535 335.715 258.203 329.138 258.203C322.561 258.203 317.229 263.535 317.229 270.112C317.229 276.688 322.561 282.02 329.138 282.02Z" fill="#E8ECE2" stroke="#242430" stroke-width="2.68919" stroke-miterlimit="10"/>
<path d="M374.927 282.02C381.504 282.02 386.835 276.688 386.835 270.112C386.835 263.535 381.504 258.203 374.927 258.203C368.35 258.203 363.018 263.535 363.018 270.112C363.018 276.688 368.35 282.02 374.927 282.02Z" fill="#E8ECE2" stroke="#242430" stroke-width="2.68919" stroke-miterlimit="10"/>
<path d="M368.056 236.9L362.689 243.777H341.22L336.021 236.9" fill="#242430"/>
<path d="M368.056 236.9L362.689 243.777H341.22L336.021 236.9" stroke="#242430" stroke-width="2.68919" stroke-miterlimit="10"/>
<path d="M163.095 490.331H102.044C94.6637 490.331 88.6257 484.293 88.6257 476.913V463.998H176.681V476.913C176.681 484.293 170.643 490.331 163.095 490.331Z" fill="#E8ECE2" stroke="#242430" stroke-width="2.68919" stroke-miterlimit="10"/>
<path d="M602.032 490.331H540.812C533.432 490.331 527.394 484.293 527.394 476.913V463.998H615.45V476.913C615.45 484.293 609.412 490.331 602.032 490.331Z" fill="#E8ECE2" stroke="#242430" stroke-width="2.68919" stroke-miterlimit="10"/>
<path d="M2.08085 353.301H27.4072" stroke="#242430" stroke-width="2.68919" stroke-miterlimit="10"/>
<path d="M242.433 353.301H461.648" stroke="#242430" stroke-width="2.68919" stroke-miterlimit="10"/>
<path d="M676.004 353.301H702.002" stroke="#242430" stroke-width="2.68919" stroke-miterlimit="10"/>
<path d="M408.981 353.301H294.928V368.564H408.981V353.301Z" stroke="#242430" stroke-width="2.68919" stroke-miterlimit="10"/>
<path d="M569.159 396.739C608.527 396.739 640.442 364.825 640.442 325.457C640.442 286.088 608.527 254.174 569.159 254.174C529.79 254.174 497.876 286.088 497.876 325.457C497.876 364.825 529.79 396.739 569.159 396.739Z" fill="#E8ECE2" stroke="#242430" stroke-width="2.68919" stroke-miterlimit="10"/>
<path d="M134.914 396.739C174.282 396.739 206.196 364.825 206.196 325.457C206.196 286.088 174.282 254.174 134.914 254.174C95.5452 254.174 63.6308 286.088 63.6308 325.457C63.6308 364.825 95.5452 396.739 134.914 396.739Z" fill="#E8ECE2" stroke="#242430" stroke-width="2.68919" stroke-miterlimit="10"/>
<rect x="39.8624" y="2" width="623.957" height="42.4049" fill="#E8ECE2" stroke="#242430" stroke-width="2.68919" stroke-miterlimit="10"/>
<path d="M134.92 358.834C153.354 358.834 168.297 343.891 168.297 325.457C168.297 307.024 153.354 292.08 134.92 292.08C116.487 292.08 101.543 307.024 101.543 325.457C101.543 343.891 116.487 358.834 134.92 358.834Z" fill="#FBD200" stroke="#242430" stroke-width="2.68919" stroke-miterlimit="10"/>
<path d="M569.162 358.834C587.595 358.834 602.539 343.891 602.539 325.457C602.539 307.024 587.595 292.08 569.162 292.08C550.728 292.08 535.785 307.024 535.785 325.457C535.785 343.891 550.728 358.834 569.162 358.834Z" fill="#FBD200" stroke="#242430" stroke-width="2.68919" stroke-miterlimit="10"/>
<path d="M622.929 44.4043H598.697V86.0519H622.929V44.4043Z" fill="#E8ECE2" stroke="#242430" stroke-width="2.68919" stroke-miterlimit="10"/>
</svg>
