<svg width="57" height="37" viewBox="0 0 57 37" fill="none" xmlns="http://www.w3.org/2000/svg">
<rect x="1" y="1" width="50" height="30" fill="#53E1AD" stroke="#242430"/>
<path d="M56 36L51 31V1L56 6V36Z" fill="#E8ECE2" stroke="#242430" stroke-linejoin="bevel"/>
<path d="M6 36L1 31H51L56 36H6Z" fill="#242430" stroke="#242430" stroke-linejoin="bevel"/>
<path d="M27.5831 26L20.642 16.9292L20.6821 15.1316C23.9397 15.3661 26.4724 15.0059 27.0616 11.7875L20.1204 11.7459L21.2438 9.78097L26.7807 9.86421C25.9371 8.03292 23.6169 7.80721 20 7.94168L21.2438 6.01835L33 6L31.8364 7.8994H28.5865C29.1805 8.5543 29.6152 9.30784 29.6297 9.94767L33 9.90586L31.8364 11.7869L29.5896 11.8287C29.2388 14.6347 26.7705 16.2961 23.6514 16.6778L30.639 25.9975L27.5834 25.9993V25.9993L27.5831 26Z" fill="#242430"/>
</svg>
