<svg width="138" height="44" viewBox="0 0 138 44" fill="none" xmlns="http://www.w3.org/2000/svg">
<rect x="65.002" y="4.00195" width="72" height="36" fill="#53E1AD" stroke="#242430"/>
<rect x="1" y="1" width="64" height="41.9694" rx="2" fill="#E8ECE2" stroke="#242430"/>
<rect x="11.0088" y="13.002" width="44.0394" height="12.002" rx="6.001" fill="#53E1AD" stroke="#242430"/>
<ellipse cx="16.9883" cy="18.9995" rx="6" ry="5.99563" fill="#FBD200" stroke="#242430"/>
<line y1="-0.5" x2="11.9946" y2="-0.5" transform="matrix(0.707364 0.706849 -0.707364 0.706849 12.1377 15.3828)" stroke="#242430"/>
<line y1="-0.5" x2="11.9946" y2="-0.5" transform="matrix(0.707364 -0.706849 0.707364 0.706849 13.3691 23.834)" stroke="#242430"/>
<ellipse cx="49.0059" cy="18.9995" rx="6" ry="5.99563" fill="#FBD200" stroke="#242430"/>
<line y1="-0.5" x2="11.9946" y2="-0.5" transform="matrix(0.707364 0.706849 -0.707364 0.706849 44.1553 15.3828)" stroke="#242430"/>
<line y1="-0.5" x2="11.9946" y2="-0.5" transform="matrix(0.707364 -0.706849 0.707364 0.706849 45.3594 23.834)" stroke="#242430"/>
<path d="M14.4852 34.2646L10.9883 43.0005L54.9883 43.0005L51.4913 34.2646C51.1875 33.5055 50.4522 33.0078 49.6346 33.0078L16.342 33.0078C15.5244 33.0078 14.7891 33.5055 14.4852 34.2646Z" fill="#FF665C" stroke="#242430" stroke-linejoin="round"/>
<path d="M87.43 12.914V21.986H83.762L85.666 12.914H81.718L79.17 26.158H87.43V31.002H91.714V12.914H87.43ZM97.2665 16.918C99.3665 16.918 100.29 17.702 100.29 19.466C100.29 20.362 99.8985 21.342 98.9185 22.574L92.6745 30.442V31.002H105.47V26.858H100.29L102.67 24.058C104.406 21.986 105.022 20.11 105.022 18.458C105.022 14.93 102.922 12.718 98.1345 12.718C96.4545 12.718 94.7745 13.026 93.5425 13.334V17.394C94.8025 17.142 95.9225 16.918 97.2665 16.918ZM114.108 31.338C119.008 31.338 121.612 27.642 121.612 21.846C121.612 16.218 119.008 12.522 114.108 12.522C109.208 12.522 106.716 16.218 106.716 21.846C106.716 27.642 109.264 31.338 114.108 31.338ZM114.136 27.362C112.204 27.362 111.14 25.318 111.14 21.818C111.14 18.458 112.204 16.526 114.136 16.526C116.096 16.526 117.188 18.43 117.188 21.818C117.188 25.346 116.096 27.362 114.136 27.362Z" fill="#242430"/>
</svg>
