<svg width="33" height="32" viewBox="0 0 33 32" fill="none" xmlns="http://www.w3.org/2000/svg">
<path d="M16.6562 0C7.81989 0 0.65625 7.16291 0.65625 16C0.65625 24.8371 7.81989 32 16.6562 32C25.4926 32 32.6562 24.8371 32.6562 16C32.6562 7.16291 25.4926 0 16.6562 0ZM24.4623 23.065C24.2053 23.52 23.7326 23.776 23.2454 23.776C23.0175 23.776 22.7823 23.719 22.5666 23.599C20.569 22.479 18.392 21.793 16.0914 21.56C13.786 21.329 11.5096 21.5629 9.32292 22.2611C8.59322 22.4941 7.80778 22.0909 7.57505 21.36C7.3399 20.6279 7.74474 19.8451 8.47686 19.6109C11.0272 18.7961 13.6865 18.519 16.3726 18.792C19.0538 19.065 21.5944 19.865 23.9266 21.1721C24.5981 21.5459 24.8381 22.3939 24.4623 23.065ZM26.3775 18.2051C26.1302 18.681 25.6453 18.9539 25.1435 18.9539C24.9253 18.9539 24.7072 18.904 24.5011 18.7961C22.0453 17.5171 19.3932 16.7251 16.6126 16.4429C13.8102 16.1561 11.0344 16.4061 8.35807 17.1779C7.61868 17.3879 6.84778 16.9651 6.63687 16.2259C6.42353 15.488 6.85018 14.7171 7.58715 14.504C10.6078 13.633 13.7399 13.3539 16.8938 13.6739C20.0259 13.993 23.0175 14.8851 25.7884 16.329C26.4672 16.6841 26.7338 17.5239 26.3775 18.2051ZM27.0708 14.1619C26.8623 14.1619 26.6514 14.1149 26.4502 14.016C23.5363 12.5629 20.4017 11.6579 17.1314 11.3261C13.8562 10.991 10.5981 11.2499 7.44413 12.0921C6.70231 12.289 5.94109 11.849 5.74231 11.1059C5.54352 10.3639 5.98475 9.60097 6.72899 9.40291C10.2078 8.47394 13.8053 8.19103 17.415 8.55806C21.0199 8.92291 24.4769 9.92194 27.6914 11.5251C28.3799 11.8679 28.6587 12.704 28.3169 13.391C28.0744 13.88 27.5823 14.1619 27.0708 14.1619Z" fill="#E8ECE2"/>
</svg>
