<svg width="182" height="182" viewBox="0 0 182 182" fill="none" xmlns="http://www.w3.org/2000/svg">
<path d="M146.196 67.6611L178.385 90.6054L146.544 113.55L152.982 152.486L114.007 146.054L90.8663 178.385L67.7253 146.054L28.7509 152.486L35.1887 113.55L3 90.6054L35.1887 67.6611L28.7509 28.7254L67.7253 35.1568L90.6923 3L113.659 35.1568L152.634 28.7254L146.196 67.6611Z" fill="#FBD200" stroke="#242430" stroke-width="3.24786" stroke-miterlimit="10"/>
<path d="M58.456 78.632V89.32H48.6V97.576H58.456V108.264H66.904V97.576H76.696V89.32H66.904V78.632H58.456ZM100.327 113V103.528H95.399V70.824H94.311L79.335 75.624V85.608L85.159 83.432V103.528H79.335V113H100.327ZM111.44 113.32C123.408 113.32 129.36 108.392 129.36 99.304C129.36 91.112 124.048 87.528 114.896 87.656C114.064 87.656 113.296 87.784 112.528 87.912L113.616 81.256H127.248V71.656H105.808L102.288 93.992C104.464 93.8 109.84 93.672 112.144 93.672C117.135 93.672 119.632 95.272 119.632 98.536C119.632 102.056 116.688 103.848 110.928 103.848C107.664 103.848 104.848 103.336 101.52 102.888V112.232C104.208 112.744 107.792 113.32 111.44 113.32Z" fill="#242430"/>
</svg>
