<svg width="33" height="23" viewBox="0 0 33 23" fill="none" xmlns="http://www.w3.org/2000/svg">
<path d="M31.9971 3.50575C31.6281 2.13508 30.5474 1.05436 29.1767 0.685335C26.6726 0 16.6562 0 16.6562 0C16.6562 0 6.63975 0 4.13564 0.658976C2.79133 1.028 1.68425 2.13508 1.31523 3.50575C0.65625 6.00986 0.65625 11.2026 0.65625 11.2026C0.65625 11.2026 0.65625 16.4217 1.31523 18.8994C1.68425 20.2701 2.76497 21.3508 4.13564 21.7198C6.66611 22.4052 16.6562 22.4052 16.6562 22.4052C16.6562 22.4052 26.6726 22.4052 29.1767 21.7462C30.5474 21.3772 31.6281 20.2965 31.9971 18.9258C32.6561 16.4217 32.6561 11.2289 32.6561 11.2289C32.6561 11.2289 32.6825 6.00986 31.9971 3.50575Z" fill="#E8ECE2"/>
<path d="M13.4668 16L21.7962 11.2026L13.4668 6.40527V16Z" fill="#242430"/>
</svg>
