<svg width="32" height="32" viewBox="0 0 32 32" fill="none" xmlns="http://www.w3.org/2000/svg">
<path d="M26.9887 6.91418C24.9676 5.98683 22.8004 5.3036 20.5343 4.91229C20.4931 4.90473 20.4518 4.92361 20.4306 4.96136C20.1518 5.4571 19.8431 6.10384 19.6269 6.61218C17.1896 6.24729 14.7649 6.24729 12.3776 6.61218C12.1613 6.09254 11.8414 5.4571 11.5614 4.96136C11.5402 4.92487 11.4989 4.90599 11.4577 4.91229C9.19288 5.30235 7.0256 5.98558 5.00329 6.91418C4.98578 6.92173 4.97078 6.93432 4.96082 6.95067C0.849937 13.0922 -0.276205 19.0828 0.276243 24.9992C0.278742 25.0281 0.294991 25.0558 0.317489 25.0734C3.02973 27.0652 5.657 28.2744 8.23548 29.0759C8.27674 29.0885 8.32047 29.0734 8.34673 29.0394C8.95667 28.2065 9.50038 27.3282 9.96655 26.4046C9.99406 26.3505 9.9678 26.2864 9.91157 26.265C9.04916 25.9378 8.22797 25.539 7.43805 25.086C7.37557 25.0495 7.37056 24.9601 7.42804 24.9174C7.59427 24.7928 7.76055 24.6632 7.91927 24.5323C7.94799 24.5084 7.98801 24.5034 8.02177 24.5185C13.2112 26.8878 18.8295 26.8878 23.9577 24.5185C23.9915 24.5021 24.0315 24.5072 24.0615 24.5311C24.2202 24.6619 24.3865 24.7928 24.5539 24.9174C24.6114 24.9601 24.6077 25.0495 24.5452 25.086C23.7553 25.5478 22.9341 25.9378 22.0704 26.2637C22.0142 26.2851 21.9892 26.3505 22.0167 26.4046C22.4929 27.3269 23.0366 28.2052 23.6353 29.0382C23.6603 29.0734 23.7052 29.0885 23.7465 29.0759C26.3375 28.2744 28.9647 27.0652 31.677 25.0734C31.7007 25.0558 31.7157 25.0294 31.7182 25.0004C32.3794 18.1605 30.6108 12.219 27.0299 6.95192C27.0212 6.93432 27.0062 6.92173 26.9887 6.91418ZM10.7415 21.3967C9.17913 21.3967 7.89176 19.9624 7.89176 18.2008C7.89176 16.4392 9.15416 15.0048 10.7415 15.0048C12.3413 15.0048 13.6162 16.4518 13.5912 18.2008C13.5912 19.9624 12.3288 21.3967 10.7415 21.3967ZM21.278 21.3967C19.7156 21.3967 18.4283 19.9624 18.4283 18.2008C18.4283 16.4392 19.6906 15.0048 21.278 15.0048C22.8778 15.0048 24.1527 16.4518 24.1277 18.2008C24.1277 19.9624 22.8778 21.3967 21.278 21.3967Z" fill="#242430"/>
</svg>
