<svg width="25" height="24" viewBox="0 0 25 24" fill="none" xmlns="http://www.w3.org/2000/svg">
<path d="M6.67559 0C2.98933 0 0 2.98533 0 6.66667V17.3333C0 21.0147 2.98933 24 6.67559 24H17.3565C21.0428 24 24.0321 21.0147 24.0321 17.3333V6.66667C24.0321 2.98533 21.0428 0 17.3565 0H6.67559ZM20.0268 2.66667C20.7638 2.66667 21.3619 3.264 21.3619 4C21.3619 4.736 20.7638 5.33333 20.0268 5.33333C19.2898 5.33333 18.6917 4.736 18.6917 4C18.6917 3.264 19.2898 2.66667 20.0268 2.66667ZM12.0161 5.33333C15.7023 5.33333 18.6917 8.31867 18.6917 12C18.6917 15.6813 15.7023 18.6667 12.0161 18.6667C8.3298 18.6667 5.34047 15.6813 5.34047 12C5.34047 8.31867 8.3298 5.33333 12.0161 5.33333ZM12.0161 8C10.9538 8 9.935 8.42143 9.18385 9.17157C8.4327 9.92172 8.01071 10.9391 8.01071 12C8.01071 13.0609 8.4327 14.0783 9.18385 14.8284C9.935 15.5786 10.9538 16 12.0161 16C13.0784 16 14.0971 15.5786 14.8483 14.8284C15.5994 14.0783 16.0214 13.0609 16.0214 12C16.0214 10.9391 15.5994 9.92172 14.8483 9.17157C14.0971 8.42143 13.0784 8 12.0161 8Z" fill="#242430"/>
</svg>
