<svg width="32" height="32" viewBox="0 0 32 32" fill="none" xmlns="http://www.w3.org/2000/svg">
<path d="M28.076 9.57453C28.0884 9.85613 28.0884 10.1249 28.0884 10.4065C28.1007 18.9442 21.8281 28.8002 10.3571 28.8002C6.97383 28.8002 3.6523 27.789 0.799988 25.8946C1.2939 25.9586 1.7878 25.9842 2.28171 25.9842C5.08463 25.9842 7.81347 25.0114 10.0237 23.2066C7.35661 23.1554 5.01055 21.3506 4.1956 18.7138C5.13403 18.9058 6.09714 18.8674 7.01087 18.5986C4.10917 18.0098 2.02241 15.3602 2.01006 12.2753C2.01006 12.2497 2.01006 12.2241 2.01006 12.1985C2.8744 12.6977 3.84987 12.9793 4.83768 13.0049C2.10884 11.1105 1.25685 7.33453 2.91144 4.37772C6.0848 8.42253 10.7522 10.8673 15.7654 11.1361C15.2591 8.89613 15.9506 6.54092 17.5681 4.95372C20.0747 2.50891 24.026 2.63691 26.3967 5.23532C27.792 4.95372 29.1379 4.41612 30.3603 3.66091C29.8911 5.15852 28.9157 6.42572 27.6192 7.23213C28.8539 7.07853 30.064 6.73292 31.2 6.22092C30.3603 7.52653 29.2984 8.65293 28.076 9.57453Z" fill="#242430"/>
</svg>
