<svg xmlns="http://www.w3.org/2000/svg" width="54.049" height="66.24" viewBox="0 0 54.049 66.24">
  <g id="Group_4221" data-name="Group 4221" transform="translate(-1124.796 -2631.885)">
    <rect id="Rectangle_2154" data-name="Rectangle 2154" width="53.049" height="53.049" transform="translate(1125.296 2644.576)" fill="#e8ece2"/>
    <rect id="Rectangle_2155" data-name="Rectangle 2155" width="53.049" height="53.049" transform="translate(1125.296 2644.576)" fill="none" stroke="#1e1e28" stroke-linejoin="bevel" stroke-width="1"/>
    <path id="Path_1549" data-name="Path 1549" d="M25.773,140.278a9.743,9.743,0,1,1-9.743-9.743,9.743,9.743,0,0,1,9.743,9.743" transform="translate(1124.796 2540.855)" fill="#1e1e28"/>
    <circle id="Ellipse_11" data-name="Ellipse 11" cx="9.743" cy="9.743" r="9.743" transform="translate(1131.083 2671.39)" fill="none" stroke="#1e1e28" stroke-linejoin="bevel" stroke-width="1"/>
    <line id="Line_122" data-name="Line 122" y1="28.889" transform="translate(1150.569 2652.244)" fill="#e8ece2"/>
    <line id="Line_123" data-name="Line 123" y1="28.889" transform="translate(1150.569 2652.244)" fill="none" stroke="#1e1e28" stroke-linejoin="bevel" stroke-width="1"/>
    <rect id="Rectangle_2156" data-name="Rectangle 2156" width="21.285" height="12.291" transform="translate(1150.569 2652.245)" fill="#e8ece2"/>
    <rect id="Rectangle_2157" data-name="Rectangle 2157" width="21.285" height="12.291" transform="translate(1150.569 2652.245)" fill="none" stroke="#1e1e28" stroke-linejoin="round" stroke-width="1"/>
    <line id="Line_124" data-name="Line 124" x2="16.926" transform="translate(1156.595 2671.819)" fill="#e8ece2"/>
    <line id="Line_125" data-name="Line 125" x2="16.926" transform="translate(1156.595 2671.819)" fill="none" stroke="#1e1e28" stroke-linecap="round" stroke-linejoin="bevel" stroke-width="1"/>
    <line id="Line_126" data-name="Line 126" x2="16.926" transform="translate(1156.595 2675.316)" fill="#e8ece2"/>
    <line id="Line_127" data-name="Line 127" x2="16.926" transform="translate(1156.595 2675.316)" fill="none" stroke="#1e1e28" stroke-linecap="round" stroke-linejoin="bevel" stroke-width="1"/>
    <line id="Line_128" data-name="Line 128" x2="16.926" transform="translate(1156.595 2678.813)" fill="#e8ece2"/>
    <line id="Line_129" data-name="Line 129" x2="16.926" transform="translate(1156.595 2678.813)" fill="none" stroke="#1e1e28" stroke-linecap="round" stroke-linejoin="bevel" stroke-width="1"/>
    <line id="Line_130" data-name="Line 130" x2="16.926" transform="translate(1156.595 2682.31)" fill="#e8ece2"/>
    <line id="Line_131" data-name="Line 131" x2="16.926" transform="translate(1156.595 2682.31)" fill="none" stroke="#1e1e28" stroke-linecap="round" stroke-linejoin="bevel" stroke-width="1"/>
    <path id="Path_1550" data-name="Path 1550" d="M53.549,103.721H.5L1.75,91.53h50.4Z" transform="translate(1124.796 2540.855)" fill="#1e1e28"/>
    <path id="Path_1551" data-name="Path 1551" d="M53.549,103.721H.5L1.75,91.53h50.4Z" transform="translate(1124.796 2540.855)" fill="none" stroke="#1e1e28" stroke-linejoin="bevel" stroke-width="1"/>
  </g>
</svg>
